G04 EAGLE Gerber X2 export*
%TF.Part,Single*%
%TF.FileFunction,Copper,L1,Top,Mixed*%
%TF.FilePolarity,Positive*%
%TF.GenerationSoftware,Autodesk,EAGLE,9.0.0*%
%TF.CreationDate,2018-04-25T19:38:23Z*%
G75*
%MOMM*%
%FSLAX34Y34*%
%LPD*%
%AMOC8*
5,1,8,0,0,1.08239X$1,22.5*%
G01*
%ADD10C,0.130000*%
%ADD11C,0.152400*%
%ADD12P,1.759533X8X22.500000*%
%ADD13C,1.625600*%


D10*
X863600Y635000D02*
X863600Y857700D01*
X101600Y857700D02*
X101600Y635000D01*
X102250Y838200D02*
X862950Y838200D01*
X837600Y841392D01*
X837600Y835008D01*
X862950Y838200D01*
X837600Y839500D01*
X837600Y836900D02*
X862950Y838200D01*
X837600Y840800D01*
X837600Y835600D02*
X862950Y838200D01*
X127600Y841392D02*
X102250Y838200D01*
X127600Y841392D02*
X127600Y835008D01*
X102250Y838200D01*
X127600Y839500D01*
X127600Y836900D02*
X102250Y838200D01*
X127600Y840800D01*
X127600Y835600D02*
X102250Y838200D01*
D11*
X458548Y844707D02*
X463064Y844707D01*
X463197Y844709D01*
X463329Y844715D01*
X463461Y844725D01*
X463593Y844738D01*
X463725Y844756D01*
X463855Y844777D01*
X463986Y844802D01*
X464115Y844831D01*
X464243Y844864D01*
X464371Y844900D01*
X464497Y844940D01*
X464622Y844984D01*
X464746Y845032D01*
X464868Y845083D01*
X464989Y845138D01*
X465108Y845196D01*
X465226Y845258D01*
X465341Y845323D01*
X465455Y845392D01*
X465566Y845463D01*
X465675Y845539D01*
X465782Y845617D01*
X465887Y845698D01*
X465989Y845783D01*
X466089Y845870D01*
X466186Y845960D01*
X466281Y846053D01*
X466372Y846149D01*
X466461Y846247D01*
X466547Y846348D01*
X466630Y846452D01*
X466710Y846558D01*
X466786Y846666D01*
X466860Y846776D01*
X466930Y846889D01*
X466997Y847003D01*
X467060Y847120D01*
X467120Y847238D01*
X467177Y847358D01*
X467230Y847480D01*
X467279Y847603D01*
X467325Y847727D01*
X467367Y847853D01*
X467405Y847980D01*
X467440Y848108D01*
X467471Y848237D01*
X467498Y848366D01*
X467521Y848497D01*
X467541Y848628D01*
X467556Y848760D01*
X467568Y848892D01*
X467576Y849024D01*
X467580Y849157D01*
X467580Y849289D01*
X467576Y849422D01*
X467568Y849554D01*
X467556Y849686D01*
X467541Y849818D01*
X467521Y849949D01*
X467498Y850080D01*
X467471Y850209D01*
X467440Y850338D01*
X467405Y850466D01*
X467367Y850593D01*
X467325Y850719D01*
X467279Y850843D01*
X467230Y850966D01*
X467177Y851088D01*
X467120Y851208D01*
X467060Y851326D01*
X466997Y851443D01*
X466930Y851557D01*
X466860Y851670D01*
X466786Y851780D01*
X466710Y851888D01*
X466630Y851994D01*
X466547Y852098D01*
X466461Y852199D01*
X466372Y852297D01*
X466281Y852393D01*
X466186Y852486D01*
X466089Y852576D01*
X465989Y852663D01*
X465887Y852748D01*
X465782Y852829D01*
X465675Y852907D01*
X465566Y852983D01*
X465455Y853054D01*
X465341Y853123D01*
X465226Y853188D01*
X465108Y853250D01*
X464989Y853308D01*
X464868Y853363D01*
X464746Y853414D01*
X464622Y853462D01*
X464497Y853506D01*
X464371Y853546D01*
X464243Y853582D01*
X464115Y853615D01*
X463986Y853644D01*
X463855Y853669D01*
X463725Y853690D01*
X463593Y853708D01*
X463461Y853721D01*
X463329Y853731D01*
X463197Y853737D01*
X463064Y853739D01*
X463967Y860963D02*
X458548Y860963D01*
X463967Y860963D02*
X464086Y860961D01*
X464206Y860955D01*
X464325Y860945D01*
X464443Y860931D01*
X464562Y860914D01*
X464679Y860892D01*
X464796Y860867D01*
X464911Y860837D01*
X465026Y860804D01*
X465140Y860767D01*
X465252Y860727D01*
X465363Y860682D01*
X465472Y860634D01*
X465580Y860583D01*
X465686Y860528D01*
X465790Y860469D01*
X465892Y860407D01*
X465992Y860342D01*
X466090Y860273D01*
X466186Y860201D01*
X466279Y860126D01*
X466369Y860049D01*
X466457Y859968D01*
X466542Y859884D01*
X466624Y859797D01*
X466704Y859708D01*
X466780Y859616D01*
X466854Y859522D01*
X466924Y859425D01*
X466991Y859327D01*
X467055Y859226D01*
X467115Y859122D01*
X467172Y859017D01*
X467225Y858910D01*
X467275Y858802D01*
X467321Y858692D01*
X467363Y858580D01*
X467402Y858467D01*
X467437Y858353D01*
X467468Y858238D01*
X467496Y858121D01*
X467519Y858004D01*
X467539Y857887D01*
X467555Y857768D01*
X467567Y857649D01*
X467575Y857530D01*
X467579Y857411D01*
X467579Y857291D01*
X467575Y857172D01*
X467567Y857053D01*
X467555Y856934D01*
X467539Y856815D01*
X467519Y856698D01*
X467496Y856581D01*
X467468Y856464D01*
X467437Y856349D01*
X467402Y856235D01*
X467363Y856122D01*
X467321Y856010D01*
X467275Y855900D01*
X467225Y855792D01*
X467172Y855685D01*
X467115Y855580D01*
X467055Y855476D01*
X466991Y855375D01*
X466924Y855277D01*
X466854Y855180D01*
X466780Y855086D01*
X466704Y854994D01*
X466624Y854905D01*
X466542Y854818D01*
X466457Y854734D01*
X466369Y854653D01*
X466279Y854576D01*
X466186Y854501D01*
X466090Y854429D01*
X465992Y854360D01*
X465892Y854295D01*
X465790Y854233D01*
X465686Y854174D01*
X465580Y854119D01*
X465472Y854068D01*
X465363Y854020D01*
X465252Y853975D01*
X465140Y853935D01*
X465026Y853898D01*
X464911Y853865D01*
X464796Y853835D01*
X464679Y853810D01*
X464562Y853788D01*
X464443Y853771D01*
X464325Y853757D01*
X464206Y853747D01*
X464086Y853741D01*
X463967Y853739D01*
X463967Y853738D02*
X460354Y853738D01*
X473554Y845610D02*
X473554Y844707D01*
X473554Y845610D02*
X474457Y845610D01*
X474457Y844707D01*
X473554Y844707D01*
X480432Y852835D02*
X480436Y853155D01*
X480447Y853474D01*
X480466Y853794D01*
X480493Y854112D01*
X480527Y854430D01*
X480569Y854747D01*
X480619Y855063D01*
X480676Y855378D01*
X480740Y855691D01*
X480812Y856003D01*
X480891Y856313D01*
X480978Y856620D01*
X481072Y856926D01*
X481173Y857229D01*
X481282Y857530D01*
X481397Y857828D01*
X481520Y858124D01*
X481650Y858416D01*
X481787Y858705D01*
X481786Y858706D02*
X481825Y858814D01*
X481868Y858921D01*
X481914Y859026D01*
X481965Y859130D01*
X482018Y859232D01*
X482075Y859332D01*
X482136Y859430D01*
X482200Y859525D01*
X482267Y859619D01*
X482338Y859710D01*
X482411Y859799D01*
X482488Y859885D01*
X482567Y859968D01*
X482649Y860049D01*
X482734Y860127D01*
X482822Y860201D01*
X482912Y860273D01*
X483004Y860341D01*
X483099Y860407D01*
X483196Y860469D01*
X483295Y860527D01*
X483397Y860583D01*
X483499Y860634D01*
X483604Y860682D01*
X483710Y860727D01*
X483818Y860768D01*
X483927Y860805D01*
X484037Y860838D01*
X484149Y860867D01*
X484261Y860893D01*
X484374Y860915D01*
X484488Y860932D01*
X484602Y860946D01*
X484717Y860956D01*
X484832Y860962D01*
X484947Y860964D01*
X484947Y860963D02*
X485062Y860961D01*
X485177Y860955D01*
X485292Y860945D01*
X485406Y860931D01*
X485520Y860914D01*
X485633Y860892D01*
X485745Y860866D01*
X485857Y860837D01*
X485967Y860804D01*
X486076Y860767D01*
X486184Y860726D01*
X486290Y860681D01*
X486395Y860633D01*
X486497Y860582D01*
X486598Y860526D01*
X486698Y860468D01*
X486795Y860406D01*
X486889Y860341D01*
X486982Y860272D01*
X487072Y860200D01*
X487160Y860126D01*
X487245Y860048D01*
X487327Y859967D01*
X487406Y859884D01*
X487483Y859798D01*
X487556Y859709D01*
X487627Y859618D01*
X487694Y859524D01*
X487758Y859429D01*
X487819Y859331D01*
X487876Y859231D01*
X487929Y859129D01*
X487980Y859025D01*
X488026Y858920D01*
X488069Y858813D01*
X488108Y858705D01*
X488245Y858416D01*
X488375Y858124D01*
X488498Y857828D01*
X488613Y857530D01*
X488722Y857229D01*
X488823Y856926D01*
X488917Y856620D01*
X489004Y856313D01*
X489083Y856003D01*
X489155Y855691D01*
X489219Y855378D01*
X489276Y855063D01*
X489326Y854747D01*
X489368Y854430D01*
X489402Y854112D01*
X489429Y853794D01*
X489448Y853474D01*
X489459Y853155D01*
X489463Y852835D01*
X480432Y852835D02*
X480436Y852515D01*
X480447Y852196D01*
X480466Y851876D01*
X480493Y851558D01*
X480527Y851240D01*
X480569Y850923D01*
X480619Y850607D01*
X480676Y850292D01*
X480740Y849979D01*
X480812Y849667D01*
X480891Y849357D01*
X480978Y849050D01*
X481072Y848744D01*
X481173Y848441D01*
X481282Y848140D01*
X481397Y847842D01*
X481520Y847546D01*
X481650Y847254D01*
X481787Y846965D01*
X481786Y846965D02*
X481825Y846857D01*
X481868Y846750D01*
X481914Y846645D01*
X481965Y846541D01*
X482018Y846439D01*
X482075Y846339D01*
X482136Y846241D01*
X482200Y846146D01*
X482267Y846052D01*
X482338Y845961D01*
X482411Y845872D01*
X482488Y845786D01*
X482567Y845703D01*
X482649Y845622D01*
X482734Y845544D01*
X482822Y845470D01*
X482912Y845398D01*
X483005Y845329D01*
X483099Y845264D01*
X483196Y845202D01*
X483296Y845144D01*
X483397Y845088D01*
X483499Y845037D01*
X483604Y844989D01*
X483710Y844944D01*
X483818Y844903D01*
X483927Y844866D01*
X484037Y844833D01*
X484149Y844804D01*
X484261Y844778D01*
X484374Y844756D01*
X484488Y844739D01*
X484602Y844725D01*
X484717Y844715D01*
X484832Y844709D01*
X484947Y844707D01*
X488108Y846965D02*
X488245Y847254D01*
X488375Y847546D01*
X488498Y847842D01*
X488613Y848140D01*
X488722Y848441D01*
X488823Y848744D01*
X488917Y849050D01*
X489004Y849357D01*
X489083Y849667D01*
X489155Y849979D01*
X489219Y850292D01*
X489276Y850607D01*
X489326Y850923D01*
X489368Y851240D01*
X489402Y851558D01*
X489429Y851876D01*
X489448Y852196D01*
X489459Y852515D01*
X489463Y852835D01*
X488108Y846965D02*
X488069Y846857D01*
X488026Y846750D01*
X487980Y846645D01*
X487929Y846541D01*
X487876Y846439D01*
X487819Y846339D01*
X487758Y846241D01*
X487694Y846146D01*
X487627Y846052D01*
X487556Y845961D01*
X487483Y845872D01*
X487406Y845786D01*
X487327Y845703D01*
X487245Y845622D01*
X487160Y845544D01*
X487072Y845470D01*
X486982Y845398D01*
X486889Y845329D01*
X486795Y845264D01*
X486698Y845202D01*
X486598Y845144D01*
X486497Y845088D01*
X486394Y845037D01*
X486290Y844989D01*
X486184Y844944D01*
X486076Y844903D01*
X485967Y844866D01*
X485857Y844833D01*
X485745Y844804D01*
X485633Y844778D01*
X485520Y844756D01*
X485406Y844739D01*
X485292Y844725D01*
X485177Y844715D01*
X485062Y844709D01*
X484947Y844707D01*
X481335Y848319D02*
X488560Y857351D01*
X496063Y852835D02*
X496067Y853155D01*
X496078Y853474D01*
X496097Y853794D01*
X496124Y854112D01*
X496158Y854430D01*
X496200Y854747D01*
X496250Y855063D01*
X496307Y855378D01*
X496371Y855691D01*
X496443Y856003D01*
X496522Y856313D01*
X496609Y856620D01*
X496703Y856926D01*
X496804Y857229D01*
X496913Y857530D01*
X497028Y857828D01*
X497151Y858124D01*
X497281Y858416D01*
X497418Y858705D01*
X497418Y858706D02*
X497457Y858814D01*
X497500Y858921D01*
X497546Y859026D01*
X497597Y859130D01*
X497650Y859232D01*
X497707Y859332D01*
X497768Y859430D01*
X497832Y859525D01*
X497899Y859619D01*
X497970Y859710D01*
X498043Y859799D01*
X498120Y859885D01*
X498199Y859968D01*
X498281Y860049D01*
X498366Y860127D01*
X498454Y860201D01*
X498544Y860273D01*
X498636Y860341D01*
X498731Y860407D01*
X498828Y860469D01*
X498927Y860527D01*
X499029Y860583D01*
X499131Y860634D01*
X499236Y860682D01*
X499342Y860727D01*
X499450Y860768D01*
X499559Y860805D01*
X499669Y860838D01*
X499781Y860867D01*
X499893Y860893D01*
X500006Y860915D01*
X500120Y860932D01*
X500234Y860946D01*
X500349Y860956D01*
X500464Y860962D01*
X500579Y860964D01*
X500579Y860963D02*
X500694Y860961D01*
X500809Y860955D01*
X500924Y860945D01*
X501038Y860931D01*
X501152Y860914D01*
X501265Y860892D01*
X501377Y860866D01*
X501489Y860837D01*
X501599Y860804D01*
X501708Y860767D01*
X501816Y860726D01*
X501922Y860681D01*
X502027Y860633D01*
X502129Y860582D01*
X502230Y860526D01*
X502330Y860468D01*
X502427Y860406D01*
X502521Y860341D01*
X502614Y860272D01*
X502704Y860200D01*
X502792Y860126D01*
X502877Y860048D01*
X502959Y859967D01*
X503038Y859884D01*
X503115Y859798D01*
X503188Y859709D01*
X503259Y859618D01*
X503326Y859524D01*
X503390Y859429D01*
X503451Y859331D01*
X503508Y859231D01*
X503561Y859129D01*
X503612Y859025D01*
X503658Y858920D01*
X503701Y858813D01*
X503740Y858705D01*
X503739Y858705D02*
X503876Y858416D01*
X504006Y858124D01*
X504129Y857828D01*
X504244Y857530D01*
X504353Y857229D01*
X504454Y856926D01*
X504548Y856620D01*
X504635Y856313D01*
X504714Y856003D01*
X504786Y855691D01*
X504850Y855378D01*
X504907Y855063D01*
X504957Y854747D01*
X504999Y854430D01*
X505033Y854112D01*
X505060Y853794D01*
X505079Y853474D01*
X505090Y853155D01*
X505094Y852835D01*
X496063Y852835D02*
X496067Y852515D01*
X496078Y852196D01*
X496097Y851876D01*
X496124Y851558D01*
X496158Y851240D01*
X496200Y850923D01*
X496250Y850607D01*
X496307Y850292D01*
X496371Y849979D01*
X496443Y849667D01*
X496522Y849357D01*
X496609Y849050D01*
X496703Y848744D01*
X496804Y848441D01*
X496913Y848140D01*
X497028Y847842D01*
X497151Y847546D01*
X497281Y847254D01*
X497418Y846965D01*
X497457Y846857D01*
X497500Y846750D01*
X497546Y846645D01*
X497597Y846541D01*
X497650Y846439D01*
X497707Y846339D01*
X497768Y846241D01*
X497832Y846146D01*
X497899Y846052D01*
X497970Y845961D01*
X498043Y845872D01*
X498120Y845786D01*
X498199Y845703D01*
X498281Y845622D01*
X498366Y845544D01*
X498454Y845470D01*
X498544Y845398D01*
X498637Y845329D01*
X498731Y845264D01*
X498828Y845202D01*
X498928Y845144D01*
X499029Y845088D01*
X499131Y845037D01*
X499236Y844989D01*
X499342Y844944D01*
X499450Y844903D01*
X499559Y844866D01*
X499669Y844833D01*
X499781Y844804D01*
X499893Y844778D01*
X500006Y844756D01*
X500120Y844739D01*
X500234Y844725D01*
X500349Y844715D01*
X500464Y844709D01*
X500579Y844707D01*
X503739Y846965D02*
X503876Y847254D01*
X504006Y847546D01*
X504129Y847842D01*
X504244Y848140D01*
X504353Y848441D01*
X504454Y848744D01*
X504548Y849050D01*
X504635Y849357D01*
X504714Y849667D01*
X504786Y849979D01*
X504850Y850292D01*
X504907Y850607D01*
X504957Y850923D01*
X504999Y851240D01*
X505033Y851558D01*
X505060Y851876D01*
X505079Y852196D01*
X505090Y852515D01*
X505094Y852835D01*
X503740Y846965D02*
X503701Y846857D01*
X503658Y846750D01*
X503612Y846645D01*
X503561Y846541D01*
X503508Y846439D01*
X503451Y846339D01*
X503390Y846241D01*
X503326Y846146D01*
X503259Y846052D01*
X503188Y845961D01*
X503115Y845872D01*
X503038Y845786D01*
X502959Y845703D01*
X502877Y845622D01*
X502792Y845544D01*
X502704Y845470D01*
X502614Y845398D01*
X502521Y845329D01*
X502427Y845264D01*
X502330Y845202D01*
X502230Y845144D01*
X502129Y845088D01*
X502026Y845037D01*
X501922Y844989D01*
X501816Y844944D01*
X501708Y844903D01*
X501599Y844866D01*
X501489Y844833D01*
X501377Y844804D01*
X501265Y844778D01*
X501152Y844756D01*
X501038Y844739D01*
X500924Y844725D01*
X500809Y844715D01*
X500694Y844709D01*
X500579Y844707D01*
X496966Y848319D02*
X504191Y857351D01*
D10*
X863600Y127000D02*
X1124400Y127000D01*
X1124400Y635000D02*
X863600Y635000D01*
X1104900Y634350D02*
X1104900Y127650D01*
X1101708Y153000D01*
X1108092Y153000D01*
X1104900Y127650D01*
X1103600Y153000D01*
X1106200Y153000D02*
X1104900Y127650D01*
X1102300Y153000D01*
X1107500Y153000D02*
X1104900Y127650D01*
X1101708Y609000D02*
X1104900Y634350D01*
X1101708Y609000D02*
X1108092Y609000D01*
X1104900Y634350D01*
X1103600Y609000D01*
X1106200Y609000D02*
X1104900Y634350D01*
X1102300Y609000D01*
X1107500Y609000D02*
X1104900Y634350D01*
D11*
X1086201Y365979D02*
X1086076Y365977D01*
X1085951Y365971D01*
X1085826Y365962D01*
X1085702Y365948D01*
X1085578Y365931D01*
X1085454Y365910D01*
X1085332Y365885D01*
X1085210Y365856D01*
X1085089Y365824D01*
X1084969Y365788D01*
X1084850Y365748D01*
X1084733Y365705D01*
X1084617Y365658D01*
X1084502Y365607D01*
X1084390Y365553D01*
X1084278Y365495D01*
X1084169Y365435D01*
X1084062Y365370D01*
X1083956Y365303D01*
X1083853Y365232D01*
X1083752Y365158D01*
X1083653Y365081D01*
X1083557Y365001D01*
X1083463Y364918D01*
X1083372Y364833D01*
X1083283Y364744D01*
X1083198Y364653D01*
X1083115Y364559D01*
X1083035Y364463D01*
X1082958Y364364D01*
X1082884Y364263D01*
X1082813Y364160D01*
X1082746Y364054D01*
X1082681Y363947D01*
X1082621Y363838D01*
X1082563Y363726D01*
X1082509Y363614D01*
X1082458Y363499D01*
X1082411Y363383D01*
X1082368Y363266D01*
X1082328Y363147D01*
X1082292Y363027D01*
X1082260Y362906D01*
X1082231Y362784D01*
X1082206Y362662D01*
X1082185Y362538D01*
X1082168Y362414D01*
X1082154Y362290D01*
X1082145Y362165D01*
X1082139Y362040D01*
X1082137Y361915D01*
X1082139Y361772D01*
X1082145Y361630D01*
X1082155Y361487D01*
X1082168Y361345D01*
X1082186Y361204D01*
X1082207Y361062D01*
X1082232Y360922D01*
X1082261Y360782D01*
X1082294Y360643D01*
X1082331Y360505D01*
X1082371Y360368D01*
X1082415Y360233D01*
X1082463Y360098D01*
X1082515Y359965D01*
X1082570Y359833D01*
X1082629Y359703D01*
X1082691Y359575D01*
X1082757Y359448D01*
X1082826Y359323D01*
X1082898Y359200D01*
X1082974Y359079D01*
X1083053Y358961D01*
X1083136Y358844D01*
X1083221Y358730D01*
X1083310Y358618D01*
X1083401Y358509D01*
X1083496Y358402D01*
X1083593Y358297D01*
X1083694Y358196D01*
X1083797Y358097D01*
X1083902Y358001D01*
X1084011Y357908D01*
X1084122Y357818D01*
X1084235Y357731D01*
X1084350Y357647D01*
X1084468Y357567D01*
X1084588Y357489D01*
X1084710Y357415D01*
X1084834Y357345D01*
X1084960Y357277D01*
X1085088Y357214D01*
X1085217Y357153D01*
X1085348Y357096D01*
X1085480Y357043D01*
X1085614Y356994D01*
X1085749Y356948D01*
X1089362Y364624D02*
X1089270Y364718D01*
X1089176Y364808D01*
X1089079Y364896D01*
X1088979Y364981D01*
X1088877Y365063D01*
X1088772Y365141D01*
X1088665Y365217D01*
X1088556Y365289D01*
X1088445Y365358D01*
X1088331Y365424D01*
X1088216Y365486D01*
X1088099Y365545D01*
X1087980Y365600D01*
X1087860Y365651D01*
X1087738Y365699D01*
X1087615Y365744D01*
X1087491Y365784D01*
X1087365Y365821D01*
X1087238Y365854D01*
X1087111Y365883D01*
X1086982Y365909D01*
X1086853Y365930D01*
X1086723Y365948D01*
X1086593Y365961D01*
X1086463Y365971D01*
X1086332Y365977D01*
X1086201Y365979D01*
X1089362Y364625D02*
X1098393Y356948D01*
X1098393Y365979D01*
X1098393Y371954D02*
X1097490Y371954D01*
X1097490Y372857D01*
X1098393Y372857D01*
X1098393Y371954D01*
X1090265Y378832D02*
X1089945Y378836D01*
X1089626Y378847D01*
X1089306Y378866D01*
X1088988Y378893D01*
X1088670Y378927D01*
X1088353Y378969D01*
X1088037Y379019D01*
X1087722Y379076D01*
X1087409Y379140D01*
X1087097Y379212D01*
X1086787Y379291D01*
X1086480Y379378D01*
X1086174Y379472D01*
X1085871Y379573D01*
X1085570Y379682D01*
X1085272Y379797D01*
X1084976Y379920D01*
X1084684Y380050D01*
X1084395Y380187D01*
X1084394Y380187D02*
X1084286Y380226D01*
X1084179Y380269D01*
X1084074Y380315D01*
X1083971Y380365D01*
X1083869Y380419D01*
X1083769Y380476D01*
X1083671Y380537D01*
X1083575Y380601D01*
X1083482Y380668D01*
X1083391Y380738D01*
X1083302Y380812D01*
X1083216Y380888D01*
X1083133Y380968D01*
X1083052Y381050D01*
X1082974Y381135D01*
X1082900Y381222D01*
X1082828Y381313D01*
X1082759Y381405D01*
X1082694Y381500D01*
X1082632Y381597D01*
X1082573Y381696D01*
X1082518Y381797D01*
X1082467Y381900D01*
X1082419Y382005D01*
X1082374Y382111D01*
X1082333Y382218D01*
X1082296Y382327D01*
X1082263Y382438D01*
X1082234Y382549D01*
X1082208Y382661D01*
X1082186Y382774D01*
X1082169Y382888D01*
X1082155Y383002D01*
X1082145Y383117D01*
X1082139Y383232D01*
X1082137Y383347D01*
X1082139Y383462D01*
X1082145Y383577D01*
X1082155Y383692D01*
X1082169Y383806D01*
X1082186Y383920D01*
X1082208Y384033D01*
X1082234Y384145D01*
X1082263Y384257D01*
X1082296Y384367D01*
X1082333Y384476D01*
X1082374Y384584D01*
X1082419Y384690D01*
X1082467Y384795D01*
X1082518Y384897D01*
X1082574Y384999D01*
X1082632Y385098D01*
X1082694Y385195D01*
X1082760Y385290D01*
X1082828Y385382D01*
X1082900Y385472D01*
X1082974Y385560D01*
X1083052Y385645D01*
X1083133Y385727D01*
X1083216Y385806D01*
X1083302Y385883D01*
X1083391Y385956D01*
X1083482Y386027D01*
X1083576Y386094D01*
X1083671Y386158D01*
X1083769Y386219D01*
X1083869Y386276D01*
X1083971Y386329D01*
X1084075Y386380D01*
X1084180Y386426D01*
X1084287Y386469D01*
X1084395Y386508D01*
X1084684Y386645D01*
X1084976Y386775D01*
X1085272Y386898D01*
X1085570Y387013D01*
X1085871Y387122D01*
X1086174Y387223D01*
X1086480Y387317D01*
X1086787Y387404D01*
X1087097Y387483D01*
X1087409Y387555D01*
X1087722Y387619D01*
X1088037Y387676D01*
X1088353Y387726D01*
X1088670Y387768D01*
X1088988Y387802D01*
X1089306Y387829D01*
X1089626Y387848D01*
X1089945Y387859D01*
X1090265Y387863D01*
X1090265Y378832D02*
X1090585Y378836D01*
X1090904Y378847D01*
X1091224Y378866D01*
X1091542Y378893D01*
X1091860Y378927D01*
X1092177Y378969D01*
X1092493Y379019D01*
X1092808Y379076D01*
X1093121Y379140D01*
X1093433Y379212D01*
X1093743Y379291D01*
X1094050Y379378D01*
X1094356Y379472D01*
X1094659Y379573D01*
X1094960Y379682D01*
X1095258Y379797D01*
X1095554Y379920D01*
X1095846Y380050D01*
X1096135Y380187D01*
X1096136Y380186D02*
X1096244Y380225D01*
X1096351Y380268D01*
X1096456Y380314D01*
X1096560Y380365D01*
X1096662Y380418D01*
X1096762Y380475D01*
X1096860Y380536D01*
X1096955Y380600D01*
X1097049Y380667D01*
X1097140Y380738D01*
X1097229Y380811D01*
X1097315Y380888D01*
X1097398Y380967D01*
X1097479Y381049D01*
X1097557Y381134D01*
X1097631Y381222D01*
X1097703Y381312D01*
X1097772Y381405D01*
X1097837Y381499D01*
X1097899Y381596D01*
X1097957Y381696D01*
X1098013Y381797D01*
X1098064Y381899D01*
X1098112Y382004D01*
X1098157Y382110D01*
X1098198Y382218D01*
X1098235Y382327D01*
X1098268Y382437D01*
X1098297Y382549D01*
X1098323Y382661D01*
X1098345Y382774D01*
X1098362Y382888D01*
X1098376Y383002D01*
X1098386Y383117D01*
X1098392Y383232D01*
X1098394Y383347D01*
X1096135Y386508D02*
X1095846Y386645D01*
X1095554Y386775D01*
X1095258Y386898D01*
X1094960Y387013D01*
X1094659Y387122D01*
X1094356Y387223D01*
X1094050Y387317D01*
X1093743Y387404D01*
X1093433Y387483D01*
X1093121Y387555D01*
X1092808Y387619D01*
X1092493Y387676D01*
X1092177Y387726D01*
X1091860Y387768D01*
X1091542Y387802D01*
X1091224Y387829D01*
X1090904Y387848D01*
X1090585Y387859D01*
X1090265Y387863D01*
X1096135Y386508D02*
X1096243Y386469D01*
X1096350Y386426D01*
X1096455Y386380D01*
X1096559Y386329D01*
X1096661Y386276D01*
X1096761Y386219D01*
X1096859Y386158D01*
X1096954Y386094D01*
X1097048Y386027D01*
X1097139Y385956D01*
X1097228Y385883D01*
X1097314Y385806D01*
X1097397Y385727D01*
X1097478Y385645D01*
X1097556Y385560D01*
X1097630Y385472D01*
X1097702Y385382D01*
X1097771Y385289D01*
X1097836Y385195D01*
X1097898Y385098D01*
X1097956Y384998D01*
X1098012Y384897D01*
X1098063Y384794D01*
X1098111Y384690D01*
X1098156Y384584D01*
X1098197Y384476D01*
X1098234Y384367D01*
X1098267Y384257D01*
X1098296Y384145D01*
X1098322Y384033D01*
X1098344Y383920D01*
X1098361Y383806D01*
X1098375Y383692D01*
X1098385Y383577D01*
X1098391Y383462D01*
X1098393Y383347D01*
X1094781Y379735D02*
X1085749Y386960D01*
X1090265Y394463D02*
X1089945Y394467D01*
X1089626Y394478D01*
X1089306Y394497D01*
X1088988Y394524D01*
X1088670Y394558D01*
X1088353Y394600D01*
X1088037Y394650D01*
X1087722Y394707D01*
X1087409Y394771D01*
X1087097Y394843D01*
X1086787Y394922D01*
X1086480Y395009D01*
X1086174Y395103D01*
X1085871Y395204D01*
X1085570Y395313D01*
X1085272Y395428D01*
X1084976Y395551D01*
X1084684Y395681D01*
X1084395Y395818D01*
X1084394Y395819D02*
X1084286Y395858D01*
X1084179Y395901D01*
X1084074Y395947D01*
X1083971Y395997D01*
X1083869Y396051D01*
X1083769Y396108D01*
X1083671Y396169D01*
X1083575Y396233D01*
X1083482Y396300D01*
X1083391Y396370D01*
X1083302Y396444D01*
X1083216Y396520D01*
X1083133Y396600D01*
X1083052Y396682D01*
X1082974Y396767D01*
X1082900Y396854D01*
X1082828Y396945D01*
X1082759Y397037D01*
X1082694Y397132D01*
X1082632Y397229D01*
X1082573Y397328D01*
X1082518Y397429D01*
X1082467Y397532D01*
X1082419Y397637D01*
X1082374Y397743D01*
X1082333Y397850D01*
X1082296Y397959D01*
X1082263Y398070D01*
X1082234Y398181D01*
X1082208Y398293D01*
X1082186Y398406D01*
X1082169Y398520D01*
X1082155Y398634D01*
X1082145Y398749D01*
X1082139Y398864D01*
X1082137Y398979D01*
X1082139Y399094D01*
X1082145Y399209D01*
X1082155Y399324D01*
X1082169Y399438D01*
X1082186Y399552D01*
X1082208Y399665D01*
X1082234Y399777D01*
X1082263Y399889D01*
X1082296Y399999D01*
X1082333Y400108D01*
X1082374Y400216D01*
X1082419Y400322D01*
X1082467Y400427D01*
X1082518Y400529D01*
X1082574Y400631D01*
X1082632Y400730D01*
X1082694Y400827D01*
X1082760Y400922D01*
X1082828Y401014D01*
X1082900Y401104D01*
X1082974Y401192D01*
X1083052Y401277D01*
X1083133Y401359D01*
X1083216Y401438D01*
X1083302Y401515D01*
X1083391Y401588D01*
X1083482Y401659D01*
X1083576Y401726D01*
X1083671Y401790D01*
X1083769Y401851D01*
X1083869Y401908D01*
X1083971Y401961D01*
X1084075Y402012D01*
X1084180Y402058D01*
X1084287Y402101D01*
X1084395Y402140D01*
X1084395Y402139D02*
X1084684Y402276D01*
X1084976Y402406D01*
X1085272Y402529D01*
X1085570Y402644D01*
X1085871Y402753D01*
X1086174Y402854D01*
X1086480Y402948D01*
X1086787Y403035D01*
X1087097Y403114D01*
X1087409Y403186D01*
X1087722Y403250D01*
X1088037Y403307D01*
X1088353Y403357D01*
X1088670Y403399D01*
X1088988Y403433D01*
X1089306Y403460D01*
X1089626Y403479D01*
X1089945Y403490D01*
X1090265Y403494D01*
X1090265Y394463D02*
X1090585Y394467D01*
X1090904Y394478D01*
X1091224Y394497D01*
X1091542Y394524D01*
X1091860Y394558D01*
X1092177Y394600D01*
X1092493Y394650D01*
X1092808Y394707D01*
X1093121Y394771D01*
X1093433Y394843D01*
X1093743Y394922D01*
X1094050Y395009D01*
X1094356Y395103D01*
X1094659Y395204D01*
X1094960Y395313D01*
X1095258Y395428D01*
X1095554Y395551D01*
X1095846Y395681D01*
X1096135Y395818D01*
X1096136Y395818D02*
X1096244Y395857D01*
X1096351Y395900D01*
X1096456Y395946D01*
X1096560Y395997D01*
X1096662Y396050D01*
X1096762Y396107D01*
X1096860Y396168D01*
X1096955Y396232D01*
X1097049Y396299D01*
X1097140Y396370D01*
X1097229Y396443D01*
X1097315Y396520D01*
X1097398Y396599D01*
X1097479Y396681D01*
X1097557Y396766D01*
X1097631Y396854D01*
X1097703Y396944D01*
X1097772Y397037D01*
X1097837Y397131D01*
X1097899Y397228D01*
X1097957Y397328D01*
X1098013Y397429D01*
X1098064Y397531D01*
X1098112Y397636D01*
X1098157Y397742D01*
X1098198Y397850D01*
X1098235Y397959D01*
X1098268Y398069D01*
X1098297Y398181D01*
X1098323Y398293D01*
X1098345Y398406D01*
X1098362Y398520D01*
X1098376Y398634D01*
X1098386Y398749D01*
X1098392Y398864D01*
X1098394Y398979D01*
X1096135Y402139D02*
X1095846Y402276D01*
X1095554Y402406D01*
X1095258Y402529D01*
X1094960Y402644D01*
X1094659Y402753D01*
X1094356Y402854D01*
X1094050Y402948D01*
X1093743Y403035D01*
X1093433Y403114D01*
X1093121Y403186D01*
X1092808Y403250D01*
X1092493Y403307D01*
X1092177Y403357D01*
X1091860Y403399D01*
X1091542Y403433D01*
X1091224Y403460D01*
X1090904Y403479D01*
X1090585Y403490D01*
X1090265Y403494D01*
X1096135Y402140D02*
X1096243Y402101D01*
X1096350Y402058D01*
X1096455Y402012D01*
X1096559Y401961D01*
X1096661Y401908D01*
X1096761Y401851D01*
X1096859Y401790D01*
X1096954Y401726D01*
X1097048Y401659D01*
X1097139Y401588D01*
X1097228Y401515D01*
X1097314Y401438D01*
X1097397Y401359D01*
X1097478Y401277D01*
X1097556Y401192D01*
X1097630Y401104D01*
X1097702Y401014D01*
X1097771Y400921D01*
X1097836Y400827D01*
X1097898Y400730D01*
X1097956Y400630D01*
X1098012Y400529D01*
X1098063Y400426D01*
X1098111Y400322D01*
X1098156Y400216D01*
X1098197Y400108D01*
X1098234Y399999D01*
X1098267Y399889D01*
X1098296Y399777D01*
X1098322Y399665D01*
X1098344Y399552D01*
X1098361Y399438D01*
X1098375Y399324D01*
X1098385Y399209D01*
X1098391Y399094D01*
X1098393Y398979D01*
X1094781Y395366D02*
X1085749Y402591D01*
D12*
X241300Y368300D03*
X241300Y393700D03*
X266700Y368300D03*
X266700Y393700D03*
X292100Y368300D03*
X292100Y393700D03*
X317500Y368300D03*
X317500Y393700D03*
X342900Y368300D03*
X342900Y393700D03*
X368300Y368300D03*
X368300Y393700D03*
X393700Y368300D03*
X393700Y393700D03*
X419100Y368300D03*
X419100Y393700D03*
X444500Y368300D03*
X444500Y393700D03*
X469900Y368300D03*
X469900Y393700D03*
X495300Y368300D03*
X495300Y393700D03*
X520700Y368300D03*
X520700Y393700D03*
X546100Y368300D03*
X546100Y393700D03*
X571500Y368300D03*
X571500Y393700D03*
X596900Y368300D03*
X596900Y393700D03*
X622300Y368300D03*
X622300Y393700D03*
X647700Y368300D03*
X647700Y393700D03*
X673100Y368300D03*
X673100Y393700D03*
X698500Y368300D03*
X698500Y393700D03*
X723900Y368300D03*
X723900Y393700D03*
D13*
X241300Y160528D02*
X241300Y144272D01*
X266700Y144272D02*
X266700Y160528D01*
X292100Y160528D02*
X292100Y144272D01*
X317500Y144272D02*
X317500Y160528D01*
X342900Y160528D02*
X342900Y144272D01*
X368300Y144272D02*
X368300Y160528D01*
X393700Y160528D02*
X393700Y144272D01*
X419100Y144272D02*
X419100Y160528D01*
X444500Y160528D02*
X444500Y144272D01*
X469900Y144272D02*
X469900Y160528D01*
X495300Y160528D02*
X495300Y144272D01*
X520700Y144272D02*
X520700Y160528D01*
X546100Y160528D02*
X546100Y144272D01*
X571500Y144272D02*
X571500Y160528D01*
X596900Y160528D02*
X596900Y144272D01*
X622300Y144272D02*
X622300Y160528D01*
X647700Y160528D02*
X647700Y144272D01*
X673100Y144272D02*
X673100Y160528D01*
X698500Y160528D02*
X698500Y144272D01*
X723900Y144272D02*
X723900Y160528D01*
X241300Y601472D02*
X241300Y617728D01*
X266700Y617728D02*
X266700Y601472D01*
X292100Y601472D02*
X292100Y617728D01*
X317500Y617728D02*
X317500Y601472D01*
X342900Y601472D02*
X342900Y617728D01*
X368300Y617728D02*
X368300Y601472D01*
X393700Y601472D02*
X393700Y617728D01*
X419100Y617728D02*
X419100Y601472D01*
X444500Y601472D02*
X444500Y617728D01*
X469900Y617728D02*
X469900Y601472D01*
X495300Y601472D02*
X495300Y617728D01*
X520700Y617728D02*
X520700Y601472D01*
X546100Y601472D02*
X546100Y617728D01*
X571500Y617728D02*
X571500Y601472D01*
X596900Y601472D02*
X596900Y617728D01*
X622300Y617728D02*
X622300Y601472D01*
X647700Y601472D02*
X647700Y617728D01*
X673100Y617728D02*
X673100Y601472D01*
X698500Y601472D02*
X698500Y617728D01*
X723900Y617728D02*
X723900Y601472D01*
D11*
X241808Y367792D02*
X241808Y152908D01*
X241300Y152400D01*
X241808Y367792D02*
X241300Y368300D01*
X343916Y367792D02*
X343916Y152908D01*
X342900Y152400D01*
X343916Y367792D02*
X342900Y368300D01*
X267716Y367792D02*
X267716Y152908D01*
X266700Y152400D01*
X267716Y367792D02*
X266700Y368300D01*
X292100Y368300D02*
X292100Y152400D01*
X318008Y152908D02*
X318008Y367792D01*
X318008Y152908D02*
X317500Y152400D01*
X318008Y367792D02*
X317500Y368300D01*
X368300Y368300D02*
X368300Y152400D01*
X394208Y152908D02*
X394208Y367792D01*
X394208Y152908D02*
X393700Y152400D01*
X394208Y367792D02*
X393700Y368300D01*
X420116Y367792D02*
X420116Y152908D01*
X419100Y152400D01*
X420116Y367792D02*
X419100Y368300D01*
X444500Y368300D02*
X444500Y152400D01*
X470408Y152908D02*
X470408Y367792D01*
X470408Y152908D02*
X469900Y152400D01*
X470408Y367792D02*
X469900Y368300D01*
X496316Y367792D02*
X496316Y152908D01*
X495300Y152400D01*
X496316Y367792D02*
X495300Y368300D01*
X520700Y368300D02*
X520700Y152400D01*
X546608Y152908D02*
X546608Y367792D01*
X546608Y152908D02*
X546100Y152400D01*
X546608Y367792D02*
X546100Y368300D01*
X572516Y367792D02*
X572516Y152908D01*
X571500Y152400D01*
X572516Y367792D02*
X571500Y368300D01*
X596900Y368300D02*
X596900Y152400D01*
X622808Y152908D02*
X622808Y367792D01*
X622808Y152908D02*
X622300Y152400D01*
X622808Y367792D02*
X622300Y368300D01*
X648716Y367792D02*
X648716Y152908D01*
X647700Y152400D01*
X648716Y367792D02*
X647700Y368300D01*
X673100Y368300D02*
X673100Y152400D01*
X699008Y152908D02*
X699008Y367792D01*
X699008Y152908D02*
X698500Y152400D01*
X699008Y367792D02*
X698500Y368300D01*
X724916Y367792D02*
X724916Y152908D01*
X723900Y152400D01*
X724916Y367792D02*
X723900Y368300D01*
X724916Y393700D02*
X724916Y608584D01*
X724916Y393700D02*
X723900Y393700D01*
X724916Y608584D02*
X723900Y609600D01*
X699008Y608584D02*
X699008Y393700D01*
X698500Y393700D01*
X699008Y608584D02*
X698500Y609600D01*
X673100Y609600D02*
X673100Y393700D01*
X648716Y393700D02*
X648716Y608584D01*
X648716Y393700D02*
X647700Y393700D01*
X648716Y608584D02*
X647700Y609600D01*
X622808Y608584D02*
X622808Y393700D01*
X622300Y393700D01*
X622808Y608584D02*
X622300Y609600D01*
X596900Y609600D02*
X596900Y393700D01*
X572516Y393700D02*
X572516Y608584D01*
X572516Y393700D02*
X571500Y393700D01*
X572516Y608584D02*
X571500Y609600D01*
X546608Y608584D02*
X546608Y393700D01*
X546100Y393700D01*
X546608Y608584D02*
X546100Y609600D01*
X520700Y609600D02*
X520700Y393700D01*
X496316Y393700D02*
X496316Y608584D01*
X496316Y393700D02*
X495300Y393700D01*
X496316Y608584D02*
X495300Y609600D01*
X470408Y608584D02*
X470408Y393700D01*
X469900Y393700D01*
X470408Y608584D02*
X469900Y609600D01*
X444500Y609600D02*
X444500Y393700D01*
X420116Y393700D02*
X420116Y608584D01*
X420116Y393700D02*
X419100Y393700D01*
X420116Y608584D02*
X419100Y609600D01*
X394208Y608584D02*
X394208Y393700D01*
X393700Y393700D01*
X394208Y608584D02*
X393700Y609600D01*
X368300Y609600D02*
X368300Y393700D01*
X343916Y393700D02*
X343916Y608584D01*
X343916Y393700D02*
X342900Y393700D01*
X343916Y608584D02*
X342900Y609600D01*
X318008Y608584D02*
X318008Y393700D01*
X317500Y393700D01*
X318008Y608584D02*
X317500Y609600D01*
X292100Y609600D02*
X292100Y393700D01*
X267716Y393700D02*
X267716Y608584D01*
X267716Y393700D02*
X266700Y393700D01*
X267716Y608584D02*
X266700Y609600D01*
X241808Y595884D02*
X241808Y393700D01*
X241300Y393700D01*
X241808Y595884D02*
X241300Y609600D01*
M02*
