M48
;GenerationSoftware,Autodesk,EAGLE,9.0.0*%
;CreationDate,2018-04-25T19:38:23Z*%
FMAT,2
ICI,OFF
METRIC,TZ,000.000
T1C1.016
%
G90
M71
T1
X24130Y36830
X24130Y39370
X26670Y36830
X26670Y39370
X29210Y36830
X29210Y39370
X31750Y36830
X31750Y39370
X34290Y36830
X34290Y39370
X36830Y36830
X36830Y39370
X39370Y36830
X39370Y39370
X41910Y36830
X41910Y39370
X44450Y36830
X44450Y39370
X46990Y36830
X46990Y39370
X49530Y36830
X49530Y39370
X52070Y36830
X52070Y39370
X54610Y36830
X54610Y39370
X57150Y36830
X57150Y39370
X59690Y36830
X59690Y39370
X62230Y36830
X62230Y39370
X64770Y36830
X64770Y39370
X67310Y36830
X67310Y39370
X69850Y36830
X69850Y39370
X72390Y36830
X72390Y39370
X24130Y15240
X26670Y15240
X29210Y15240
X31750Y15240
X34290Y15240
X36830Y15240
X39370Y15240
X41910Y15240
X44450Y15240
X46990Y15240
X49530Y15240
X52070Y15240
X54610Y15240
X57150Y15240
X59690Y15240
X62230Y15240
X64770Y15240
X67310Y15240
X69850Y15240
X72390Y15240
X24130Y60960
X26670Y60960
X29210Y60960
X31750Y60960
X34290Y60960
X36830Y60960
X39370Y60960
X41910Y60960
X44450Y60960
X46990Y60960
X49530Y60960
X52070Y60960
X54610Y60960
X57150Y60960
X59690Y60960
X62230Y60960
X64770Y60960
X67310Y60960
X69850Y60960
X72390Y60960
M30