G04 EAGLE Gerber X2 export*
%TF.Part,Single*%
%TF.FileFunction,Legend,Top,1*%
%TF.FilePolarity,Positive*%
%TF.GenerationSoftware,Autodesk,EAGLE,9.0.0*%
%TF.CreationDate,2018-04-25T19:38:23Z*%
G75*
%MOMM*%
%FSLAX34Y34*%
%LPD*%
%AMOC8*
5,1,8,0,0,1.08239X$1,22.5*%
G01*
%ADD10C,0.152400*%
%ADD11C,0.127000*%


D10*
X228600Y361950D02*
X234950Y355600D01*
X247650Y355600D01*
X254000Y361950D01*
X260350Y355600D01*
X273050Y355600D01*
X279400Y361950D01*
X285750Y355600D01*
X298450Y355600D01*
X304800Y361950D01*
X311150Y355600D01*
X323850Y355600D01*
X330200Y361950D01*
X336550Y355600D01*
X349250Y355600D01*
X355600Y361950D01*
X361950Y355600D01*
X374650Y355600D01*
X381000Y361950D01*
X228600Y361950D02*
X228600Y400050D01*
X234950Y406400D01*
X247650Y406400D01*
X254000Y400050D01*
X260350Y406400D01*
X273050Y406400D01*
X279400Y400050D01*
X285750Y406400D01*
X298450Y406400D01*
X304800Y400050D01*
X311150Y406400D01*
X323850Y406400D01*
X330200Y400050D01*
X336550Y406400D01*
X349250Y406400D01*
X355600Y400050D01*
X361950Y406400D01*
X374650Y406400D01*
X381000Y400050D01*
X387350Y406400D01*
X400050Y406400D01*
X406400Y400050D01*
X412750Y406400D01*
X425450Y406400D01*
X431800Y400050D01*
X438150Y406400D01*
X450850Y406400D01*
X457200Y400050D01*
X463550Y406400D01*
X476250Y406400D01*
X482600Y400050D01*
X488950Y406400D01*
X501650Y406400D01*
X508000Y400050D01*
X514350Y406400D01*
X527050Y406400D01*
X533400Y400050D01*
X539750Y406400D01*
X552450Y406400D01*
X558800Y400050D01*
X565150Y406400D01*
X577850Y406400D01*
X584200Y400050D01*
X590550Y406400D01*
X603250Y406400D01*
X609600Y400050D01*
X615950Y406400D01*
X628650Y406400D01*
X635000Y400050D01*
X641350Y406400D01*
X654050Y406400D01*
X660400Y400050D01*
X666750Y406400D01*
X679450Y406400D01*
X685800Y400050D01*
X692150Y406400D01*
X704850Y406400D01*
X711200Y400050D01*
X711200Y361950D02*
X704850Y355600D01*
X692150Y355600D01*
X685800Y361950D01*
X679450Y355600D01*
X666750Y355600D01*
X660400Y361950D01*
X654050Y355600D01*
X641350Y355600D01*
X635000Y361950D01*
X628650Y355600D01*
X615950Y355600D01*
X609600Y361950D01*
X603250Y355600D01*
X590550Y355600D01*
X584200Y361950D01*
X577850Y355600D01*
X565150Y355600D01*
X558800Y361950D01*
X552450Y355600D01*
X539750Y355600D01*
X533400Y361950D01*
X527050Y355600D01*
X514350Y355600D01*
X508000Y361950D01*
X501650Y355600D01*
X488950Y355600D01*
X482600Y361950D01*
X476250Y355600D01*
X463550Y355600D01*
X457200Y361950D01*
X450850Y355600D01*
X438150Y355600D01*
X431800Y361950D01*
X425450Y355600D01*
X412750Y355600D01*
X406400Y361950D01*
X400050Y355600D01*
X387350Y355600D01*
X381000Y361950D01*
X254000Y361950D02*
X254000Y400050D01*
X279400Y400050D02*
X279400Y361950D01*
X304800Y361950D02*
X304800Y400050D01*
X330200Y400050D02*
X330200Y361950D01*
X355600Y361950D02*
X355600Y400050D01*
X381000Y400050D02*
X381000Y361950D01*
X406400Y361950D02*
X406400Y400050D01*
X431800Y400050D02*
X431800Y361950D01*
X457200Y361950D02*
X457200Y400050D01*
X482600Y400050D02*
X482600Y361950D01*
X508000Y361950D02*
X508000Y400050D01*
X533400Y400050D02*
X533400Y361950D01*
X558800Y361950D02*
X558800Y400050D01*
X584200Y400050D02*
X584200Y361950D01*
X609600Y361950D02*
X609600Y400050D01*
X635000Y400050D02*
X635000Y361950D01*
X660400Y361950D02*
X660400Y400050D01*
X685800Y400050D02*
X685800Y361950D01*
X711200Y361950D02*
X711200Y400050D01*
X717550Y406400D01*
X730250Y406400D01*
X736600Y400050D01*
X736600Y361950D02*
X730250Y355600D01*
X717550Y355600D01*
X711200Y361950D01*
X736600Y361950D02*
X736600Y400050D01*
D11*
X229235Y413385D02*
X229235Y424815D01*
X233045Y418465D01*
X236855Y424815D01*
X236855Y413385D01*
X242907Y413385D02*
X242907Y424815D01*
X246082Y424815D01*
X246193Y424813D01*
X246303Y424807D01*
X246414Y424798D01*
X246524Y424784D01*
X246633Y424767D01*
X246742Y424746D01*
X246850Y424721D01*
X246957Y424692D01*
X247063Y424660D01*
X247168Y424624D01*
X247271Y424584D01*
X247373Y424541D01*
X247474Y424494D01*
X247573Y424443D01*
X247670Y424390D01*
X247764Y424333D01*
X247857Y424272D01*
X247948Y424209D01*
X248037Y424142D01*
X248123Y424072D01*
X248206Y423999D01*
X248288Y423924D01*
X248366Y423846D01*
X248441Y423764D01*
X248514Y423681D01*
X248584Y423595D01*
X248651Y423506D01*
X248714Y423415D01*
X248775Y423322D01*
X248832Y423227D01*
X248885Y423131D01*
X248936Y423032D01*
X248983Y422931D01*
X249026Y422829D01*
X249066Y422726D01*
X249102Y422621D01*
X249134Y422515D01*
X249163Y422408D01*
X249188Y422300D01*
X249209Y422191D01*
X249226Y422082D01*
X249240Y421972D01*
X249249Y421861D01*
X249255Y421751D01*
X249257Y421640D01*
X249255Y421529D01*
X249249Y421419D01*
X249240Y421308D01*
X249226Y421198D01*
X249209Y421089D01*
X249188Y420980D01*
X249163Y420872D01*
X249134Y420765D01*
X249102Y420659D01*
X249066Y420554D01*
X249026Y420451D01*
X248983Y420349D01*
X248936Y420248D01*
X248885Y420149D01*
X248832Y420052D01*
X248775Y419958D01*
X248714Y419865D01*
X248651Y419774D01*
X248584Y419685D01*
X248514Y419599D01*
X248441Y419516D01*
X248366Y419434D01*
X248288Y419356D01*
X248206Y419281D01*
X248123Y419208D01*
X248037Y419138D01*
X247948Y419071D01*
X247857Y419008D01*
X247764Y418947D01*
X247669Y418890D01*
X247573Y418837D01*
X247474Y418786D01*
X247373Y418739D01*
X247271Y418696D01*
X247168Y418656D01*
X247063Y418620D01*
X246957Y418588D01*
X246850Y418559D01*
X246742Y418534D01*
X246633Y418513D01*
X246524Y418496D01*
X246414Y418482D01*
X246303Y418473D01*
X246193Y418467D01*
X246082Y418465D01*
X242907Y418465D01*
X246717Y418465D02*
X249257Y413385D01*
X254254Y422275D02*
X257429Y424815D01*
X257429Y413385D01*
X254254Y413385D02*
X260604Y413385D01*
D10*
X692150Y165100D02*
X704850Y165100D01*
X711200Y158750D01*
X711200Y146050D01*
X704850Y139700D01*
X666750Y165100D02*
X660400Y158750D01*
X666750Y165100D02*
X679450Y165100D01*
X685800Y158750D01*
X685800Y146050D01*
X679450Y139700D01*
X666750Y139700D01*
X660400Y146050D01*
X685800Y158750D02*
X692150Y165100D01*
X685800Y146050D02*
X692150Y139700D01*
X704850Y139700D01*
X628650Y165100D02*
X615950Y165100D01*
X628650Y165100D02*
X635000Y158750D01*
X635000Y146050D01*
X628650Y139700D01*
X635000Y158750D02*
X641350Y165100D01*
X654050Y165100D01*
X660400Y158750D01*
X660400Y146050D01*
X654050Y139700D01*
X641350Y139700D01*
X635000Y146050D01*
X590550Y165100D02*
X584200Y158750D01*
X590550Y165100D02*
X603250Y165100D01*
X609600Y158750D01*
X609600Y146050D01*
X603250Y139700D01*
X590550Y139700D01*
X584200Y146050D01*
X609600Y158750D02*
X615950Y165100D01*
X609600Y146050D02*
X615950Y139700D01*
X628650Y139700D01*
X552450Y165100D02*
X539750Y165100D01*
X552450Y165100D02*
X558800Y158750D01*
X558800Y146050D01*
X552450Y139700D01*
X558800Y158750D02*
X565150Y165100D01*
X577850Y165100D01*
X584200Y158750D01*
X584200Y146050D01*
X577850Y139700D01*
X565150Y139700D01*
X558800Y146050D01*
X514350Y165100D02*
X508000Y158750D01*
X514350Y165100D02*
X527050Y165100D01*
X533400Y158750D01*
X533400Y146050D01*
X527050Y139700D01*
X514350Y139700D01*
X508000Y146050D01*
X533400Y158750D02*
X539750Y165100D01*
X533400Y146050D02*
X539750Y139700D01*
X552450Y139700D01*
X476250Y165100D02*
X463550Y165100D01*
X476250Y165100D02*
X482600Y158750D01*
X482600Y146050D01*
X476250Y139700D01*
X482600Y158750D02*
X488950Y165100D01*
X501650Y165100D01*
X508000Y158750D01*
X508000Y146050D01*
X501650Y139700D01*
X488950Y139700D01*
X482600Y146050D01*
X438150Y165100D02*
X431800Y158750D01*
X438150Y165100D02*
X450850Y165100D01*
X457200Y158750D01*
X457200Y146050D01*
X450850Y139700D01*
X438150Y139700D01*
X431800Y146050D01*
X457200Y158750D02*
X463550Y165100D01*
X457200Y146050D02*
X463550Y139700D01*
X476250Y139700D01*
X400050Y165100D02*
X387350Y165100D01*
X400050Y165100D02*
X406400Y158750D01*
X406400Y146050D01*
X400050Y139700D01*
X406400Y158750D02*
X412750Y165100D01*
X425450Y165100D01*
X431800Y158750D01*
X431800Y146050D01*
X425450Y139700D01*
X412750Y139700D01*
X406400Y146050D01*
X361950Y165100D02*
X355600Y158750D01*
X361950Y165100D02*
X374650Y165100D01*
X381000Y158750D01*
X381000Y146050D01*
X374650Y139700D01*
X361950Y139700D01*
X355600Y146050D01*
X381000Y158750D02*
X387350Y165100D01*
X381000Y146050D02*
X387350Y139700D01*
X400050Y139700D01*
X323850Y165100D02*
X311150Y165100D01*
X323850Y165100D02*
X330200Y158750D01*
X330200Y146050D01*
X323850Y139700D01*
X330200Y158750D02*
X336550Y165100D01*
X349250Y165100D01*
X355600Y158750D01*
X355600Y146050D01*
X349250Y139700D01*
X336550Y139700D01*
X330200Y146050D01*
X285750Y165100D02*
X279400Y158750D01*
X285750Y165100D02*
X298450Y165100D01*
X304800Y158750D01*
X304800Y146050D01*
X298450Y139700D01*
X285750Y139700D01*
X279400Y146050D01*
X304800Y158750D02*
X311150Y165100D01*
X304800Y146050D02*
X311150Y139700D01*
X323850Y139700D01*
X247650Y165100D02*
X234950Y165100D01*
X247650Y165100D02*
X254000Y158750D01*
X254000Y146050D01*
X247650Y139700D01*
X254000Y158750D02*
X260350Y165100D01*
X273050Y165100D01*
X279400Y158750D01*
X279400Y146050D01*
X273050Y139700D01*
X260350Y139700D01*
X254000Y146050D01*
X228600Y146050D02*
X228600Y158750D01*
X234950Y165100D01*
X228600Y146050D02*
X234950Y139700D01*
X247650Y139700D01*
X717550Y165100D02*
X730250Y165100D01*
X736600Y158750D01*
X736600Y146050D01*
X730250Y139700D01*
X711200Y158750D02*
X717550Y165100D01*
X711200Y146050D02*
X717550Y139700D01*
X730250Y139700D01*
D11*
X228473Y171323D02*
X228473Y182753D01*
X232283Y176403D01*
X236093Y182753D01*
X236093Y171323D01*
X242145Y171323D02*
X242145Y182753D01*
X245320Y182753D01*
X245431Y182751D01*
X245541Y182745D01*
X245652Y182736D01*
X245762Y182722D01*
X245871Y182705D01*
X245980Y182684D01*
X246088Y182659D01*
X246195Y182630D01*
X246301Y182598D01*
X246406Y182562D01*
X246509Y182522D01*
X246611Y182479D01*
X246712Y182432D01*
X246811Y182381D01*
X246908Y182328D01*
X247002Y182271D01*
X247095Y182210D01*
X247186Y182147D01*
X247275Y182080D01*
X247361Y182010D01*
X247444Y181937D01*
X247526Y181862D01*
X247604Y181784D01*
X247679Y181702D01*
X247752Y181619D01*
X247822Y181533D01*
X247889Y181444D01*
X247952Y181353D01*
X248013Y181260D01*
X248070Y181165D01*
X248123Y181069D01*
X248174Y180970D01*
X248221Y180869D01*
X248264Y180767D01*
X248304Y180664D01*
X248340Y180559D01*
X248372Y180453D01*
X248401Y180346D01*
X248426Y180238D01*
X248447Y180129D01*
X248464Y180020D01*
X248478Y179910D01*
X248487Y179799D01*
X248493Y179689D01*
X248495Y179578D01*
X248493Y179467D01*
X248487Y179357D01*
X248478Y179246D01*
X248464Y179136D01*
X248447Y179027D01*
X248426Y178918D01*
X248401Y178810D01*
X248372Y178703D01*
X248340Y178597D01*
X248304Y178492D01*
X248264Y178389D01*
X248221Y178287D01*
X248174Y178186D01*
X248123Y178087D01*
X248070Y177990D01*
X248013Y177896D01*
X247952Y177803D01*
X247889Y177712D01*
X247822Y177623D01*
X247752Y177537D01*
X247679Y177454D01*
X247604Y177372D01*
X247526Y177294D01*
X247444Y177219D01*
X247361Y177146D01*
X247275Y177076D01*
X247186Y177009D01*
X247095Y176946D01*
X247002Y176885D01*
X246907Y176828D01*
X246811Y176775D01*
X246712Y176724D01*
X246611Y176677D01*
X246509Y176634D01*
X246406Y176594D01*
X246301Y176558D01*
X246195Y176526D01*
X246088Y176497D01*
X245980Y176472D01*
X245871Y176451D01*
X245762Y176434D01*
X245652Y176420D01*
X245541Y176411D01*
X245431Y176405D01*
X245320Y176403D01*
X242145Y176403D01*
X245955Y176403D02*
X248495Y171323D01*
X253492Y171323D02*
X256667Y171323D01*
X256778Y171325D01*
X256888Y171331D01*
X256999Y171340D01*
X257109Y171354D01*
X257218Y171371D01*
X257327Y171392D01*
X257435Y171417D01*
X257542Y171446D01*
X257648Y171478D01*
X257753Y171514D01*
X257856Y171554D01*
X257958Y171597D01*
X258059Y171644D01*
X258158Y171695D01*
X258254Y171748D01*
X258349Y171805D01*
X258442Y171866D01*
X258533Y171929D01*
X258622Y171996D01*
X258708Y172066D01*
X258791Y172139D01*
X258873Y172214D01*
X258951Y172292D01*
X259026Y172374D01*
X259099Y172457D01*
X259169Y172543D01*
X259236Y172632D01*
X259299Y172723D01*
X259360Y172816D01*
X259417Y172910D01*
X259470Y173007D01*
X259521Y173106D01*
X259568Y173207D01*
X259611Y173309D01*
X259651Y173412D01*
X259687Y173517D01*
X259719Y173623D01*
X259748Y173730D01*
X259773Y173838D01*
X259794Y173947D01*
X259811Y174056D01*
X259825Y174166D01*
X259834Y174277D01*
X259840Y174387D01*
X259842Y174498D01*
X259840Y174609D01*
X259834Y174719D01*
X259825Y174830D01*
X259811Y174940D01*
X259794Y175049D01*
X259773Y175158D01*
X259748Y175266D01*
X259719Y175373D01*
X259687Y175479D01*
X259651Y175584D01*
X259611Y175687D01*
X259568Y175789D01*
X259521Y175890D01*
X259470Y175989D01*
X259417Y176085D01*
X259360Y176180D01*
X259299Y176273D01*
X259236Y176364D01*
X259169Y176453D01*
X259099Y176539D01*
X259026Y176622D01*
X258951Y176704D01*
X258873Y176782D01*
X258791Y176857D01*
X258708Y176930D01*
X258622Y177000D01*
X258533Y177067D01*
X258442Y177130D01*
X258349Y177191D01*
X258255Y177248D01*
X258158Y177301D01*
X258059Y177352D01*
X257958Y177399D01*
X257856Y177442D01*
X257753Y177482D01*
X257648Y177518D01*
X257542Y177550D01*
X257435Y177579D01*
X257327Y177604D01*
X257218Y177625D01*
X257109Y177642D01*
X256999Y177656D01*
X256888Y177665D01*
X256778Y177671D01*
X256667Y177673D01*
X257302Y182753D02*
X253492Y182753D01*
X257302Y182753D02*
X257402Y182751D01*
X257501Y182745D01*
X257601Y182735D01*
X257699Y182722D01*
X257798Y182704D01*
X257895Y182683D01*
X257991Y182658D01*
X258087Y182629D01*
X258181Y182596D01*
X258274Y182560D01*
X258365Y182520D01*
X258455Y182476D01*
X258543Y182429D01*
X258629Y182379D01*
X258713Y182325D01*
X258795Y182268D01*
X258874Y182208D01*
X258952Y182144D01*
X259026Y182078D01*
X259098Y182009D01*
X259167Y181937D01*
X259233Y181863D01*
X259297Y181785D01*
X259357Y181706D01*
X259414Y181624D01*
X259468Y181540D01*
X259518Y181454D01*
X259565Y181366D01*
X259609Y181276D01*
X259649Y181185D01*
X259685Y181092D01*
X259718Y180998D01*
X259747Y180902D01*
X259772Y180806D01*
X259793Y180709D01*
X259811Y180610D01*
X259824Y180512D01*
X259834Y180412D01*
X259840Y180313D01*
X259842Y180213D01*
X259840Y180113D01*
X259834Y180014D01*
X259824Y179914D01*
X259811Y179816D01*
X259793Y179717D01*
X259772Y179620D01*
X259747Y179524D01*
X259718Y179428D01*
X259685Y179334D01*
X259649Y179241D01*
X259609Y179150D01*
X259565Y179060D01*
X259518Y178972D01*
X259468Y178886D01*
X259414Y178802D01*
X259357Y178720D01*
X259297Y178641D01*
X259233Y178563D01*
X259167Y178489D01*
X259098Y178417D01*
X259026Y178348D01*
X258952Y178282D01*
X258874Y178218D01*
X258795Y178158D01*
X258713Y178101D01*
X258629Y178047D01*
X258543Y177997D01*
X258455Y177950D01*
X258365Y177906D01*
X258274Y177866D01*
X258181Y177830D01*
X258087Y177797D01*
X257991Y177768D01*
X257895Y177743D01*
X257798Y177722D01*
X257699Y177704D01*
X257601Y177691D01*
X257501Y177681D01*
X257402Y177675D01*
X257302Y177673D01*
X254762Y177673D01*
D10*
X692150Y622300D02*
X704850Y622300D01*
X711200Y615950D01*
X711200Y603250D01*
X704850Y596900D01*
X666750Y622300D02*
X660400Y615950D01*
X666750Y622300D02*
X679450Y622300D01*
X685800Y615950D01*
X685800Y603250D01*
X679450Y596900D01*
X666750Y596900D01*
X660400Y603250D01*
X685800Y615950D02*
X692150Y622300D01*
X685800Y603250D02*
X692150Y596900D01*
X704850Y596900D01*
X628650Y622300D02*
X615950Y622300D01*
X628650Y622300D02*
X635000Y615950D01*
X635000Y603250D01*
X628650Y596900D01*
X635000Y615950D02*
X641350Y622300D01*
X654050Y622300D01*
X660400Y615950D01*
X660400Y603250D01*
X654050Y596900D01*
X641350Y596900D01*
X635000Y603250D01*
X590550Y622300D02*
X584200Y615950D01*
X590550Y622300D02*
X603250Y622300D01*
X609600Y615950D01*
X609600Y603250D01*
X603250Y596900D01*
X590550Y596900D01*
X584200Y603250D01*
X609600Y615950D02*
X615950Y622300D01*
X609600Y603250D02*
X615950Y596900D01*
X628650Y596900D01*
X552450Y622300D02*
X539750Y622300D01*
X552450Y622300D02*
X558800Y615950D01*
X558800Y603250D01*
X552450Y596900D01*
X558800Y615950D02*
X565150Y622300D01*
X577850Y622300D01*
X584200Y615950D01*
X584200Y603250D01*
X577850Y596900D01*
X565150Y596900D01*
X558800Y603250D01*
X514350Y622300D02*
X508000Y615950D01*
X514350Y622300D02*
X527050Y622300D01*
X533400Y615950D01*
X533400Y603250D01*
X527050Y596900D01*
X514350Y596900D01*
X508000Y603250D01*
X533400Y615950D02*
X539750Y622300D01*
X533400Y603250D02*
X539750Y596900D01*
X552450Y596900D01*
X476250Y622300D02*
X463550Y622300D01*
X476250Y622300D02*
X482600Y615950D01*
X482600Y603250D01*
X476250Y596900D01*
X482600Y615950D02*
X488950Y622300D01*
X501650Y622300D01*
X508000Y615950D01*
X508000Y603250D01*
X501650Y596900D01*
X488950Y596900D01*
X482600Y603250D01*
X438150Y622300D02*
X431800Y615950D01*
X438150Y622300D02*
X450850Y622300D01*
X457200Y615950D01*
X457200Y603250D01*
X450850Y596900D01*
X438150Y596900D01*
X431800Y603250D01*
X457200Y615950D02*
X463550Y622300D01*
X457200Y603250D02*
X463550Y596900D01*
X476250Y596900D01*
X400050Y622300D02*
X387350Y622300D01*
X400050Y622300D02*
X406400Y615950D01*
X406400Y603250D01*
X400050Y596900D01*
X406400Y615950D02*
X412750Y622300D01*
X425450Y622300D01*
X431800Y615950D01*
X431800Y603250D01*
X425450Y596900D01*
X412750Y596900D01*
X406400Y603250D01*
X361950Y622300D02*
X355600Y615950D01*
X361950Y622300D02*
X374650Y622300D01*
X381000Y615950D01*
X381000Y603250D01*
X374650Y596900D01*
X361950Y596900D01*
X355600Y603250D01*
X381000Y615950D02*
X387350Y622300D01*
X381000Y603250D02*
X387350Y596900D01*
X400050Y596900D01*
X323850Y622300D02*
X311150Y622300D01*
X323850Y622300D02*
X330200Y615950D01*
X330200Y603250D01*
X323850Y596900D01*
X330200Y615950D02*
X336550Y622300D01*
X349250Y622300D01*
X355600Y615950D01*
X355600Y603250D01*
X349250Y596900D01*
X336550Y596900D01*
X330200Y603250D01*
X285750Y622300D02*
X279400Y615950D01*
X285750Y622300D02*
X298450Y622300D01*
X304800Y615950D01*
X304800Y603250D01*
X298450Y596900D01*
X285750Y596900D01*
X279400Y603250D01*
X304800Y615950D02*
X311150Y622300D01*
X304800Y603250D02*
X311150Y596900D01*
X323850Y596900D01*
X247650Y622300D02*
X234950Y622300D01*
X247650Y622300D02*
X254000Y615950D01*
X254000Y603250D01*
X247650Y596900D01*
X254000Y615950D02*
X260350Y622300D01*
X273050Y622300D01*
X279400Y615950D01*
X279400Y603250D01*
X273050Y596900D01*
X260350Y596900D01*
X254000Y603250D01*
X228600Y603250D02*
X228600Y615950D01*
X234950Y622300D01*
X228600Y603250D02*
X234950Y596900D01*
X247650Y596900D01*
X717550Y622300D02*
X730250Y622300D01*
X736600Y615950D01*
X736600Y603250D01*
X730250Y596900D01*
X711200Y615950D02*
X717550Y622300D01*
X711200Y603250D02*
X717550Y596900D01*
X730250Y596900D01*
D11*
X228473Y628523D02*
X228473Y639953D01*
X232283Y633603D01*
X236093Y639953D01*
X236093Y628523D01*
X242145Y628523D02*
X242145Y639953D01*
X245320Y639953D01*
X245431Y639951D01*
X245541Y639945D01*
X245652Y639936D01*
X245762Y639922D01*
X245871Y639905D01*
X245980Y639884D01*
X246088Y639859D01*
X246195Y639830D01*
X246301Y639798D01*
X246406Y639762D01*
X246509Y639722D01*
X246611Y639679D01*
X246712Y639632D01*
X246811Y639581D01*
X246908Y639528D01*
X247002Y639471D01*
X247095Y639410D01*
X247186Y639347D01*
X247275Y639280D01*
X247361Y639210D01*
X247444Y639137D01*
X247526Y639062D01*
X247604Y638984D01*
X247679Y638902D01*
X247752Y638819D01*
X247822Y638733D01*
X247889Y638644D01*
X247952Y638553D01*
X248013Y638460D01*
X248070Y638365D01*
X248123Y638269D01*
X248174Y638170D01*
X248221Y638069D01*
X248264Y637967D01*
X248304Y637864D01*
X248340Y637759D01*
X248372Y637653D01*
X248401Y637546D01*
X248426Y637438D01*
X248447Y637329D01*
X248464Y637220D01*
X248478Y637110D01*
X248487Y636999D01*
X248493Y636889D01*
X248495Y636778D01*
X248493Y636667D01*
X248487Y636557D01*
X248478Y636446D01*
X248464Y636336D01*
X248447Y636227D01*
X248426Y636118D01*
X248401Y636010D01*
X248372Y635903D01*
X248340Y635797D01*
X248304Y635692D01*
X248264Y635589D01*
X248221Y635487D01*
X248174Y635386D01*
X248123Y635287D01*
X248070Y635191D01*
X248013Y635096D01*
X247952Y635003D01*
X247889Y634912D01*
X247822Y634823D01*
X247752Y634737D01*
X247679Y634654D01*
X247604Y634572D01*
X247526Y634494D01*
X247444Y634419D01*
X247361Y634346D01*
X247275Y634276D01*
X247186Y634209D01*
X247095Y634146D01*
X247002Y634085D01*
X246907Y634028D01*
X246811Y633975D01*
X246712Y633924D01*
X246611Y633877D01*
X246509Y633834D01*
X246406Y633794D01*
X246301Y633758D01*
X246195Y633726D01*
X246088Y633697D01*
X245980Y633672D01*
X245871Y633651D01*
X245762Y633634D01*
X245652Y633620D01*
X245541Y633611D01*
X245431Y633605D01*
X245320Y633603D01*
X242145Y633603D01*
X245955Y633603D02*
X248495Y628523D01*
X259842Y637096D02*
X259840Y637200D01*
X259834Y637305D01*
X259825Y637409D01*
X259812Y637512D01*
X259794Y637615D01*
X259774Y637717D01*
X259749Y637819D01*
X259721Y637919D01*
X259689Y638019D01*
X259653Y638117D01*
X259614Y638214D01*
X259572Y638309D01*
X259526Y638403D01*
X259476Y638495D01*
X259424Y638585D01*
X259368Y638673D01*
X259308Y638759D01*
X259246Y638843D01*
X259181Y638924D01*
X259113Y639003D01*
X259041Y639080D01*
X258968Y639153D01*
X258891Y639225D01*
X258812Y639293D01*
X258731Y639358D01*
X258647Y639420D01*
X258561Y639480D01*
X258473Y639536D01*
X258383Y639588D01*
X258291Y639638D01*
X258197Y639684D01*
X258102Y639726D01*
X258005Y639765D01*
X257907Y639801D01*
X257807Y639833D01*
X257707Y639861D01*
X257605Y639886D01*
X257503Y639906D01*
X257400Y639924D01*
X257297Y639937D01*
X257193Y639946D01*
X257088Y639952D01*
X256984Y639954D01*
X256984Y639953D02*
X256866Y639951D01*
X256747Y639945D01*
X256629Y639936D01*
X256512Y639923D01*
X256395Y639905D01*
X256278Y639885D01*
X256162Y639860D01*
X256047Y639832D01*
X255934Y639799D01*
X255821Y639764D01*
X255709Y639724D01*
X255599Y639682D01*
X255490Y639635D01*
X255382Y639585D01*
X255277Y639532D01*
X255173Y639475D01*
X255071Y639415D01*
X254971Y639352D01*
X254873Y639285D01*
X254777Y639216D01*
X254684Y639143D01*
X254593Y639067D01*
X254504Y638989D01*
X254418Y638907D01*
X254335Y638823D01*
X254254Y638737D01*
X254177Y638647D01*
X254102Y638556D01*
X254030Y638462D01*
X253961Y638365D01*
X253896Y638267D01*
X253833Y638166D01*
X253774Y638063D01*
X253718Y637959D01*
X253666Y637853D01*
X253617Y637745D01*
X253572Y637636D01*
X253530Y637525D01*
X253492Y637413D01*
X258890Y634874D02*
X258966Y634949D01*
X259041Y635028D01*
X259112Y635109D01*
X259181Y635193D01*
X259246Y635279D01*
X259308Y635367D01*
X259368Y635457D01*
X259424Y635549D01*
X259477Y635644D01*
X259526Y635740D01*
X259572Y635838D01*
X259615Y635937D01*
X259654Y636038D01*
X259689Y636140D01*
X259721Y636243D01*
X259749Y636347D01*
X259774Y636452D01*
X259795Y636559D01*
X259812Y636665D01*
X259825Y636772D01*
X259834Y636880D01*
X259840Y636988D01*
X259842Y637096D01*
X258889Y634873D02*
X253492Y628523D01*
X259842Y628523D01*
M02*
