G04 EAGLE Gerber X2 export*
%TF.Part,Single*%
%TF.FileFunction,Soldermask,Top,1*%
%TF.FilePolarity,Negative*%
%TF.GenerationSoftware,Autodesk,EAGLE,9.0.0*%
%TF.CreationDate,2018-04-25T19:38:23Z*%
G75*
%MOMM*%
%FSLAX34Y34*%
%LPD*%
%AMOC8*
5,1,8,0,0,1.08239X$1,22.5*%
G01*
%ADD10P,1.979475X8X22.500000*%
%ADD11C,1.828800*%


D10*
X241300Y368300D03*
X241300Y393700D03*
X266700Y368300D03*
X266700Y393700D03*
X292100Y368300D03*
X292100Y393700D03*
X317500Y368300D03*
X317500Y393700D03*
X342900Y368300D03*
X342900Y393700D03*
X368300Y368300D03*
X368300Y393700D03*
X393700Y368300D03*
X393700Y393700D03*
X419100Y368300D03*
X419100Y393700D03*
X444500Y368300D03*
X444500Y393700D03*
X469900Y368300D03*
X469900Y393700D03*
X495300Y368300D03*
X495300Y393700D03*
X520700Y368300D03*
X520700Y393700D03*
X546100Y368300D03*
X546100Y393700D03*
X571500Y368300D03*
X571500Y393700D03*
X596900Y368300D03*
X596900Y393700D03*
X622300Y368300D03*
X622300Y393700D03*
X647700Y368300D03*
X647700Y393700D03*
X673100Y368300D03*
X673100Y393700D03*
X698500Y368300D03*
X698500Y393700D03*
X723900Y368300D03*
X723900Y393700D03*
D11*
X241300Y160528D02*
X241300Y144272D01*
X266700Y144272D02*
X266700Y160528D01*
X292100Y160528D02*
X292100Y144272D01*
X317500Y144272D02*
X317500Y160528D01*
X342900Y160528D02*
X342900Y144272D01*
X368300Y144272D02*
X368300Y160528D01*
X393700Y160528D02*
X393700Y144272D01*
X419100Y144272D02*
X419100Y160528D01*
X444500Y160528D02*
X444500Y144272D01*
X469900Y144272D02*
X469900Y160528D01*
X495300Y160528D02*
X495300Y144272D01*
X520700Y144272D02*
X520700Y160528D01*
X546100Y160528D02*
X546100Y144272D01*
X571500Y144272D02*
X571500Y160528D01*
X596900Y160528D02*
X596900Y144272D01*
X622300Y144272D02*
X622300Y160528D01*
X647700Y160528D02*
X647700Y144272D01*
X673100Y144272D02*
X673100Y160528D01*
X698500Y160528D02*
X698500Y144272D01*
X723900Y144272D02*
X723900Y160528D01*
X241300Y601472D02*
X241300Y617728D01*
X266700Y617728D02*
X266700Y601472D01*
X292100Y601472D02*
X292100Y617728D01*
X317500Y617728D02*
X317500Y601472D01*
X342900Y601472D02*
X342900Y617728D01*
X368300Y617728D02*
X368300Y601472D01*
X393700Y601472D02*
X393700Y617728D01*
X419100Y617728D02*
X419100Y601472D01*
X444500Y601472D02*
X444500Y617728D01*
X469900Y617728D02*
X469900Y601472D01*
X495300Y601472D02*
X495300Y617728D01*
X520700Y617728D02*
X520700Y601472D01*
X546100Y601472D02*
X546100Y617728D01*
X571500Y617728D02*
X571500Y601472D01*
X596900Y601472D02*
X596900Y617728D01*
X622300Y617728D02*
X622300Y601472D01*
X647700Y601472D02*
X647700Y617728D01*
X673100Y617728D02*
X673100Y601472D01*
X698500Y601472D02*
X698500Y617728D01*
X723900Y617728D02*
X723900Y601472D01*
M02*
