0
SECTION
2
HEADER
9
$ANGDIR
70
1
9
$AUNITS
70
0
9
$PROJECTNAME
1
PCB BOARD
9
$TDCREATE
40
2458234.30727647
9
$INSUNITS
70
4
0
ENDSEC
0
SECTION
2
ENTITIES
0
POLYLINE
66
1
8
outline
10
0.0
20
0.0
30
0.0
70
1
0
VERTEX
8
0
10
10.16
20
12.700000000000001
30
0
0
VERTEX
8
0
10
86.36
20
12.700000000000001
30
0
0
VERTEX
8
0
10
86.36
20
63.5
30
0
0
VERTEX
8
0
10
10.16
20
63.5
30
0
0
VERTEX
8
0
10
10.16
20
12.700000000000001
30
0
0
SEQEND
0
POLYLINE
66
1
8
1_copper
10
0.0
20
0.0
30
0.0
70
1
0
VERTEX
8
0
10
24.24940625
20
13.622228125000001
30
0
42
0.3578054101685988
0
VERTEX
8
0
10
24.942800000000002
20
14.38726875
30
0
0
VERTEX
8
0
10
24.942800000000002
20
16.09273125
30
0
42
0.35512672170313436
0
VERTEX
8
0
10
24.257
20
16.8562625
30
0
0
VERTEX
8
0
10
24.257
20
36.0172
30
0
0
VERTEX
8
0
10
24.466671875
20
36.0172
30
0
0
VERTEX
8
0
10
24.942800000000002
20
36.493328125000005
30
0
0
VERTEX
8
0
10
24.942800000000002
20
37.166671875
30
0
0
VERTEX
8
0
10
24.466671875
20
37.6428
30
0
0
VERTEX
8
0
10
23.793328125000002
20
37.6428
30
0
0
VERTEX
8
0
10
23.3172
20
37.166671875
30
0
0
VERTEX
8
0
10
23.3172
20
36.493328125000005
30
0
0
VERTEX
8
0
10
23.793328125000002
20
36.0172
30
0
0
VERTEX
8
0
10
24.1046
20
36.0172
30
0
0
VERTEX
8
0
10
24.1046
20
16.8656
30
0
42
0.3908769079933535
0
VERTEX
8
0
10
23.3172
20
16.09273125
30
0
0
VERTEX
8
0
10
23.3172
20
14.38726875
30
0
0
VERTEX
8
0
10
23.325028125000003
20
14.30779375
30
0
0
VERTEX
8
0
10
23.34060625
20
14.22946875
30
0
0
VERTEX
8
0
10
23.363790625
20
14.153046875000001
30
0
0
VERTEX
8
0
10
23.394350000000003
20
14.079265625000001
30
0
0
VERTEX
8
0
10
23.431996875
20
14.008834375000001
30
0
0
VERTEX
8
0
10
23.476365625
20
13.94243125
30
0
0
VERTEX
8
0
10
23.527028125
20
13.880700000000001
30
0
0
VERTEX
8
0
10
23.5835
20
13.824228125000001
30
0
0
VERTEX
8
0
10
23.645231250000002
20
13.773565625
30
0
0
VERTEX
8
0
10
23.711634375000003
20
13.729196875000001
30
0
0
VERTEX
8
0
10
23.782065625
20
13.691550000000001
30
0
0
VERTEX
8
0
10
23.855846875
20
13.660990625
30
0
0
VERTEX
8
0
10
23.932268750000002
20
13.63780625
30
0
0
VERTEX
8
0
10
24.01059375
20
13.622228125000001
30
0
0
VERTEX
8
0
10
24.09006875
20
13.6144
30
0
0
VERTEX
8
0
10
24.16993125
20
13.6144
30
0
0
SEQEND
0
POLYLINE
66
1
8
16_copper
10
0.0
20
0.0
30
0.0
70
1
0
VERTEX
8
0
10
24.942800000000002
20
36.493328125000005
30
0
0
VERTEX
8
0
10
24.942800000000002
20
37.166671875
30
0
0
VERTEX
8
0
10
24.466671875
20
37.6428
30
0
0
VERTEX
8
0
10
23.793328125000002
20
37.6428
30
0
0
VERTEX
8
0
10
23.3172
20
37.166671875
30
0
0
VERTEX
8
0
10
23.3172
20
36.493328125000005
30
0
0
VERTEX
8
0
10
23.793328125000002
20
36.0172
30
0
0
VERTEX
8
0
10
24.466671875
20
36.0172
30
0
0
SEQEND
0
POLYLINE
66
1
8
16_copper
10
0.0
20
0.0
30
0.0
70
1
0
VERTEX
8
0
10
24.24940625
20
13.622228125000001
30
0
42
0.3578054101685988
0
VERTEX
8
0
10
24.942800000000002
20
14.38726875
30
0
0
VERTEX
8
0
10
24.942800000000002
20
16.09273125
30
0
42
0.9520780393388287
0
VERTEX
8
0
10
23.3172
20
16.09273125
30
0
0
VERTEX
8
0
10
23.3172
20
14.38726875
30
0
0
VERTEX
8
0
10
23.325028125000003
20
14.30779375
30
0
0
VERTEX
8
0
10
23.34060625
20
14.22946875
30
0
0
VERTEX
8
0
10
23.363790625
20
14.153046875000001
30
0
0
VERTEX
8
0
10
23.394350000000003
20
14.079265625000001
30
0
0
VERTEX
8
0
10
23.431996875
20
14.008834375000001
30
0
0
VERTEX
8
0
10
23.476365625
20
13.94243125
30
0
0
VERTEX
8
0
10
23.527028125
20
13.880700000000001
30
0
0
VERTEX
8
0
10
23.5835
20
13.824228125000001
30
0
0
VERTEX
8
0
10
23.645231250000002
20
13.773565625
30
0
0
VERTEX
8
0
10
23.711634375000003
20
13.729196875000001
30
0
0
VERTEX
8
0
10
23.782065625
20
13.691550000000001
30
0
0
VERTEX
8
0
10
23.855846875
20
13.660990625
30
0
0
VERTEX
8
0
10
23.932268750000002
20
13.63780625
30
0
0
VERTEX
8
0
10
24.01059375
20
13.622228125000001
30
0
0
VERTEX
8
0
10
24.09006875
20
13.6144
30
0
0
VERTEX
8
0
10
24.16993125
20
13.6144
30
0
0
SEQEND
0
POLYLINE
66
1
8
1_copper
10
0.0
20
0.0
30
0.0
70
1
0
VERTEX
8
0
10
34.40940625
20
13.622228125000001
30
0
42
0.3578054101685988
0
VERTEX
8
0
10
35.1028
20
14.38726875
30
0
0
VERTEX
8
0
10
35.1028
20
16.09273125
30
0
42
0.33729308151723253
0
VERTEX
8
0
10
34.467800000000004
20
16.846159375
30
0
0
VERTEX
8
0
10
34.467800000000004
20
36.0172
30
0
0
VERTEX
8
0
10
34.626671875
20
36.0172
30
0
0
VERTEX
8
0
10
35.1028
20
36.493328125000005
30
0
0
VERTEX
8
0
10
35.1028
20
37.166671875
30
0
0
VERTEX
8
0
10
34.626671875
20
37.6428
30
0
0
VERTEX
8
0
10
33.953328125
20
37.6428
30
0
0
VERTEX
8
0
10
33.4772
20
37.166671875
30
0
0
VERTEX
8
0
10
33.4772
20
36.493328125000005
30
0
0
VERTEX
8
0
10
33.953328125
20
36.0172
30
0
0
VERTEX
8
0
10
34.315400000000004
20
36.0172
30
0
0
VERTEX
8
0
10
34.315400000000004
20
16.8656
30
0
42
0.4089954052896929
0
VERTEX
8
0
10
33.4772
20
16.09273125
30
0
0
VERTEX
8
0
10
33.4772
20
14.38726875
30
0
0
VERTEX
8
0
10
33.485028125
20
14.30779375
30
0
0
VERTEX
8
0
10
33.500606250000004
20
14.22946875
30
0
0
VERTEX
8
0
10
33.523790625000004
20
14.153046875000001
30
0
0
VERTEX
8
0
10
33.55435
20
14.079265625000001
30
0
0
VERTEX
8
0
10
33.591996875
20
14.008834375000001
30
0
0
VERTEX
8
0
10
33.636365625
20
13.94243125
30
0
0
VERTEX
8
0
10
33.687028125000005
20
13.880700000000001
30
0
0
VERTEX
8
0
10
33.743500000000004
20
13.824228125000001
30
0
0
VERTEX
8
0
10
33.80523125
20
13.773565625
30
0
0
VERTEX
8
0
10
33.871634375
20
13.729196875000001
30
0
0
VERTEX
8
0
10
33.942065625000005
20
13.691550000000001
30
0
0
VERTEX
8
0
10
34.015846875
20
13.660990625
30
0
0
VERTEX
8
0
10
34.09226875
20
13.63780625
30
0
0
VERTEX
8
0
10
34.17059375
20
13.622228125000001
30
0
0
VERTEX
8
0
10
34.250068750000004
20
13.6144
30
0
0
VERTEX
8
0
10
34.32993125
20
13.6144
30
0
0
SEQEND
0
POLYLINE
66
1
8
16_copper
10
0.0
20
0.0
30
0.0
70
1
0
VERTEX
8
0
10
35.1028
20
36.493328125000005
30
0
0
VERTEX
8
0
10
35.1028
20
37.166671875
30
0
0
VERTEX
8
0
10
34.626671875
20
37.6428
30
0
0
VERTEX
8
0
10
33.953328125
20
37.6428
30
0
0
VERTEX
8
0
10
33.4772
20
37.166671875
30
0
0
VERTEX
8
0
10
33.4772
20
36.493328125000005
30
0
0
VERTEX
8
0
10
33.953328125
20
36.0172
30
0
0
VERTEX
8
0
10
34.626671875
20
36.0172
30
0
0
SEQEND
0
POLYLINE
66
1
8
16_copper
10
0.0
20
0.0
30
0.0
70
1
0
VERTEX
8
0
10
34.40940625
20
13.622228125000001
30
0
42
0.3578054101685988
0
VERTEX
8
0
10
35.1028
20
14.38726875
30
0
0
VERTEX
8
0
10
35.1028
20
16.09273125
30
0
42
0.9520780393388287
0
VERTEX
8
0
10
33.4772
20
16.09273125
30
0
0
VERTEX
8
0
10
33.4772
20
14.38726875
30
0
0
VERTEX
8
0
10
33.485028125
20
14.30779375
30
0
0
VERTEX
8
0
10
33.500606250000004
20
14.22946875
30
0
0
VERTEX
8
0
10
33.523790625000004
20
14.153046875000001
30
0
0
VERTEX
8
0
10
33.55435
20
14.079265625000001
30
0
0
VERTEX
8
0
10
33.591996875
20
14.008834375000001
30
0
0
VERTEX
8
0
10
33.636365625
20
13.94243125
30
0
0
VERTEX
8
0
10
33.687028125000005
20
13.880700000000001
30
0
0
VERTEX
8
0
10
33.743500000000004
20
13.824228125000001
30
0
0
VERTEX
8
0
10
33.80523125
20
13.773565625
30
0
0
VERTEX
8
0
10
33.871634375
20
13.729196875000001
30
0
0
VERTEX
8
0
10
33.942065625000005
20
13.691550000000001
30
0
0
VERTEX
8
0
10
34.015846875
20
13.660990625
30
0
0
VERTEX
8
0
10
34.09226875
20
13.63780625
30
0
0
VERTEX
8
0
10
34.17059375
20
13.622228125000001
30
0
0
VERTEX
8
0
10
34.250068750000004
20
13.6144
30
0
0
VERTEX
8
0
10
34.32993125
20
13.6144
30
0
0
SEQEND
0
POLYLINE
66
1
8
1_copper
10
0.0
20
0.0
30
0.0
70
1
0
VERTEX
8
0
10
26.789406250000003
20
13.622228125000001
30
0
42
0.3578054101685988
0
VERTEX
8
0
10
27.4828
20
14.38726875
30
0
0
VERTEX
8
0
10
27.4828
20
16.09273125
30
0
42
0.33729308151723253
0
VERTEX
8
0
10
26.847800000000003
20
16.846159375
30
0
0
VERTEX
8
0
10
26.847800000000003
20
36.0172
30
0
0
VERTEX
8
0
10
27.006671875000002
20
36.0172
30
0
0
VERTEX
8
0
10
27.4828
20
36.493328125000005
30
0
0
VERTEX
8
0
10
27.4828
20
37.166671875
30
0
0
VERTEX
8
0
10
27.006671875000002
20
37.6428
30
0
0
VERTEX
8
0
10
26.333328125
20
37.6428
30
0
0
VERTEX
8
0
10
25.857200000000002
20
37.166671875
30
0
0
VERTEX
8
0
10
25.857200000000002
20
36.493328125000005
30
0
0
VERTEX
8
0
10
26.333328125
20
36.0172
30
0
0
VERTEX
8
0
10
26.695400000000003
20
36.0172
30
0
0
VERTEX
8
0
10
26.695400000000003
20
16.8656
30
0
42
0.4089954052896929
0
VERTEX
8
0
10
25.857200000000002
20
16.09273125
30
0
0
VERTEX
8
0
10
25.857200000000002
20
14.38726875
30
0
0
VERTEX
8
0
10
25.865028125000002
20
14.30779375
30
0
0
VERTEX
8
0
10
25.88060625
20
14.22946875
30
0
0
VERTEX
8
0
10
25.903790625000003
20
14.153046875000001
30
0
0
VERTEX
8
0
10
25.934350000000002
20
14.079265625000001
30
0
0
VERTEX
8
0
10
25.971996875000002
20
14.008834375000001
30
0
0
VERTEX
8
0
10
26.016365625000002
20
13.94243125
30
0
0
VERTEX
8
0
10
26.067028125
20
13.880700000000001
30
0
0
VERTEX
8
0
10
26.1235
20
13.824228125000001
30
0
0
VERTEX
8
0
10
26.18523125
20
13.773565625
30
0
0
VERTEX
8
0
10
26.251634375000002
20
13.729196875000001
30
0
0
VERTEX
8
0
10
26.322065625
20
13.691550000000001
30
0
0
VERTEX
8
0
10
26.395846875
20
13.660990625
30
0
0
VERTEX
8
0
10
26.47226875
20
13.63780625
30
0
0
VERTEX
8
0
10
26.55059375
20
13.622228125000001
30
0
0
VERTEX
8
0
10
26.63006875
20
13.6144
30
0
0
VERTEX
8
0
10
26.70993125
20
13.6144
30
0
0
SEQEND
0
POLYLINE
66
1
8
16_copper
10
0.0
20
0.0
30
0.0
70
1
0
VERTEX
8
0
10
27.4828
20
36.493328125000005
30
0
0
VERTEX
8
0
10
27.4828
20
37.166671875
30
0
0
VERTEX
8
0
10
27.006671875000002
20
37.6428
30
0
0
VERTEX
8
0
10
26.333328125
20
37.6428
30
0
0
VERTEX
8
0
10
25.857200000000002
20
37.166671875
30
0
0
VERTEX
8
0
10
25.857200000000002
20
36.493328125000005
30
0
0
VERTEX
8
0
10
26.333328125
20
36.0172
30
0
0
VERTEX
8
0
10
27.006671875000002
20
36.0172
30
0
0
SEQEND
0
POLYLINE
66
1
8
16_copper
10
0.0
20
0.0
30
0.0
70
1
0
VERTEX
8
0
10
26.789406250000003
20
13.622228125000001
30
0
42
0.3578054101685988
0
VERTEX
8
0
10
27.4828
20
14.38726875
30
0
0
VERTEX
8
0
10
27.4828
20
16.09273125
30
0
42
0.9520780393388287
0
VERTEX
8
0
10
25.857200000000002
20
16.09273125
30
0
0
VERTEX
8
0
10
25.857200000000002
20
14.38726875
30
0
0
VERTEX
8
0
10
25.865028125000002
20
14.30779375
30
0
0
VERTEX
8
0
10
25.88060625
20
14.22946875
30
0
0
VERTEX
8
0
10
25.903790625000003
20
14.153046875000001
30
0
0
VERTEX
8
0
10
25.934350000000002
20
14.079265625000001
30
0
0
VERTEX
8
0
10
25.971996875000002
20
14.008834375000001
30
0
0
VERTEX
8
0
10
26.016365625000002
20
13.94243125
30
0
0
VERTEX
8
0
10
26.067028125
20
13.880700000000001
30
0
0
VERTEX
8
0
10
26.1235
20
13.824228125000001
30
0
0
VERTEX
8
0
10
26.18523125
20
13.773565625
30
0
0
VERTEX
8
0
10
26.251634375000002
20
13.729196875000001
30
0
0
VERTEX
8
0
10
26.322065625
20
13.691550000000001
30
0
0
VERTEX
8
0
10
26.395846875
20
13.660990625
30
0
0
VERTEX
8
0
10
26.47226875
20
13.63780625
30
0
0
VERTEX
8
0
10
26.55059375
20
13.622228125000001
30
0
0
VERTEX
8
0
10
26.63006875
20
13.6144
30
0
0
VERTEX
8
0
10
26.70993125
20
13.6144
30
0
0
SEQEND
0
POLYLINE
66
1
8
1_copper
10
0.0
20
0.0
30
0.0
70
1
0
VERTEX
8
0
10
29.32940625
20
13.622228125000001
30
0
42
0.3578054101685988
0
VERTEX
8
0
10
30.0228
20
14.38726875
30
0
0
VERTEX
8
0
10
30.0228
20
16.09273125
30
0
42
0.3729306397657086
0
VERTEX
8
0
10
29.2862
20
16.862028125000002
30
0
0
VERTEX
8
0
10
29.2862
20
36.0172
30
0
0
VERTEX
8
0
10
29.546671875
20
36.0172
30
0
0
VERTEX
8
0
10
30.0228
20
36.493328125000005
30
0
0
VERTEX
8
0
10
30.0228
20
37.166671875
30
0
0
VERTEX
8
0
10
29.546671875
20
37.6428
30
0
0
VERTEX
8
0
10
28.873328125
20
37.6428
30
0
0
VERTEX
8
0
10
28.3972
20
37.166671875
30
0
0
VERTEX
8
0
10
28.3972
20
36.493328125000005
30
0
0
VERTEX
8
0
10
28.873328125
20
36.0172
30
0
0
VERTEX
8
0
10
29.1338
20
36.0172
30
0
0
VERTEX
8
0
10
29.1338
20
16.862028125000002
30
0
42
0.3729306397657086
0
VERTEX
8
0
10
28.3972
20
16.09273125
30
0
0
VERTEX
8
0
10
28.3972
20
14.38726875
30
0
0
VERTEX
8
0
10
28.405028125
20
14.30779375
30
0
0
VERTEX
8
0
10
28.420606250000002
20
14.22946875
30
0
0
VERTEX
8
0
10
28.443790625000002
20
14.153046875000001
30
0
0
VERTEX
8
0
10
28.47435
20
14.079265625000001
30
0
0
VERTEX
8
0
10
28.511996875
20
14.008834375000001
30
0
0
VERTEX
8
0
10
28.556365625
20
13.94243125
30
0
0
VERTEX
8
0
10
28.607028125000003
20
13.880700000000001
30
0
0
VERTEX
8
0
10
28.663500000000003
20
13.824228125000001
30
0
0
VERTEX
8
0
10
28.72523125
20
13.773565625
30
0
0
VERTEX
8
0
10
28.791634375
20
13.729196875000001
30
0
0
VERTEX
8
0
10
28.862065625
20
13.691550000000001
30
0
0
VERTEX
8
0
10
28.935846875000003
20
13.660990625
30
0
0
VERTEX
8
0
10
29.01226875
20
13.63780625
30
0
0
VERTEX
8
0
10
29.09059375
20
13.622228125000001
30
0
0
VERTEX
8
0
10
29.170068750000002
20
13.6144
30
0
0
VERTEX
8
0
10
29.249931250000003
20
13.6144
30
0
0
SEQEND
0
POLYLINE
66
1
8
16_copper
10
0.0
20
0.0
30
0.0
70
1
0
VERTEX
8
0
10
30.0228
20
36.493328125000005
30
0
0
VERTEX
8
0
10
30.0228
20
37.166671875
30
0
0
VERTEX
8
0
10
29.546671875
20
37.6428
30
0
0
VERTEX
8
0
10
28.873328125
20
37.6428
30
0
0
VERTEX
8
0
10
28.3972
20
37.166671875
30
0
0
VERTEX
8
0
10
28.3972
20
36.493328125000005
30
0
0
VERTEX
8
0
10
28.873328125
20
36.0172
30
0
0
VERTEX
8
0
10
29.546671875
20
36.0172
30
0
0
SEQEND
0
POLYLINE
66
1
8
16_copper
10
0.0
20
0.0
30
0.0
70
1
0
VERTEX
8
0
10
29.32940625
20
13.622228125000001
30
0
42
0.3578054101685988
0
VERTEX
8
0
10
30.0228
20
14.38726875
30
0
0
VERTEX
8
0
10
30.0228
20
16.09273125
30
0
42
0.9520780393388287
0
VERTEX
8
0
10
28.3972
20
16.09273125
30
0
0
VERTEX
8
0
10
28.3972
20
14.38726875
30
0
0
VERTEX
8
0
10
28.405028125
20
14.30779375
30
0
0
VERTEX
8
0
10
28.420606250000002
20
14.22946875
30
0
0
VERTEX
8
0
10
28.443790625000002
20
14.153046875000001
30
0
0
VERTEX
8
0
10
28.47435
20
14.079265625000001
30
0
0
VERTEX
8
0
10
28.511996875
20
14.008834375000001
30
0
0
VERTEX
8
0
10
28.556365625
20
13.94243125
30
0
0
VERTEX
8
0
10
28.607028125000003
20
13.880700000000001
30
0
0
VERTEX
8
0
10
28.663500000000003
20
13.824228125000001
30
0
0
VERTEX
8
0
10
28.72523125
20
13.773565625
30
0
0
VERTEX
8
0
10
28.791634375
20
13.729196875000001
30
0
0
VERTEX
8
0
10
28.862065625
20
13.691550000000001
30
0
0
VERTEX
8
0
10
28.935846875000003
20
13.660990625
30
0
0
VERTEX
8
0
10
29.01226875
20
13.63780625
30
0
0
VERTEX
8
0
10
29.09059375
20
13.622228125000001
30
0
0
VERTEX
8
0
10
29.170068750000002
20
13.6144
30
0
0
VERTEX
8
0
10
29.249931250000003
20
13.6144
30
0
0
SEQEND
0
POLYLINE
66
1
8
1_copper
10
0.0
20
0.0
30
0.0
70
1
0
VERTEX
8
0
10
31.86940625
20
13.622228125000001
30
0
42
0.3578054101685988
0
VERTEX
8
0
10
32.5628
20
14.38726875
30
0
0
VERTEX
8
0
10
32.5628
20
16.09273125
30
0
42
0.35512672170313436
0
VERTEX
8
0
10
31.877000000000002
20
16.8562625
30
0
0
VERTEX
8
0
10
31.877000000000002
20
36.0172
30
0
0
VERTEX
8
0
10
32.086671875
20
36.0172
30
0
0
VERTEX
8
0
10
32.5628
20
36.493328125000005
30
0
0
VERTEX
8
0
10
32.5628
20
37.166671875
30
0
0
VERTEX
8
0
10
32.086671875
20
37.6428
30
0
0
VERTEX
8
0
10
31.413328125000003
20
37.6428
30
0
0
VERTEX
8
0
10
30.9372
20
37.166671875
30
0
0
VERTEX
8
0
10
30.9372
20
36.493328125000005
30
0
0
VERTEX
8
0
10
31.413328125000003
20
36.0172
30
0
0
VERTEX
8
0
10
31.724600000000002
20
36.0172
30
0
0
VERTEX
8
0
10
31.724600000000002
20
16.8656
30
0
42
0.3908769079933535
0
VERTEX
8
0
10
30.9372
20
16.09273125
30
0
0
VERTEX
8
0
10
30.9372
20
14.38726875
30
0
0
VERTEX
8
0
10
30.945028125
20
14.30779375
30
0
0
VERTEX
8
0
10
30.96060625
20
14.22946875
30
0
0
VERTEX
8
0
10
30.983790625
20
14.153046875000001
30
0
0
VERTEX
8
0
10
31.01435
20
14.079265625000001
30
0
0
VERTEX
8
0
10
31.051996875
20
14.008834375000001
30
0
0
VERTEX
8
0
10
31.096365625
20
13.94243125
30
0
0
VERTEX
8
0
10
31.147028125000002
20
13.880700000000001
30
0
0
VERTEX
8
0
10
31.203500000000002
20
13.824228125000001
30
0
0
VERTEX
8
0
10
31.265231250000003
20
13.773565625
30
0
0
VERTEX
8
0
10
31.331634375
20
13.729196875000001
30
0
0
VERTEX
8
0
10
31.402065625000002
20
13.691550000000001
30
0
0
VERTEX
8
0
10
31.475846875000002
20
13.660990625
30
0
0
VERTEX
8
0
10
31.552268750000003
20
13.63780625
30
0
0
VERTEX
8
0
10
31.630593750000003
20
13.622228125000001
30
0
0
VERTEX
8
0
10
31.71006875
20
13.6144
30
0
0
VERTEX
8
0
10
31.789931250000002
20
13.6144
30
0
0
SEQEND
0
POLYLINE
66
1
8
16_copper
10
0.0
20
0.0
30
0.0
70
1
0
VERTEX
8
0
10
32.5628
20
36.493328125000005
30
0
0
VERTEX
8
0
10
32.5628
20
37.166671875
30
0
0
VERTEX
8
0
10
32.086671875
20
37.6428
30
0
0
VERTEX
8
0
10
31.413328125000003
20
37.6428
30
0
0
VERTEX
8
0
10
30.9372
20
37.166671875
30
0
0
VERTEX
8
0
10
30.9372
20
36.493328125000005
30
0
0
VERTEX
8
0
10
31.413328125000003
20
36.0172
30
0
0
VERTEX
8
0
10
32.086671875
20
36.0172
30
0
0
SEQEND
0
POLYLINE
66
1
8
16_copper
10
0.0
20
0.0
30
0.0
70
1
0
VERTEX
8
0
10
31.86940625
20
13.622228125000001
30
0
42
0.3578054101685988
0
VERTEX
8
0
10
32.5628
20
14.38726875
30
0
0
VERTEX
8
0
10
32.5628
20
16.09273125
30
0
42
0.9520780393388287
0
VERTEX
8
0
10
30.9372
20
16.09273125
30
0
0
VERTEX
8
0
10
30.9372
20
14.38726875
30
0
0
VERTEX
8
0
10
30.945028125
20
14.30779375
30
0
0
VERTEX
8
0
10
30.96060625
20
14.22946875
30
0
0
VERTEX
8
0
10
30.983790625
20
14.153046875000001
30
0
0
VERTEX
8
0
10
31.01435
20
14.079265625000001
30
0
0
VERTEX
8
0
10
31.051996875
20
14.008834375000001
30
0
0
VERTEX
8
0
10
31.096365625
20
13.94243125
30
0
0
VERTEX
8
0
10
31.147028125000002
20
13.880700000000001
30
0
0
VERTEX
8
0
10
31.203500000000002
20
13.824228125000001
30
0
0
VERTEX
8
0
10
31.265231250000003
20
13.773565625
30
0
0
VERTEX
8
0
10
31.331634375
20
13.729196875000001
30
0
0
VERTEX
8
0
10
31.402065625000002
20
13.691550000000001
30
0
0
VERTEX
8
0
10
31.475846875000002
20
13.660990625
30
0
0
VERTEX
8
0
10
31.552268750000003
20
13.63780625
30
0
0
VERTEX
8
0
10
31.630593750000003
20
13.622228125000001
30
0
0
VERTEX
8
0
10
31.71006875
20
13.6144
30
0
0
VERTEX
8
0
10
31.789931250000002
20
13.6144
30
0
0
SEQEND
0
POLYLINE
66
1
8
1_copper
10
0.0
20
0.0
30
0.0
70
1
0
VERTEX
8
0
10
36.94940625
20
13.622228125000001
30
0
42
0.3578054101685988
0
VERTEX
8
0
10
37.6428
20
14.38726875
30
0
0
VERTEX
8
0
10
37.6428
20
16.09273125
30
0
42
0.3729306397657086
0
VERTEX
8
0
10
36.9062
20
16.862028125000002
30
0
0
VERTEX
8
0
10
36.9062
20
36.0172
30
0
0
VERTEX
8
0
10
37.166671875
20
36.0172
30
0
0
VERTEX
8
0
10
37.6428
20
36.493328125000005
30
0
0
VERTEX
8
0
10
37.6428
20
37.166671875
30
0
0
VERTEX
8
0
10
37.166671875
20
37.6428
30
0
0
VERTEX
8
0
10
36.493328125000005
20
37.6428
30
0
0
VERTEX
8
0
10
36.0172
20
37.166671875
30
0
0
VERTEX
8
0
10
36.0172
20
36.493328125000005
30
0
0
VERTEX
8
0
10
36.493328125000005
20
36.0172
30
0
0
VERTEX
8
0
10
36.7538
20
36.0172
30
0
0
VERTEX
8
0
10
36.7538
20
16.862028125000002
30
0
42
0.3729306397657086
0
VERTEX
8
0
10
36.0172
20
16.09273125
30
0
0
VERTEX
8
0
10
36.0172
20
14.38726875
30
0
0
VERTEX
8
0
10
36.025028125
20
14.30779375
30
0
0
VERTEX
8
0
10
36.04060625
20
14.22946875
30
0
0
VERTEX
8
0
10
36.063790625
20
14.153046875000001
30
0
0
VERTEX
8
0
10
36.09435
20
14.079265625000001
30
0
0
VERTEX
8
0
10
36.131996875
20
14.008834375000001
30
0
0
VERTEX
8
0
10
36.176365625
20
13.94243125
30
0
0
VERTEX
8
0
10
36.227028125000004
20
13.880700000000001
30
0
0
VERTEX
8
0
10
36.283500000000004
20
13.824228125000001
30
0
0
VERTEX
8
0
10
36.345231250000005
20
13.773565625
30
0
0
VERTEX
8
0
10
36.411634375
20
13.729196875000001
30
0
0
VERTEX
8
0
10
36.482065625000004
20
13.691550000000001
30
0
0
VERTEX
8
0
10
36.555846875
20
13.660990625
30
0
0
VERTEX
8
0
10
36.63226875
20
13.63780625
30
0
0
VERTEX
8
0
10
36.71059375
20
13.622228125000001
30
0
0
VERTEX
8
0
10
36.79006875
20
13.6144
30
0
0
VERTEX
8
0
10
36.86993125
20
13.6144
30
0
0
SEQEND
0
POLYLINE
66
1
8
16_copper
10
0.0
20
0.0
30
0.0
70
1
0
VERTEX
8
0
10
37.6428
20
36.493328125000005
30
0
0
VERTEX
8
0
10
37.6428
20
37.166671875
30
0
0
VERTEX
8
0
10
37.166671875
20
37.6428
30
0
0
VERTEX
8
0
10
36.493328125000005
20
37.6428
30
0
0
VERTEX
8
0
10
36.0172
20
37.166671875
30
0
0
VERTEX
8
0
10
36.0172
20
36.493328125000005
30
0
0
VERTEX
8
0
10
36.493328125000005
20
36.0172
30
0
0
VERTEX
8
0
10
37.166671875
20
36.0172
30
0
0
SEQEND
0
POLYLINE
66
1
8
16_copper
10
0.0
20
0.0
30
0.0
70
1
0
VERTEX
8
0
10
36.94940625
20
13.622228125000001
30
0
42
0.3578054101685988
0
VERTEX
8
0
10
37.6428
20
14.38726875
30
0
0
VERTEX
8
0
10
37.6428
20
16.09273125
30
0
42
0.9520780393388287
0
VERTEX
8
0
10
36.0172
20
16.09273125
30
0
0
VERTEX
8
0
10
36.0172
20
14.38726875
30
0
0
VERTEX
8
0
10
36.025028125
20
14.30779375
30
0
0
VERTEX
8
0
10
36.04060625
20
14.22946875
30
0
0
VERTEX
8
0
10
36.063790625
20
14.153046875000001
30
0
0
VERTEX
8
0
10
36.09435
20
14.079265625000001
30
0
0
VERTEX
8
0
10
36.131996875
20
14.008834375000001
30
0
0
VERTEX
8
0
10
36.176365625
20
13.94243125
30
0
0
VERTEX
8
0
10
36.227028125000004
20
13.880700000000001
30
0
0
VERTEX
8
0
10
36.283500000000004
20
13.824228125000001
30
0
0
VERTEX
8
0
10
36.345231250000005
20
13.773565625
30
0
0
VERTEX
8
0
10
36.411634375
20
13.729196875000001
30
0
0
VERTEX
8
0
10
36.482065625000004
20
13.691550000000001
30
0
0
VERTEX
8
0
10
36.555846875
20
13.660990625
30
0
0
VERTEX
8
0
10
36.63226875
20
13.63780625
30
0
0
VERTEX
8
0
10
36.71059375
20
13.622228125000001
30
0
0
VERTEX
8
0
10
36.79006875
20
13.6144
30
0
0
VERTEX
8
0
10
36.86993125
20
13.6144
30
0
0
SEQEND
0
POLYLINE
66
1
8
1_copper
10
0.0
20
0.0
30
0.0
70
1
0
VERTEX
8
0
10
39.48940625
20
13.622228125000001
30
0
42
0.3578054101685988
0
VERTEX
8
0
10
40.1828
20
14.38726875
30
0
0
VERTEX
8
0
10
40.1828
20
16.09273125
30
0
42
0.35512672170313436
0
VERTEX
8
0
10
39.497
20
16.8562625
30
0
0
VERTEX
8
0
10
39.497
20
36.0172
30
0
0
VERTEX
8
0
10
39.706671875000005
20
36.0172
30
0
0
VERTEX
8
0
10
40.1828
20
36.493328125000005
30
0
0
VERTEX
8
0
10
40.1828
20
37.166671875
30
0
0
VERTEX
8
0
10
39.706671875000005
20
37.6428
30
0
0
VERTEX
8
0
10
39.033328125000004
20
37.6428
30
0
0
VERTEX
8
0
10
38.5572
20
37.166671875
30
0
0
VERTEX
8
0
10
38.5572
20
36.493328125000005
30
0
0
VERTEX
8
0
10
39.033328125000004
20
36.0172
30
0
0
VERTEX
8
0
10
39.3446
20
36.0172
30
0
0
VERTEX
8
0
10
39.3446
20
16.8656
30
0
42
0.3908769079933535
0
VERTEX
8
0
10
38.5572
20
16.09273125
30
0
0
VERTEX
8
0
10
38.5572
20
14.38726875
30
0
0
VERTEX
8
0
10
38.565028125000005
20
14.30779375
30
0
0
VERTEX
8
0
10
38.58060625
20
14.22946875
30
0
0
VERTEX
8
0
10
38.603790625
20
14.153046875000001
30
0
0
VERTEX
8
0
10
38.634350000000005
20
14.079265625000001
30
0
0
VERTEX
8
0
10
38.671996875000005
20
14.008834375000001
30
0
0
VERTEX
8
0
10
38.716365625
20
13.94243125
30
0
0
VERTEX
8
0
10
38.767028125
20
13.880700000000001
30
0
0
VERTEX
8
0
10
38.8235
20
13.824228125000001
30
0
0
VERTEX
8
0
10
38.885231250000004
20
13.773565625
30
0
0
VERTEX
8
0
10
38.951634375000005
20
13.729196875000001
30
0
0
VERTEX
8
0
10
39.022065625
20
13.691550000000001
30
0
0
VERTEX
8
0
10
39.095846875
20
13.660990625
30
0
0
VERTEX
8
0
10
39.17226875
20
13.63780625
30
0
0
VERTEX
8
0
10
39.25059375
20
13.622228125000001
30
0
0
VERTEX
8
0
10
39.33006875
20
13.6144
30
0
0
VERTEX
8
0
10
39.40993125
20
13.6144
30
0
0
SEQEND
0
POLYLINE
66
1
8
16_copper
10
0.0
20
0.0
30
0.0
70
1
0
VERTEX
8
0
10
40.1828
20
36.493328125000005
30
0
0
VERTEX
8
0
10
40.1828
20
37.166671875
30
0
0
VERTEX
8
0
10
39.706671875000005
20
37.6428
30
0
0
VERTEX
8
0
10
39.033328125000004
20
37.6428
30
0
0
VERTEX
8
0
10
38.5572
20
37.166671875
30
0
0
VERTEX
8
0
10
38.5572
20
36.493328125000005
30
0
0
VERTEX
8
0
10
39.033328125000004
20
36.0172
30
0
0
VERTEX
8
0
10
39.706671875000005
20
36.0172
30
0
0
SEQEND
0
POLYLINE
66
1
8
16_copper
10
0.0
20
0.0
30
0.0
70
1
0
VERTEX
8
0
10
39.48940625
20
13.622228125000001
30
0
42
0.3578054101685988
0
VERTEX
8
0
10
40.1828
20
14.38726875
30
0
0
VERTEX
8
0
10
40.1828
20
16.09273125
30
0
42
0.9520780393388287
0
VERTEX
8
0
10
38.5572
20
16.09273125
30
0
0
VERTEX
8
0
10
38.5572
20
14.38726875
30
0
0
VERTEX
8
0
10
38.565028125000005
20
14.30779375
30
0
0
VERTEX
8
0
10
38.58060625
20
14.22946875
30
0
0
VERTEX
8
0
10
38.603790625
20
14.153046875000001
30
0
0
VERTEX
8
0
10
38.634350000000005
20
14.079265625000001
30
0
0
VERTEX
8
0
10
38.671996875000005
20
14.008834375000001
30
0
0
VERTEX
8
0
10
38.716365625
20
13.94243125
30
0
0
VERTEX
8
0
10
38.767028125
20
13.880700000000001
30
0
0
VERTEX
8
0
10
38.8235
20
13.824228125000001
30
0
0
VERTEX
8
0
10
38.885231250000004
20
13.773565625
30
0
0
VERTEX
8
0
10
38.951634375000005
20
13.729196875000001
30
0
0
VERTEX
8
0
10
39.022065625
20
13.691550000000001
30
0
0
VERTEX
8
0
10
39.095846875
20
13.660990625
30
0
0
VERTEX
8
0
10
39.17226875
20
13.63780625
30
0
0
VERTEX
8
0
10
39.25059375
20
13.622228125000001
30
0
0
VERTEX
8
0
10
39.33006875
20
13.6144
30
0
0
VERTEX
8
0
10
39.40993125
20
13.6144
30
0
0
SEQEND
0
POLYLINE
66
1
8
1_copper
10
0.0
20
0.0
30
0.0
70
1
0
VERTEX
8
0
10
42.02940625
20
13.622228125000001
30
0
42
0.3578054101685988
0
VERTEX
8
0
10
42.7228
20
14.38726875
30
0
0
VERTEX
8
0
10
42.7228
20
16.09273125
30
0
42
0.33729308151723253
0
VERTEX
8
0
10
42.0878
20
16.846159375
30
0
0
VERTEX
8
0
10
42.0878
20
36.0172
30
0
0
VERTEX
8
0
10
42.246671875000004
20
36.0172
30
0
0
VERTEX
8
0
10
42.7228
20
36.493328125000005
30
0
0
VERTEX
8
0
10
42.7228
20
37.166671875
30
0
0
VERTEX
8
0
10
42.246671875000004
20
37.6428
30
0
0
VERTEX
8
0
10
41.573328125
20
37.6428
30
0
0
VERTEX
8
0
10
41.0972
20
37.166671875
30
0
0
VERTEX
8
0
10
41.0972
20
36.493328125000005
30
0
0
VERTEX
8
0
10
41.573328125
20
36.0172
30
0
0
VERTEX
8
0
10
41.9354
20
36.0172
30
0
0
VERTEX
8
0
10
41.9354
20
16.8656
30
0
42
0.4089954052896929
0
VERTEX
8
0
10
41.0972
20
16.09273125
30
0
0
VERTEX
8
0
10
41.0972
20
14.38726875
30
0
0
VERTEX
8
0
10
41.105028125000004
20
14.30779375
30
0
0
VERTEX
8
0
10
41.12060625
20
14.22946875
30
0
0
VERTEX
8
0
10
41.143790625
20
14.153046875000001
30
0
0
VERTEX
8
0
10
41.174350000000004
20
14.079265625000001
30
0
0
VERTEX
8
0
10
41.211996875000004
20
14.008834375000001
30
0
0
VERTEX
8
0
10
41.256365625
20
13.94243125
30
0
0
VERTEX
8
0
10
41.307028125
20
13.880700000000001
30
0
0
VERTEX
8
0
10
41.3635
20
13.824228125000001
30
0
0
VERTEX
8
0
10
41.42523125
20
13.773565625
30
0
0
VERTEX
8
0
10
41.491634375000004
20
13.729196875000001
30
0
0
VERTEX
8
0
10
41.562065625
20
13.691550000000001
30
0
0
VERTEX
8
0
10
41.635846875
20
13.660990625
30
0
0
VERTEX
8
0
10
41.71226875
20
13.63780625
30
0
0
VERTEX
8
0
10
41.79059375
20
13.622228125000001
30
0
0
VERTEX
8
0
10
41.87006875
20
13.6144
30
0
0
VERTEX
8
0
10
41.94993125
20
13.6144
30
0
0
SEQEND
0
POLYLINE
66
1
8
16_copper
10
0.0
20
0.0
30
0.0
70
1
0
VERTEX
8
0
10
42.7228
20
36.493328125000005
30
0
0
VERTEX
8
0
10
42.7228
20
37.166671875
30
0
0
VERTEX
8
0
10
42.246671875000004
20
37.6428
30
0
0
VERTEX
8
0
10
41.573328125
20
37.6428
30
0
0
VERTEX
8
0
10
41.0972
20
37.166671875
30
0
0
VERTEX
8
0
10
41.0972
20
36.493328125000005
30
0
0
VERTEX
8
0
10
41.573328125
20
36.0172
30
0
0
VERTEX
8
0
10
42.246671875000004
20
36.0172
30
0
0
SEQEND
0
POLYLINE
66
1
8
16_copper
10
0.0
20
0.0
30
0.0
70
1
0
VERTEX
8
0
10
42.02940625
20
13.622228125000001
30
0
42
0.3578054101685988
0
VERTEX
8
0
10
42.7228
20
14.38726875
30
0
0
VERTEX
8
0
10
42.7228
20
16.09273125
30
0
42
0.9520780393388287
0
VERTEX
8
0
10
41.0972
20
16.09273125
30
0
0
VERTEX
8
0
10
41.0972
20
14.38726875
30
0
0
VERTEX
8
0
10
41.105028125000004
20
14.30779375
30
0
0
VERTEX
8
0
10
41.12060625
20
14.22946875
30
0
0
VERTEX
8
0
10
41.143790625
20
14.153046875000001
30
0
0
VERTEX
8
0
10
41.174350000000004
20
14.079265625000001
30
0
0
VERTEX
8
0
10
41.211996875000004
20
14.008834375000001
30
0
0
VERTEX
8
0
10
41.256365625
20
13.94243125
30
0
0
VERTEX
8
0
10
41.307028125
20
13.880700000000001
30
0
0
VERTEX
8
0
10
41.3635
20
13.824228125000001
30
0
0
VERTEX
8
0
10
41.42523125
20
13.773565625
30
0
0
VERTEX
8
0
10
41.491634375000004
20
13.729196875000001
30
0
0
VERTEX
8
0
10
41.562065625
20
13.691550000000001
30
0
0
VERTEX
8
0
10
41.635846875
20
13.660990625
30
0
0
VERTEX
8
0
10
41.71226875
20
13.63780625
30
0
0
VERTEX
8
0
10
41.79059375
20
13.622228125000001
30
0
0
VERTEX
8
0
10
41.87006875
20
13.6144
30
0
0
VERTEX
8
0
10
41.94993125
20
13.6144
30
0
0
SEQEND
0
POLYLINE
66
1
8
1_copper
10
0.0
20
0.0
30
0.0
70
1
0
VERTEX
8
0
10
44.56940625
20
13.622228125000001
30
0
42
0.3578054101685988
0
VERTEX
8
0
10
45.262800000000006
20
14.38726875
30
0
0
VERTEX
8
0
10
45.262800000000006
20
16.09273125
30
0
42
0.3729306397657086
0
VERTEX
8
0
10
44.5262
20
16.862028125000002
30
0
0
VERTEX
8
0
10
44.5262
20
36.0172
30
0
0
VERTEX
8
0
10
44.786671875
20
36.0172
30
0
0
VERTEX
8
0
10
45.262800000000006
20
36.493328125000005
30
0
0
VERTEX
8
0
10
45.262800000000006
20
37.166671875
30
0
0
VERTEX
8
0
10
44.786671875
20
37.6428
30
0
0
VERTEX
8
0
10
44.113328125
20
37.6428
30
0
0
VERTEX
8
0
10
43.6372
20
37.166671875
30
0
0
VERTEX
8
0
10
43.6372
20
36.493328125000005
30
0
0
VERTEX
8
0
10
44.113328125
20
36.0172
30
0
0
VERTEX
8
0
10
44.3738
20
36.0172
30
0
0
VERTEX
8
0
10
44.3738
20
16.862028125000002
30
0
42
0.3729306397657086
0
VERTEX
8
0
10
43.6372
20
16.09273125
30
0
0
VERTEX
8
0
10
43.6372
20
14.38726875
30
0
0
VERTEX
8
0
10
43.645028125
20
14.30779375
30
0
0
VERTEX
8
0
10
43.66060625
20
14.22946875
30
0
0
VERTEX
8
0
10
43.683790625
20
14.153046875000001
30
0
0
VERTEX
8
0
10
43.71435
20
14.079265625000001
30
0
0
VERTEX
8
0
10
43.751996875
20
14.008834375000001
30
0
0
VERTEX
8
0
10
43.796365625
20
13.94243125
30
0
0
VERTEX
8
0
10
43.847028125
20
13.880700000000001
30
0
0
VERTEX
8
0
10
43.9035
20
13.824228125000001
30
0
0
VERTEX
8
0
10
43.96523125
20
13.773565625
30
0
0
VERTEX
8
0
10
44.031634375
20
13.729196875000001
30
0
0
VERTEX
8
0
10
44.102065625
20
13.691550000000001
30
0
0
VERTEX
8
0
10
44.175846875000005
20
13.660990625
30
0
0
VERTEX
8
0
10
44.25226875
20
13.63780625
30
0
0
VERTEX
8
0
10
44.330593750000006
20
13.622228125000001
30
0
0
VERTEX
8
0
10
44.41006875
20
13.6144
30
0
0
VERTEX
8
0
10
44.489931250000005
20
13.6144
30
0
0
SEQEND
0
POLYLINE
66
1
8
16_copper
10
0.0
20
0.0
30
0.0
70
1
0
VERTEX
8
0
10
45.262800000000006
20
36.493328125000005
30
0
0
VERTEX
8
0
10
45.262800000000006
20
37.166671875
30
0
0
VERTEX
8
0
10
44.786671875
20
37.6428
30
0
0
VERTEX
8
0
10
44.113328125
20
37.6428
30
0
0
VERTEX
8
0
10
43.6372
20
37.166671875
30
0
0
VERTEX
8
0
10
43.6372
20
36.493328125000005
30
0
0
VERTEX
8
0
10
44.113328125
20
36.0172
30
0
0
VERTEX
8
0
10
44.786671875
20
36.0172
30
0
0
SEQEND
0
POLYLINE
66
1
8
16_copper
10
0.0
20
0.0
30
0.0
70
1
0
VERTEX
8
0
10
44.56940625
20
13.622228125000001
30
0
42
0.3578054101685988
0
VERTEX
8
0
10
45.262800000000006
20
14.38726875
30
0
0
VERTEX
8
0
10
45.262800000000006
20
16.09273125
30
0
42
0.9520780393388287
0
VERTEX
8
0
10
43.6372
20
16.09273125
30
0
0
VERTEX
8
0
10
43.6372
20
14.38726875
30
0
0
VERTEX
8
0
10
43.645028125
20
14.30779375
30
0
0
VERTEX
8
0
10
43.66060625
20
14.22946875
30
0
0
VERTEX
8
0
10
43.683790625
20
14.153046875000001
30
0
0
VERTEX
8
0
10
43.71435
20
14.079265625000001
30
0
0
VERTEX
8
0
10
43.751996875
20
14.008834375000001
30
0
0
VERTEX
8
0
10
43.796365625
20
13.94243125
30
0
0
VERTEX
8
0
10
43.847028125
20
13.880700000000001
30
0
0
VERTEX
8
0
10
43.9035
20
13.824228125000001
30
0
0
VERTEX
8
0
10
43.96523125
20
13.773565625
30
0
0
VERTEX
8
0
10
44.031634375
20
13.729196875000001
30
0
0
VERTEX
8
0
10
44.102065625
20
13.691550000000001
30
0
0
VERTEX
8
0
10
44.175846875000005
20
13.660990625
30
0
0
VERTEX
8
0
10
44.25226875
20
13.63780625
30
0
0
VERTEX
8
0
10
44.330593750000006
20
13.622228125000001
30
0
0
VERTEX
8
0
10
44.41006875
20
13.6144
30
0
0
VERTEX
8
0
10
44.489931250000005
20
13.6144
30
0
0
SEQEND
0
POLYLINE
66
1
8
1_copper
10
0.0
20
0.0
30
0.0
70
1
0
VERTEX
8
0
10
47.10940625
20
13.622228125000001
30
0
42
0.3578054101685988
0
VERTEX
8
0
10
47.802800000000005
20
14.38726875
30
0
0
VERTEX
8
0
10
47.802800000000005
20
16.09273125
30
0
42
0.35512672170313436
0
VERTEX
8
0
10
47.117000000000004
20
16.8562625
30
0
0
VERTEX
8
0
10
47.117000000000004
20
36.0172
30
0
0
VERTEX
8
0
10
47.326671875
20
36.0172
30
0
0
VERTEX
8
0
10
47.802800000000005
20
36.493328125000005
30
0
0
VERTEX
8
0
10
47.802800000000005
20
37.166671875
30
0
0
VERTEX
8
0
10
47.326671875
20
37.6428
30
0
0
VERTEX
8
0
10
46.653328125
20
37.6428
30
0
0
VERTEX
8
0
10
46.1772
20
37.166671875
30
0
0
VERTEX
8
0
10
46.1772
20
36.493328125000005
30
0
0
VERTEX
8
0
10
46.653328125
20
36.0172
30
0
0
VERTEX
8
0
10
46.964600000000004
20
36.0172
30
0
0
VERTEX
8
0
10
46.964600000000004
20
16.8656
30
0
42
0.3908769079933535
0
VERTEX
8
0
10
46.1772
20
16.09273125
30
0
0
VERTEX
8
0
10
46.1772
20
14.38726875
30
0
0
VERTEX
8
0
10
46.185028125
20
14.30779375
30
0
0
VERTEX
8
0
10
46.20060625
20
14.22946875
30
0
0
VERTEX
8
0
10
46.223790625
20
14.153046875000001
30
0
0
VERTEX
8
0
10
46.25435
20
14.079265625000001
30
0
0
VERTEX
8
0
10
46.291996875
20
14.008834375000001
30
0
0
VERTEX
8
0
10
46.336365625
20
13.94243125
30
0
0
VERTEX
8
0
10
46.387028125
20
13.880700000000001
30
0
0
VERTEX
8
0
10
46.4435
20
13.824228125000001
30
0
0
VERTEX
8
0
10
46.50523125
20
13.773565625
30
0
0
VERTEX
8
0
10
46.571634375
20
13.729196875000001
30
0
0
VERTEX
8
0
10
46.642065625
20
13.691550000000001
30
0
0
VERTEX
8
0
10
46.715846875000004
20
13.660990625
30
0
0
VERTEX
8
0
10
46.792268750000005
20
13.63780625
30
0
0
VERTEX
8
0
10
46.870593750000005
20
13.622228125000001
30
0
0
VERTEX
8
0
10
46.95006875
20
13.6144
30
0
0
VERTEX
8
0
10
47.029931250000004
20
13.6144
30
0
0
SEQEND
0
POLYLINE
66
1
8
16_copper
10
0.0
20
0.0
30
0.0
70
1
0
VERTEX
8
0
10
47.802800000000005
20
36.493328125000005
30
0
0
VERTEX
8
0
10
47.802800000000005
20
37.166671875
30
0
0
VERTEX
8
0
10
47.326671875
20
37.6428
30
0
0
VERTEX
8
0
10
46.653328125
20
37.6428
30
0
0
VERTEX
8
0
10
46.1772
20
37.166671875
30
0
0
VERTEX
8
0
10
46.1772
20
36.493328125000005
30
0
0
VERTEX
8
0
10
46.653328125
20
36.0172
30
0
0
VERTEX
8
0
10
47.326671875
20
36.0172
30
0
0
SEQEND
0
POLYLINE
66
1
8
16_copper
10
0.0
20
0.0
30
0.0
70
1
0
VERTEX
8
0
10
47.10940625
20
13.622228125000001
30
0
42
0.3578054101685988
0
VERTEX
8
0
10
47.802800000000005
20
14.38726875
30
0
0
VERTEX
8
0
10
47.802800000000005
20
16.09273125
30
0
42
0.9520780393388287
0
VERTEX
8
0
10
46.1772
20
16.09273125
30
0
0
VERTEX
8
0
10
46.1772
20
14.38726875
30
0
0
VERTEX
8
0
10
46.185028125
20
14.30779375
30
0
0
VERTEX
8
0
10
46.20060625
20
14.22946875
30
0
0
VERTEX
8
0
10
46.223790625
20
14.153046875000001
30
0
0
VERTEX
8
0
10
46.25435
20
14.079265625000001
30
0
0
VERTEX
8
0
10
46.291996875
20
14.008834375000001
30
0
0
VERTEX
8
0
10
46.336365625
20
13.94243125
30
0
0
VERTEX
8
0
10
46.387028125
20
13.880700000000001
30
0
0
VERTEX
8
0
10
46.4435
20
13.824228125000001
30
0
0
VERTEX
8
0
10
46.50523125
20
13.773565625
30
0
0
VERTEX
8
0
10
46.571634375
20
13.729196875000001
30
0
0
VERTEX
8
0
10
46.642065625
20
13.691550000000001
30
0
0
VERTEX
8
0
10
46.715846875000004
20
13.660990625
30
0
0
VERTEX
8
0
10
46.792268750000005
20
13.63780625
30
0
0
VERTEX
8
0
10
46.870593750000005
20
13.622228125000001
30
0
0
VERTEX
8
0
10
46.95006875
20
13.6144
30
0
0
VERTEX
8
0
10
47.029931250000004
20
13.6144
30
0
0
SEQEND
0
POLYLINE
66
1
8
1_copper
10
0.0
20
0.0
30
0.0
70
1
0
VERTEX
8
0
10
49.649406250000006
20
13.622228125000001
30
0
42
0.3578054101685988
0
VERTEX
8
0
10
50.342800000000004
20
14.38726875
30
0
0
VERTEX
8
0
10
50.342800000000004
20
16.09273125
30
0
42
0.33729308151723253
0
VERTEX
8
0
10
49.7078
20
16.846159375
30
0
0
VERTEX
8
0
10
49.7078
20
36.0172
30
0
0
VERTEX
8
0
10
49.866671875
20
36.0172
30
0
0
VERTEX
8
0
10
50.342800000000004
20
36.493328125000005
30
0
0
VERTEX
8
0
10
50.342800000000004
20
37.166671875
30
0
0
VERTEX
8
0
10
49.866671875
20
37.6428
30
0
0
VERTEX
8
0
10
49.193328125
20
37.6428
30
0
0
VERTEX
8
0
10
48.717200000000005
20
37.166671875
30
0
0
VERTEX
8
0
10
48.717200000000005
20
36.493328125000005
30
0
0
VERTEX
8
0
10
49.193328125
20
36.0172
30
0
0
VERTEX
8
0
10
49.555400000000006
20
36.0172
30
0
0
VERTEX
8
0
10
49.555400000000006
20
16.8656
30
0
42
0.4089954052896929
0
VERTEX
8
0
10
48.717200000000005
20
16.09273125
30
0
0
VERTEX
8
0
10
48.717200000000005
20
14.38726875
30
0
0
VERTEX
8
0
10
48.725028125
20
14.30779375
30
0
0
VERTEX
8
0
10
48.74060625
20
14.22946875
30
0
0
VERTEX
8
0
10
48.763790625000006
20
14.153046875000001
30
0
0
VERTEX
8
0
10
48.79435
20
14.079265625000001
30
0
0
VERTEX
8
0
10
48.831996875
20
14.008834375000001
30
0
0
VERTEX
8
0
10
48.876365625000005
20
13.94243125
30
0
0
VERTEX
8
0
10
48.927028125
20
13.880700000000001
30
0
0
VERTEX
8
0
10
48.9835
20
13.824228125000001
30
0
0
VERTEX
8
0
10
49.04523125
20
13.773565625
30
0
0
VERTEX
8
0
10
49.111634375
20
13.729196875000001
30
0
0
VERTEX
8
0
10
49.182065625
20
13.691550000000001
30
0
0
VERTEX
8
0
10
49.255846875
20
13.660990625
30
0
0
VERTEX
8
0
10
49.332268750000004
20
13.63780625
30
0
0
VERTEX
8
0
10
49.410593750000004
20
13.622228125000001
30
0
0
VERTEX
8
0
10
49.49006875
20
13.6144
30
0
0
VERTEX
8
0
10
49.56993125
20
13.6144
30
0
0
SEQEND
0
POLYLINE
66
1
8
16_copper
10
0.0
20
0.0
30
0.0
70
1
0
VERTEX
8
0
10
50.342800000000004
20
36.493328125000005
30
0
0
VERTEX
8
0
10
50.342800000000004
20
37.166671875
30
0
0
VERTEX
8
0
10
49.866671875
20
37.6428
30
0
0
VERTEX
8
0
10
49.193328125
20
37.6428
30
0
0
VERTEX
8
0
10
48.717200000000005
20
37.166671875
30
0
0
VERTEX
8
0
10
48.717200000000005
20
36.493328125000005
30
0
0
VERTEX
8
0
10
49.193328125
20
36.0172
30
0
0
VERTEX
8
0
10
49.866671875
20
36.0172
30
0
0
SEQEND
0
POLYLINE
66
1
8
16_copper
10
0.0
20
0.0
30
0.0
70
1
0
VERTEX
8
0
10
49.649406250000006
20
13.622228125000001
30
0
42
0.3578054101685988
0
VERTEX
8
0
10
50.342800000000004
20
14.38726875
30
0
0
VERTEX
8
0
10
50.342800000000004
20
16.09273125
30
0
42
0.9520780393388287
0
VERTEX
8
0
10
48.717200000000005
20
16.09273125
30
0
0
VERTEX
8
0
10
48.717200000000005
20
14.38726875
30
0
0
VERTEX
8
0
10
48.725028125
20
14.30779375
30
0
0
VERTEX
8
0
10
48.74060625
20
14.22946875
30
0
0
VERTEX
8
0
10
48.763790625000006
20
14.153046875000001
30
0
0
VERTEX
8
0
10
48.79435
20
14.079265625000001
30
0
0
VERTEX
8
0
10
48.831996875
20
14.008834375000001
30
0
0
VERTEX
8
0
10
48.876365625000005
20
13.94243125
30
0
0
VERTEX
8
0
10
48.927028125
20
13.880700000000001
30
0
0
VERTEX
8
0
10
48.9835
20
13.824228125000001
30
0
0
VERTEX
8
0
10
49.04523125
20
13.773565625
30
0
0
VERTEX
8
0
10
49.111634375
20
13.729196875000001
30
0
0
VERTEX
8
0
10
49.182065625
20
13.691550000000001
30
0
0
VERTEX
8
0
10
49.255846875
20
13.660990625
30
0
0
VERTEX
8
0
10
49.332268750000004
20
13.63780625
30
0
0
VERTEX
8
0
10
49.410593750000004
20
13.622228125000001
30
0
0
VERTEX
8
0
10
49.49006875
20
13.6144
30
0
0
VERTEX
8
0
10
49.56993125
20
13.6144
30
0
0
SEQEND
0
POLYLINE
66
1
8
1_copper
10
0.0
20
0.0
30
0.0
70
1
0
VERTEX
8
0
10
52.189406250000005
20
13.622228125000001
30
0
42
0.3578054101685988
0
VERTEX
8
0
10
52.8828
20
14.38726875
30
0
0
VERTEX
8
0
10
52.8828
20
16.09273125
30
0
42
0.3729306397657086
0
VERTEX
8
0
10
52.1462
20
16.862028125000002
30
0
0
VERTEX
8
0
10
52.1462
20
36.0172
30
0
0
VERTEX
8
0
10
52.406671875
20
36.0172
30
0
0
VERTEX
8
0
10
52.8828
20
36.493328125000005
30
0
0
VERTEX
8
0
10
52.8828
20
37.166671875
30
0
0
VERTEX
8
0
10
52.406671875
20
37.6428
30
0
0
VERTEX
8
0
10
51.733328125
20
37.6428
30
0
0
VERTEX
8
0
10
51.257200000000005
20
37.166671875
30
0
0
VERTEX
8
0
10
51.257200000000005
20
36.493328125000005
30
0
0
VERTEX
8
0
10
51.733328125
20
36.0172
30
0
0
VERTEX
8
0
10
51.9938
20
36.0172
30
0
0
VERTEX
8
0
10
51.9938
20
16.862028125000002
30
0
42
0.3729306397657086
0
VERTEX
8
0
10
51.257200000000005
20
16.09273125
30
0
0
VERTEX
8
0
10
51.257200000000005
20
14.38726875
30
0
0
VERTEX
8
0
10
51.265028125
20
14.30779375
30
0
0
VERTEX
8
0
10
51.280606250000005
20
14.22946875
30
0
0
VERTEX
8
0
10
51.303790625000005
20
14.153046875000001
30
0
0
VERTEX
8
0
10
51.33435
20
14.079265625000001
30
0
0
VERTEX
8
0
10
51.371996875
20
14.008834375000001
30
0
0
VERTEX
8
0
10
51.416365625000005
20
13.94243125
30
0
0
VERTEX
8
0
10
51.467028125000006
20
13.880700000000001
30
0
0
VERTEX
8
0
10
51.523500000000006
20
13.824228125000001
30
0
0
VERTEX
8
0
10
51.58523125
20
13.773565625
30
0
0
VERTEX
8
0
10
51.651634375
20
13.729196875000001
30
0
0
VERTEX
8
0
10
51.722065625
20
13.691550000000001
30
0
0
VERTEX
8
0
10
51.795846875
20
13.660990625
30
0
0
VERTEX
8
0
10
51.87226875
20
13.63780625
30
0
0
VERTEX
8
0
10
51.95059375
20
13.622228125000001
30
0
0
VERTEX
8
0
10
52.030068750000005
20
13.6144
30
0
0
VERTEX
8
0
10
52.10993125
20
13.6144
30
0
0
SEQEND
0
POLYLINE
66
1
8
16_copper
10
0.0
20
0.0
30
0.0
70
1
0
VERTEX
8
0
10
52.8828
20
36.493328125000005
30
0
0
VERTEX
8
0
10
52.8828
20
37.166671875
30
0
0
VERTEX
8
0
10
52.406671875
20
37.6428
30
0
0
VERTEX
8
0
10
51.733328125
20
37.6428
30
0
0
VERTEX
8
0
10
51.257200000000005
20
37.166671875
30
0
0
VERTEX
8
0
10
51.257200000000005
20
36.493328125000005
30
0
0
VERTEX
8
0
10
51.733328125
20
36.0172
30
0
0
VERTEX
8
0
10
52.406671875
20
36.0172
30
0
0
SEQEND
0
POLYLINE
66
1
8
16_copper
10
0.0
20
0.0
30
0.0
70
1
0
VERTEX
8
0
10
52.189406250000005
20
13.622228125000001
30
0
42
0.3578054101685988
0
VERTEX
8
0
10
52.8828
20
14.38726875
30
0
0
VERTEX
8
0
10
52.8828
20
16.09273125
30
0
42
0.9520780393388287
0
VERTEX
8
0
10
51.257200000000005
20
16.09273125
30
0
0
VERTEX
8
0
10
51.257200000000005
20
14.38726875
30
0
0
VERTEX
8
0
10
51.265028125
20
14.30779375
30
0
0
VERTEX
8
0
10
51.280606250000005
20
14.22946875
30
0
0
VERTEX
8
0
10
51.303790625000005
20
14.153046875000001
30
0
0
VERTEX
8
0
10
51.33435
20
14.079265625000001
30
0
0
VERTEX
8
0
10
51.371996875
20
14.008834375000001
30
0
0
VERTEX
8
0
10
51.416365625000005
20
13.94243125
30
0
0
VERTEX
8
0
10
51.467028125000006
20
13.880700000000001
30
0
0
VERTEX
8
0
10
51.523500000000006
20
13.824228125000001
30
0
0
VERTEX
8
0
10
51.58523125
20
13.773565625
30
0
0
VERTEX
8
0
10
51.651634375
20
13.729196875000001
30
0
0
VERTEX
8
0
10
51.722065625
20
13.691550000000001
30
0
0
VERTEX
8
0
10
51.795846875
20
13.660990625
30
0
0
VERTEX
8
0
10
51.87226875
20
13.63780625
30
0
0
VERTEX
8
0
10
51.95059375
20
13.622228125000001
30
0
0
VERTEX
8
0
10
52.030068750000005
20
13.6144
30
0
0
VERTEX
8
0
10
52.10993125
20
13.6144
30
0
0
SEQEND
0
POLYLINE
66
1
8
1_copper
10
0.0
20
0.0
30
0.0
70
1
0
VERTEX
8
0
10
54.729406250000004
20
13.622228125000001
30
0
42
0.3578054101685988
0
VERTEX
8
0
10
55.4228
20
14.38726875
30
0
0
VERTEX
8
0
10
55.4228
20
16.09273125
30
0
42
0.35512672170313436
0
VERTEX
8
0
10
54.737
20
16.8562625
30
0
0
VERTEX
8
0
10
54.737
20
36.0172
30
0
0
VERTEX
8
0
10
54.946671875
20
36.0172
30
0
0
VERTEX
8
0
10
55.4228
20
36.493328125000005
30
0
0
VERTEX
8
0
10
55.4228
20
37.166671875
30
0
0
VERTEX
8
0
10
54.946671875
20
37.6428
30
0
0
VERTEX
8
0
10
54.273328125000006
20
37.6428
30
0
0
VERTEX
8
0
10
53.797200000000004
20
37.166671875
30
0
0
VERTEX
8
0
10
53.797200000000004
20
36.493328125000005
30
0
0
VERTEX
8
0
10
54.273328125000006
20
36.0172
30
0
0
VERTEX
8
0
10
54.5846
20
36.0172
30
0
0
VERTEX
8
0
10
54.5846
20
16.8656
30
0
42
0.3908769079933535
0
VERTEX
8
0
10
53.797200000000004
20
16.09273125
30
0
0
VERTEX
8
0
10
53.797200000000004
20
14.38726875
30
0
0
VERTEX
8
0
10
53.805028125
20
14.30779375
30
0
0
VERTEX
8
0
10
53.820606250000004
20
14.22946875
30
0
0
VERTEX
8
0
10
53.843790625000004
20
14.153046875000001
30
0
0
VERTEX
8
0
10
53.87435
20
14.079265625000001
30
0
0
VERTEX
8
0
10
53.911996875
20
14.008834375000001
30
0
0
VERTEX
8
0
10
53.956365625000004
20
13.94243125
30
0
0
VERTEX
8
0
10
54.007028125000005
20
13.880700000000001
30
0
0
VERTEX
8
0
10
54.063500000000005
20
13.824228125000001
30
0
0
VERTEX
8
0
10
54.125231250000006
20
13.773565625
30
0
0
VERTEX
8
0
10
54.191634375
20
13.729196875000001
30
0
0
VERTEX
8
0
10
54.262065625000005
20
13.691550000000001
30
0
0
VERTEX
8
0
10
54.335846875
20
13.660990625
30
0
0
VERTEX
8
0
10
54.41226875
20
13.63780625
30
0
0
VERTEX
8
0
10
54.49059375
20
13.622228125000001
30
0
0
VERTEX
8
0
10
54.570068750000004
20
13.6144
30
0
0
VERTEX
8
0
10
54.64993125
20
13.6144
30
0
0
SEQEND
0
POLYLINE
66
1
8
16_copper
10
0.0
20
0.0
30
0.0
70
1
0
VERTEX
8
0
10
55.4228
20
36.493328125000005
30
0
0
VERTEX
8
0
10
55.4228
20
37.166671875
30
0
0
VERTEX
8
0
10
54.946671875
20
37.6428
30
0
0
VERTEX
8
0
10
54.273328125000006
20
37.6428
30
0
0
VERTEX
8
0
10
53.797200000000004
20
37.166671875
30
0
0
VERTEX
8
0
10
53.797200000000004
20
36.493328125000005
30
0
0
VERTEX
8
0
10
54.273328125000006
20
36.0172
30
0
0
VERTEX
8
0
10
54.946671875
20
36.0172
30
0
0
SEQEND
0
POLYLINE
66
1
8
16_copper
10
0.0
20
0.0
30
0.0
70
1
0
VERTEX
8
0
10
54.729406250000004
20
13.622228125000001
30
0
42
0.3578054101685988
0
VERTEX
8
0
10
55.4228
20
14.38726875
30
0
0
VERTEX
8
0
10
55.4228
20
16.09273125
30
0
42
0.9520780393388287
0
VERTEX
8
0
10
53.797200000000004
20
16.09273125
30
0
0
VERTEX
8
0
10
53.797200000000004
20
14.38726875
30
0
0
VERTEX
8
0
10
53.805028125
20
14.30779375
30
0
0
VERTEX
8
0
10
53.820606250000004
20
14.22946875
30
0
0
VERTEX
8
0
10
53.843790625000004
20
14.153046875000001
30
0
0
VERTEX
8
0
10
53.87435
20
14.079265625000001
30
0
0
VERTEX
8
0
10
53.911996875
20
14.008834375000001
30
0
0
VERTEX
8
0
10
53.956365625000004
20
13.94243125
30
0
0
VERTEX
8
0
10
54.007028125000005
20
13.880700000000001
30
0
0
VERTEX
8
0
10
54.063500000000005
20
13.824228125000001
30
0
0
VERTEX
8
0
10
54.125231250000006
20
13.773565625
30
0
0
VERTEX
8
0
10
54.191634375
20
13.729196875000001
30
0
0
VERTEX
8
0
10
54.262065625000005
20
13.691550000000001
30
0
0
VERTEX
8
0
10
54.335846875
20
13.660990625
30
0
0
VERTEX
8
0
10
54.41226875
20
13.63780625
30
0
0
VERTEX
8
0
10
54.49059375
20
13.622228125000001
30
0
0
VERTEX
8
0
10
54.570068750000004
20
13.6144
30
0
0
VERTEX
8
0
10
54.64993125
20
13.6144
30
0
0
SEQEND
0
POLYLINE
66
1
8
1_copper
10
0.0
20
0.0
30
0.0
70
1
0
VERTEX
8
0
10
57.26940625
20
13.622228125000001
30
0
42
0.3578054101685988
0
VERTEX
8
0
10
57.9628
20
14.38726875
30
0
0
VERTEX
8
0
10
57.9628
20
16.09273125
30
0
42
0.33729308151723253
0
VERTEX
8
0
10
57.3278
20
16.846159375
30
0
0
VERTEX
8
0
10
57.3278
20
36.0172
30
0
0
VERTEX
8
0
10
57.486671875000006
20
36.0172
30
0
0
VERTEX
8
0
10
57.9628
20
36.493328125000005
30
0
0
VERTEX
8
0
10
57.9628
20
37.166671875
30
0
0
VERTEX
8
0
10
57.486671875000006
20
37.6428
30
0
0
VERTEX
8
0
10
56.813328125000005
20
37.6428
30
0
0
VERTEX
8
0
10
56.3372
20
37.166671875
30
0
0
VERTEX
8
0
10
56.3372
20
36.493328125000005
30
0
0
VERTEX
8
0
10
56.813328125000005
20
36.0172
30
0
0
VERTEX
8
0
10
57.1754
20
36.0172
30
0
0
VERTEX
8
0
10
57.1754
20
16.8656
30
0
42
0.4089954052896929
0
VERTEX
8
0
10
56.3372
20
16.09273125
30
0
0
VERTEX
8
0
10
56.3372
20
14.38726875
30
0
0
VERTEX
8
0
10
56.345028125000006
20
14.30779375
30
0
0
VERTEX
8
0
10
56.360606250000004
20
14.22946875
30
0
0
VERTEX
8
0
10
56.383790625
20
14.153046875000001
30
0
0
VERTEX
8
0
10
56.414350000000006
20
14.079265625000001
30
0
0
VERTEX
8
0
10
56.451996875000006
20
14.008834375000001
30
0
0
VERTEX
8
0
10
56.496365625
20
13.94243125
30
0
0
VERTEX
8
0
10
56.547028125000004
20
13.880700000000001
30
0
0
VERTEX
8
0
10
56.603500000000004
20
13.824228125000001
30
0
0
VERTEX
8
0
10
56.665231250000005
20
13.773565625
30
0
0
VERTEX
8
0
10
56.731634375000006
20
13.729196875000001
30
0
0
VERTEX
8
0
10
56.802065625000004
20
13.691550000000001
30
0
0
VERTEX
8
0
10
56.875846875
20
13.660990625
30
0
0
VERTEX
8
0
10
56.95226875
20
13.63780625
30
0
0
VERTEX
8
0
10
57.03059375
20
13.622228125000001
30
0
0
VERTEX
8
0
10
57.11006875
20
13.6144
30
0
0
VERTEX
8
0
10
57.18993125
20
13.6144
30
0
0
SEQEND
0
POLYLINE
66
1
8
16_copper
10
0.0
20
0.0
30
0.0
70
1
0
VERTEX
8
0
10
57.9628
20
36.493328125000005
30
0
0
VERTEX
8
0
10
57.9628
20
37.166671875
30
0
0
VERTEX
8
0
10
57.486671875000006
20
37.6428
30
0
0
VERTEX
8
0
10
56.813328125000005
20
37.6428
30
0
0
VERTEX
8
0
10
56.3372
20
37.166671875
30
0
0
VERTEX
8
0
10
56.3372
20
36.493328125000005
30
0
0
VERTEX
8
0
10
56.813328125000005
20
36.0172
30
0
0
VERTEX
8
0
10
57.486671875000006
20
36.0172
30
0
0
SEQEND
0
POLYLINE
66
1
8
16_copper
10
0.0
20
0.0
30
0.0
70
1
0
VERTEX
8
0
10
57.26940625
20
13.622228125000001
30
0
42
0.3578054101685988
0
VERTEX
8
0
10
57.9628
20
14.38726875
30
0
0
VERTEX
8
0
10
57.9628
20
16.09273125
30
0
42
0.9520780393388287
0
VERTEX
8
0
10
56.3372
20
16.09273125
30
0
0
VERTEX
8
0
10
56.3372
20
14.38726875
30
0
0
VERTEX
8
0
10
56.345028125000006
20
14.30779375
30
0
0
VERTEX
8
0
10
56.360606250000004
20
14.22946875
30
0
0
VERTEX
8
0
10
56.383790625
20
14.153046875000001
30
0
0
VERTEX
8
0
10
56.414350000000006
20
14.079265625000001
30
0
0
VERTEX
8
0
10
56.451996875000006
20
14.008834375000001
30
0
0
VERTEX
8
0
10
56.496365625
20
13.94243125
30
0
0
VERTEX
8
0
10
56.547028125000004
20
13.880700000000001
30
0
0
VERTEX
8
0
10
56.603500000000004
20
13.824228125000001
30
0
0
VERTEX
8
0
10
56.665231250000005
20
13.773565625
30
0
0
VERTEX
8
0
10
56.731634375000006
20
13.729196875000001
30
0
0
VERTEX
8
0
10
56.802065625000004
20
13.691550000000001
30
0
0
VERTEX
8
0
10
56.875846875
20
13.660990625
30
0
0
VERTEX
8
0
10
56.95226875
20
13.63780625
30
0
0
VERTEX
8
0
10
57.03059375
20
13.622228125000001
30
0
0
VERTEX
8
0
10
57.11006875
20
13.6144
30
0
0
VERTEX
8
0
10
57.18993125
20
13.6144
30
0
0
SEQEND
0
POLYLINE
66
1
8
1_copper
10
0.0
20
0.0
30
0.0
70
1
0
VERTEX
8
0
10
59.80940625
20
13.622228125000001
30
0
42
0.3578054101685988
0
VERTEX
8
0
10
60.5028
20
14.38726875
30
0
0
VERTEX
8
0
10
60.5028
20
16.09273125
30
0
42
0.3729306397657086
0
VERTEX
8
0
10
59.766200000000005
20
16.862028125000002
30
0
0
VERTEX
8
0
10
59.766200000000005
20
36.0172
30
0
0
VERTEX
8
0
10
60.026671875000005
20
36.0172
30
0
0
VERTEX
8
0
10
60.5028
20
36.493328125000005
30
0
0
VERTEX
8
0
10
60.5028
20
37.166671875
30
0
0
VERTEX
8
0
10
60.026671875000005
20
37.6428
30
0
0
VERTEX
8
0
10
59.353328125000004
20
37.6428
30
0
0
VERTEX
8
0
10
58.8772
20
37.166671875
30
0
0
VERTEX
8
0
10
58.8772
20
36.493328125000005
30
0
0
VERTEX
8
0
10
59.353328125000004
20
36.0172
30
0
0
VERTEX
8
0
10
59.613800000000005
20
36.0172
30
0
0
VERTEX
8
0
10
59.613800000000005
20
16.862028125000002
30
0
42
0.3729306397657086
0
VERTEX
8
0
10
58.8772
20
16.09273125
30
0
0
VERTEX
8
0
10
58.8772
20
14.38726875
30
0
0
VERTEX
8
0
10
58.885028125000005
20
14.30779375
30
0
0
VERTEX
8
0
10
58.90060625
20
14.22946875
30
0
0
VERTEX
8
0
10
58.923790625
20
14.153046875000001
30
0
0
VERTEX
8
0
10
58.954350000000005
20
14.079265625000001
30
0
0
VERTEX
8
0
10
58.991996875000005
20
14.008834375000001
30
0
0
VERTEX
8
0
10
59.036365625
20
13.94243125
30
0
0
VERTEX
8
0
10
59.087028125
20
13.880700000000001
30
0
0
VERTEX
8
0
10
59.1435
20
13.824228125000001
30
0
0
VERTEX
8
0
10
59.205231250000004
20
13.773565625
30
0
0
VERTEX
8
0
10
59.271634375000005
20
13.729196875000001
30
0
0
VERTEX
8
0
10
59.342065625000004
20
13.691550000000001
30
0
0
VERTEX
8
0
10
59.415846875
20
13.660990625
30
0
0
VERTEX
8
0
10
59.49226875
20
13.63780625
30
0
0
VERTEX
8
0
10
59.57059375
20
13.622228125000001
30
0
0
VERTEX
8
0
10
59.65006875
20
13.6144
30
0
0
VERTEX
8
0
10
59.72993125
20
13.6144
30
0
0
SEQEND
0
POLYLINE
66
1
8
16_copper
10
0.0
20
0.0
30
0.0
70
1
0
VERTEX
8
0
10
60.5028
20
36.493328125000005
30
0
0
VERTEX
8
0
10
60.5028
20
37.166671875
30
0
0
VERTEX
8
0
10
60.026671875000005
20
37.6428
30
0
0
VERTEX
8
0
10
59.353328125000004
20
37.6428
30
0
0
VERTEX
8
0
10
58.8772
20
37.166671875
30
0
0
VERTEX
8
0
10
58.8772
20
36.493328125000005
30
0
0
VERTEX
8
0
10
59.353328125000004
20
36.0172
30
0
0
VERTEX
8
0
10
60.026671875000005
20
36.0172
30
0
0
SEQEND
0
POLYLINE
66
1
8
16_copper
10
0.0
20
0.0
30
0.0
70
1
0
VERTEX
8
0
10
59.80940625
20
13.622228125000001
30
0
42
0.3578054101685988
0
VERTEX
8
0
10
60.5028
20
14.38726875
30
0
0
VERTEX
8
0
10
60.5028
20
16.09273125
30
0
42
0.9520780393388287
0
VERTEX
8
0
10
58.8772
20
16.09273125
30
0
0
VERTEX
8
0
10
58.8772
20
14.38726875
30
0
0
VERTEX
8
0
10
58.885028125000005
20
14.30779375
30
0
0
VERTEX
8
0
10
58.90060625
20
14.22946875
30
0
0
VERTEX
8
0
10
58.923790625
20
14.153046875000001
30
0
0
VERTEX
8
0
10
58.954350000000005
20
14.079265625000001
30
0
0
VERTEX
8
0
10
58.991996875000005
20
14.008834375000001
30
0
0
VERTEX
8
0
10
59.036365625
20
13.94243125
30
0
0
VERTEX
8
0
10
59.087028125
20
13.880700000000001
30
0
0
VERTEX
8
0
10
59.1435
20
13.824228125000001
30
0
0
VERTEX
8
0
10
59.205231250000004
20
13.773565625
30
0
0
VERTEX
8
0
10
59.271634375000005
20
13.729196875000001
30
0
0
VERTEX
8
0
10
59.342065625000004
20
13.691550000000001
30
0
0
VERTEX
8
0
10
59.415846875
20
13.660990625
30
0
0
VERTEX
8
0
10
59.49226875
20
13.63780625
30
0
0
VERTEX
8
0
10
59.57059375
20
13.622228125000001
30
0
0
VERTEX
8
0
10
59.65006875
20
13.6144
30
0
0
VERTEX
8
0
10
59.72993125
20
13.6144
30
0
0
SEQEND
0
POLYLINE
66
1
8
1_copper
10
0.0
20
0.0
30
0.0
70
1
0
VERTEX
8
0
10
62.34940625
20
13.622228125000001
30
0
42
0.3578054101685988
0
VERTEX
8
0
10
63.0428
20
14.38726875
30
0
0
VERTEX
8
0
10
63.0428
20
16.09273125
30
0
42
0.35512672170313436
0
VERTEX
8
0
10
62.357000000000006
20
16.8562625
30
0
0
VERTEX
8
0
10
62.357000000000006
20
36.0172
30
0
0
VERTEX
8
0
10
62.566671875000004
20
36.0172
30
0
0
VERTEX
8
0
10
63.0428
20
36.493328125000005
30
0
0
VERTEX
8
0
10
63.0428
20
37.166671875
30
0
0
VERTEX
8
0
10
62.566671875000004
20
37.6428
30
0
0
VERTEX
8
0
10
61.893328125000004
20
37.6428
30
0
0
VERTEX
8
0
10
61.4172
20
37.166671875
30
0
0
VERTEX
8
0
10
61.4172
20
36.493328125000005
30
0
0
VERTEX
8
0
10
61.893328125000004
20
36.0172
30
0
0
VERTEX
8
0
10
62.204600000000006
20
36.0172
30
0
0
VERTEX
8
0
10
62.204600000000006
20
16.8656
30
0
42
0.3908769079933535
0
VERTEX
8
0
10
61.4172
20
16.09273125
30
0
0
VERTEX
8
0
10
61.4172
20
14.38726875
30
0
0
VERTEX
8
0
10
61.425028125000004
20
14.30779375
30
0
0
VERTEX
8
0
10
61.44060625
20
14.22946875
30
0
0
VERTEX
8
0
10
61.463790625
20
14.153046875000001
30
0
0
VERTEX
8
0
10
61.494350000000004
20
14.079265625000001
30
0
0
VERTEX
8
0
10
61.531996875000004
20
14.008834375000001
30
0
0
VERTEX
8
0
10
61.576365625
20
13.94243125
30
0
0
VERTEX
8
0
10
61.627028125
20
13.880700000000001
30
0
0
VERTEX
8
0
10
61.6835
20
13.824228125000001
30
0
0
VERTEX
8
0
10
61.74523125
20
13.773565625
30
0
0
VERTEX
8
0
10
61.811634375000004
20
13.729196875000001
30
0
0
VERTEX
8
0
10
61.882065625
20
13.691550000000001
30
0
0
VERTEX
8
0
10
61.955846875000006
20
13.660990625
30
0
0
VERTEX
8
0
10
62.03226875
20
13.63780625
30
0
0
VERTEX
8
0
10
62.11059375
20
13.622228125000001
30
0
0
VERTEX
8
0
10
62.19006875
20
13.6144
30
0
0
VERTEX
8
0
10
62.269931250000006
20
13.6144
30
0
0
SEQEND
0
POLYLINE
66
1
8
16_copper
10
0.0
20
0.0
30
0.0
70
1
0
VERTEX
8
0
10
63.0428
20
36.493328125000005
30
0
0
VERTEX
8
0
10
63.0428
20
37.166671875
30
0
0
VERTEX
8
0
10
62.566671875000004
20
37.6428
30
0
0
VERTEX
8
0
10
61.893328125000004
20
37.6428
30
0
0
VERTEX
8
0
10
61.4172
20
37.166671875
30
0
0
VERTEX
8
0
10
61.4172
20
36.493328125000005
30
0
0
VERTEX
8
0
10
61.893328125000004
20
36.0172
30
0
0
VERTEX
8
0
10
62.566671875000004
20
36.0172
30
0
0
SEQEND
0
POLYLINE
66
1
8
16_copper
10
0.0
20
0.0
30
0.0
70
1
0
VERTEX
8
0
10
62.34940625
20
13.622228125000001
30
0
42
0.3578054101685988
0
VERTEX
8
0
10
63.0428
20
14.38726875
30
0
0
VERTEX
8
0
10
63.0428
20
16.09273125
30
0
42
0.9520780393388287
0
VERTEX
8
0
10
61.4172
20
16.09273125
30
0
0
VERTEX
8
0
10
61.4172
20
14.38726875
30
0
0
VERTEX
8
0
10
61.425028125000004
20
14.30779375
30
0
0
VERTEX
8
0
10
61.44060625
20
14.22946875
30
0
0
VERTEX
8
0
10
61.463790625
20
14.153046875000001
30
0
0
VERTEX
8
0
10
61.494350000000004
20
14.079265625000001
30
0
0
VERTEX
8
0
10
61.531996875000004
20
14.008834375000001
30
0
0
VERTEX
8
0
10
61.576365625
20
13.94243125
30
0
0
VERTEX
8
0
10
61.627028125
20
13.880700000000001
30
0
0
VERTEX
8
0
10
61.6835
20
13.824228125000001
30
0
0
VERTEX
8
0
10
61.74523125
20
13.773565625
30
0
0
VERTEX
8
0
10
61.811634375000004
20
13.729196875000001
30
0
0
VERTEX
8
0
10
61.882065625
20
13.691550000000001
30
0
0
VERTEX
8
0
10
61.955846875000006
20
13.660990625
30
0
0
VERTEX
8
0
10
62.03226875
20
13.63780625
30
0
0
VERTEX
8
0
10
62.11059375
20
13.622228125000001
30
0
0
VERTEX
8
0
10
62.19006875
20
13.6144
30
0
0
VERTEX
8
0
10
62.269931250000006
20
13.6144
30
0
0
SEQEND
0
POLYLINE
66
1
8
1_copper
10
0.0
20
0.0
30
0.0
70
1
0
VERTEX
8
0
10
64.88940625000001
20
13.622228125000001
30
0
42
0.3578054101685988
0
VERTEX
8
0
10
65.5828
20
14.38726875
30
0
0
VERTEX
8
0
10
65.5828
20
16.09273125
30
0
42
0.33729308151723253
0
VERTEX
8
0
10
64.9478
20
16.846159375
30
0
0
VERTEX
8
0
10
64.9478
20
36.0172
30
0
0
VERTEX
8
0
10
65.106671875
20
36.0172
30
0
0
VERTEX
8
0
10
65.5828
20
36.493328125000005
30
0
0
VERTEX
8
0
10
65.5828
20
37.166671875
30
0
0
VERTEX
8
0
10
65.106671875
20
37.6428
30
0
0
VERTEX
8
0
10
64.433328125
20
37.6428
30
0
0
VERTEX
8
0
10
63.9572
20
37.166671875
30
0
0
VERTEX
8
0
10
63.9572
20
36.493328125000005
30
0
0
VERTEX
8
0
10
64.433328125
20
36.0172
30
0
0
VERTEX
8
0
10
64.7954
20
36.0172
30
0
0
VERTEX
8
0
10
64.7954
20
16.8656
30
0
42
0.4089954052896929
0
VERTEX
8
0
10
63.9572
20
16.09273125
30
0
0
VERTEX
8
0
10
63.9572
20
14.38726875
30
0
0
VERTEX
8
0
10
63.965028125
20
14.30779375
30
0
0
VERTEX
8
0
10
63.98060625
20
14.22946875
30
0
0
VERTEX
8
0
10
64.00379062500001
20
14.153046875000001
30
0
0
VERTEX
8
0
10
64.03435
20
14.079265625000001
30
0
0
VERTEX
8
0
10
64.071996875
20
14.008834375000001
30
0
0
VERTEX
8
0
10
64.116365625
20
13.94243125
30
0
0
VERTEX
8
0
10
64.167028125
20
13.880700000000001
30
0
0
VERTEX
8
0
10
64.2235
20
13.824228125000001
30
0
0
VERTEX
8
0
10
64.28523125000001
20
13.773565625
30
0
0
VERTEX
8
0
10
64.351634375
20
13.729196875000001
30
0
0
VERTEX
8
0
10
64.422065625
20
13.691550000000001
30
0
0
VERTEX
8
0
10
64.495846875
20
13.660990625
30
0
0
VERTEX
8
0
10
64.57226875
20
13.63780625
30
0
0
VERTEX
8
0
10
64.65059375
20
13.622228125000001
30
0
0
VERTEX
8
0
10
64.73006875
20
13.6144
30
0
0
VERTEX
8
0
10
64.80993125
20
13.6144
30
0
0
SEQEND
0
POLYLINE
66
1
8
16_copper
10
0.0
20
0.0
30
0.0
70
1
0
VERTEX
8
0
10
65.5828
20
36.493328125000005
30
0
0
VERTEX
8
0
10
65.5828
20
37.166671875
30
0
0
VERTEX
8
0
10
65.106671875
20
37.6428
30
0
0
VERTEX
8
0
10
64.433328125
20
37.6428
30
0
0
VERTEX
8
0
10
63.9572
20
37.166671875
30
0
0
VERTEX
8
0
10
63.9572
20
36.493328125000005
30
0
0
VERTEX
8
0
10
64.433328125
20
36.0172
30
0
0
VERTEX
8
0
10
65.106671875
20
36.0172
30
0
0
SEQEND
0
POLYLINE
66
1
8
16_copper
10
0.0
20
0.0
30
0.0
70
1
0
VERTEX
8
0
10
64.88940625000001
20
13.622228125000001
30
0
42
0.3578054101685988
0
VERTEX
8
0
10
65.5828
20
14.38726875
30
0
0
VERTEX
8
0
10
65.5828
20
16.09273125
30
0
42
0.9520780393388287
0
VERTEX
8
0
10
63.9572
20
16.09273125
30
0
0
VERTEX
8
0
10
63.9572
20
14.38726875
30
0
0
VERTEX
8
0
10
63.965028125
20
14.30779375
30
0
0
VERTEX
8
0
10
63.98060625
20
14.22946875
30
0
0
VERTEX
8
0
10
64.00379062500001
20
14.153046875000001
30
0
0
VERTEX
8
0
10
64.03435
20
14.079265625000001
30
0
0
VERTEX
8
0
10
64.071996875
20
14.008834375000001
30
0
0
VERTEX
8
0
10
64.116365625
20
13.94243125
30
0
0
VERTEX
8
0
10
64.167028125
20
13.880700000000001
30
0
0
VERTEX
8
0
10
64.2235
20
13.824228125000001
30
0
0
VERTEX
8
0
10
64.28523125000001
20
13.773565625
30
0
0
VERTEX
8
0
10
64.351634375
20
13.729196875000001
30
0
0
VERTEX
8
0
10
64.422065625
20
13.691550000000001
30
0
0
VERTEX
8
0
10
64.495846875
20
13.660990625
30
0
0
VERTEX
8
0
10
64.57226875
20
13.63780625
30
0
0
VERTEX
8
0
10
64.65059375
20
13.622228125000001
30
0
0
VERTEX
8
0
10
64.73006875
20
13.6144
30
0
0
VERTEX
8
0
10
64.80993125
20
13.6144
30
0
0
SEQEND
0
POLYLINE
66
1
8
1_copper
10
0.0
20
0.0
30
0.0
70
1
0
VERTEX
8
0
10
67.42940625
20
13.622228125000001
30
0
42
0.3578054101685988
0
VERTEX
8
0
10
68.1228
20
14.38726875
30
0
0
VERTEX
8
0
10
68.1228
20
16.09273125
30
0
42
0.3729306397657086
0
VERTEX
8
0
10
67.3862
20
16.862028125000002
30
0
0
VERTEX
8
0
10
67.3862
20
36.0172
30
0
0
VERTEX
8
0
10
67.64667187500001
20
36.0172
30
0
0
VERTEX
8
0
10
68.1228
20
36.493328125000005
30
0
0
VERTEX
8
0
10
68.1228
20
37.166671875
30
0
0
VERTEX
8
0
10
67.64667187500001
20
37.6428
30
0
0
VERTEX
8
0
10
66.97332812500001
20
37.6428
30
0
0
VERTEX
8
0
10
66.4972
20
37.166671875
30
0
0
VERTEX
8
0
10
66.4972
20
36.493328125000005
30
0
0
VERTEX
8
0
10
66.97332812500001
20
36.0172
30
0
0
VERTEX
8
0
10
67.2338
20
36.0172
30
0
0
VERTEX
8
0
10
67.2338
20
16.862028125000002
30
0
42
0.3729306397657086
0
VERTEX
8
0
10
66.4972
20
16.09273125
30
0
0
VERTEX
8
0
10
66.4972
20
14.38726875
30
0
0
VERTEX
8
0
10
66.50502812500001
20
14.30779375
30
0
0
VERTEX
8
0
10
66.52060625
20
14.22946875
30
0
0
VERTEX
8
0
10
66.543790625
20
14.153046875000001
30
0
0
VERTEX
8
0
10
66.57435000000001
20
14.079265625000001
30
0
0
VERTEX
8
0
10
66.611996875
20
14.008834375000001
30
0
0
VERTEX
8
0
10
66.656365625
20
13.94243125
30
0
0
VERTEX
8
0
10
66.70702812500001
20
13.880700000000001
30
0
0
VERTEX
8
0
10
66.76350000000001
20
13.824228125000001
30
0
0
VERTEX
8
0
10
66.82523125
20
13.773565625
30
0
0
VERTEX
8
0
10
66.89163437500001
20
13.729196875000001
30
0
0
VERTEX
8
0
10
66.96206562500001
20
13.691550000000001
30
0
0
VERTEX
8
0
10
67.035846875
20
13.660990625
30
0
0
VERTEX
8
0
10
67.11226875
20
13.63780625
30
0
0
VERTEX
8
0
10
67.19059375
20
13.622228125000001
30
0
0
VERTEX
8
0
10
67.27006875000001
20
13.6144
30
0
0
VERTEX
8
0
10
67.34993125
20
13.6144
30
0
0
SEQEND
0
POLYLINE
66
1
8
16_copper
10
0.0
20
0.0
30
0.0
70
1
0
VERTEX
8
0
10
68.1228
20
36.493328125000005
30
0
0
VERTEX
8
0
10
68.1228
20
37.166671875
30
0
0
VERTEX
8
0
10
67.64667187500001
20
37.6428
30
0
0
VERTEX
8
0
10
66.97332812500001
20
37.6428
30
0
0
VERTEX
8
0
10
66.4972
20
37.166671875
30
0
0
VERTEX
8
0
10
66.4972
20
36.493328125000005
30
0
0
VERTEX
8
0
10
66.97332812500001
20
36.0172
30
0
0
VERTEX
8
0
10
67.64667187500001
20
36.0172
30
0
0
SEQEND
0
POLYLINE
66
1
8
16_copper
10
0.0
20
0.0
30
0.0
70
1
0
VERTEX
8
0
10
67.42940625
20
13.622228125000001
30
0
42
0.3578054101685988
0
VERTEX
8
0
10
68.1228
20
14.38726875
30
0
0
VERTEX
8
0
10
68.1228
20
16.09273125
30
0
42
0.9520780393388287
0
VERTEX
8
0
10
66.4972
20
16.09273125
30
0
0
VERTEX
8
0
10
66.4972
20
14.38726875
30
0
0
VERTEX
8
0
10
66.50502812500001
20
14.30779375
30
0
0
VERTEX
8
0
10
66.52060625
20
14.22946875
30
0
0
VERTEX
8
0
10
66.543790625
20
14.153046875000001
30
0
0
VERTEX
8
0
10
66.57435000000001
20
14.079265625000001
30
0
0
VERTEX
8
0
10
66.611996875
20
14.008834375000001
30
0
0
VERTEX
8
0
10
66.656365625
20
13.94243125
30
0
0
VERTEX
8
0
10
66.70702812500001
20
13.880700000000001
30
0
0
VERTEX
8
0
10
66.76350000000001
20
13.824228125000001
30
0
0
VERTEX
8
0
10
66.82523125
20
13.773565625
30
0
0
VERTEX
8
0
10
66.89163437500001
20
13.729196875000001
30
0
0
VERTEX
8
0
10
66.96206562500001
20
13.691550000000001
30
0
0
VERTEX
8
0
10
67.035846875
20
13.660990625
30
0
0
VERTEX
8
0
10
67.11226875
20
13.63780625
30
0
0
VERTEX
8
0
10
67.19059375
20
13.622228125000001
30
0
0
VERTEX
8
0
10
67.27006875000001
20
13.6144
30
0
0
VERTEX
8
0
10
67.34993125
20
13.6144
30
0
0
SEQEND
0
POLYLINE
66
1
8
1_copper
10
0.0
20
0.0
30
0.0
70
1
0
VERTEX
8
0
10
69.96940625
20
13.622228125000001
30
0
42
0.3578054101685988
0
VERTEX
8
0
10
70.6628
20
14.38726875
30
0
0
VERTEX
8
0
10
70.6628
20
16.09273125
30
0
42
0.35512672170313436
0
VERTEX
8
0
10
69.977
20
16.8562625
30
0
0
VERTEX
8
0
10
69.977
20
36.0172
30
0
0
VERTEX
8
0
10
70.186671875
20
36.0172
30
0
0
VERTEX
8
0
10
70.6628
20
36.493328125000005
30
0
0
VERTEX
8
0
10
70.6628
20
37.166671875
30
0
0
VERTEX
8
0
10
70.186671875
20
37.6428
30
0
0
VERTEX
8
0
10
69.513328125
20
37.6428
30
0
0
VERTEX
8
0
10
69.0372
20
37.166671875
30
0
0
VERTEX
8
0
10
69.0372
20
36.493328125000005
30
0
0
VERTEX
8
0
10
69.513328125
20
36.0172
30
0
0
VERTEX
8
0
10
69.8246
20
36.0172
30
0
0
VERTEX
8
0
10
69.8246
20
16.8656
30
0
42
0.3908769079933535
0
VERTEX
8
0
10
69.0372
20
16.09273125
30
0
0
VERTEX
8
0
10
69.0372
20
14.38726875
30
0
0
VERTEX
8
0
10
69.045028125
20
14.30779375
30
0
0
VERTEX
8
0
10
69.06060625
20
14.22946875
30
0
0
VERTEX
8
0
10
69.083790625
20
14.153046875000001
30
0
0
VERTEX
8
0
10
69.11435
20
14.079265625000001
30
0
0
VERTEX
8
0
10
69.15199687500001
20
14.008834375000001
30
0
0
VERTEX
8
0
10
69.196365625
20
13.94243125
30
0
0
VERTEX
8
0
10
69.247028125
20
13.880700000000001
30
0
0
VERTEX
8
0
10
69.3035
20
13.824228125000001
30
0
0
VERTEX
8
0
10
69.36523125000001
20
13.773565625
30
0
0
VERTEX
8
0
10
69.431634375
20
13.729196875000001
30
0
0
VERTEX
8
0
10
69.502065625
20
13.691550000000001
30
0
0
VERTEX
8
0
10
69.575846875
20
13.660990625
30
0
0
VERTEX
8
0
10
69.65226875
20
13.63780625
30
0
0
VERTEX
8
0
10
69.73059375
20
13.622228125000001
30
0
0
VERTEX
8
0
10
69.81006875
20
13.6144
30
0
0
VERTEX
8
0
10
69.88993125
20
13.6144
30
0
0
SEQEND
0
POLYLINE
66
1
8
16_copper
10
0.0
20
0.0
30
0.0
70
1
0
VERTEX
8
0
10
70.6628
20
36.493328125000005
30
0
0
VERTEX
8
0
10
70.6628
20
37.166671875
30
0
0
VERTEX
8
0
10
70.186671875
20
37.6428
30
0
0
VERTEX
8
0
10
69.513328125
20
37.6428
30
0
0
VERTEX
8
0
10
69.0372
20
37.166671875
30
0
0
VERTEX
8
0
10
69.0372
20
36.493328125000005
30
0
0
VERTEX
8
0
10
69.513328125
20
36.0172
30
0
0
VERTEX
8
0
10
70.186671875
20
36.0172
30
0
0
SEQEND
0
POLYLINE
66
1
8
16_copper
10
0.0
20
0.0
30
0.0
70
1
0
VERTEX
8
0
10
69.96940625
20
13.622228125000001
30
0
42
0.3578054101685988
0
VERTEX
8
0
10
70.6628
20
14.38726875
30
0
0
VERTEX
8
0
10
70.6628
20
16.09273125
30
0
42
0.9520780393388287
0
VERTEX
8
0
10
69.0372
20
16.09273125
30
0
0
VERTEX
8
0
10
69.0372
20
14.38726875
30
0
0
VERTEX
8
0
10
69.045028125
20
14.30779375
30
0
0
VERTEX
8
0
10
69.06060625
20
14.22946875
30
0
0
VERTEX
8
0
10
69.083790625
20
14.153046875000001
30
0
0
VERTEX
8
0
10
69.11435
20
14.079265625000001
30
0
0
VERTEX
8
0
10
69.15199687500001
20
14.008834375000001
30
0
0
VERTEX
8
0
10
69.196365625
20
13.94243125
30
0
0
VERTEX
8
0
10
69.247028125
20
13.880700000000001
30
0
0
VERTEX
8
0
10
69.3035
20
13.824228125000001
30
0
0
VERTEX
8
0
10
69.36523125000001
20
13.773565625
30
0
0
VERTEX
8
0
10
69.431634375
20
13.729196875000001
30
0
0
VERTEX
8
0
10
69.502065625
20
13.691550000000001
30
0
0
VERTEX
8
0
10
69.575846875
20
13.660990625
30
0
0
VERTEX
8
0
10
69.65226875
20
13.63780625
30
0
0
VERTEX
8
0
10
69.73059375
20
13.622228125000001
30
0
0
VERTEX
8
0
10
69.81006875
20
13.6144
30
0
0
VERTEX
8
0
10
69.88993125
20
13.6144
30
0
0
SEQEND
0
POLYLINE
66
1
8
1_copper
10
0.0
20
0.0
30
0.0
70
1
0
VERTEX
8
0
10
72.50940625
20
13.622228125000001
30
0
42
0.3578054101685988
0
VERTEX
8
0
10
73.20280000000001
20
14.38726875
30
0
0
VERTEX
8
0
10
73.20280000000001
20
16.09273125
30
0
42
0.33729308151723253
0
VERTEX
8
0
10
72.5678
20
16.846159375
30
0
0
VERTEX
8
0
10
72.5678
20
36.0172
30
0
0
VERTEX
8
0
10
72.72667187500001
20
36.0172
30
0
0
VERTEX
8
0
10
73.20280000000001
20
36.493328125000005
30
0
0
VERTEX
8
0
10
73.20280000000001
20
37.166671875
30
0
0
VERTEX
8
0
10
72.72667187500001
20
37.6428
30
0
0
VERTEX
8
0
10
72.05332812500001
20
37.6428
30
0
0
VERTEX
8
0
10
71.5772
20
37.166671875
30
0
0
VERTEX
8
0
10
71.5772
20
36.493328125000005
30
0
0
VERTEX
8
0
10
72.05332812500001
20
36.0172
30
0
0
VERTEX
8
0
10
72.4154
20
36.0172
30
0
0
VERTEX
8
0
10
72.4154
20
16.8656
30
0
42
0.4089954052896929
0
VERTEX
8
0
10
71.5772
20
16.09273125
30
0
0
VERTEX
8
0
10
71.5772
20
14.38726875
30
0
0
VERTEX
8
0
10
71.58502812500001
20
14.30779375
30
0
0
VERTEX
8
0
10
71.60060625
20
14.22946875
30
0
0
VERTEX
8
0
10
71.623790625
20
14.153046875000001
30
0
0
VERTEX
8
0
10
71.65435000000001
20
14.079265625000001
30
0
0
VERTEX
8
0
10
71.691996875
20
14.008834375000001
30
0
0
VERTEX
8
0
10
71.736365625
20
13.94243125
30
0
0
VERTEX
8
0
10
71.787028125
20
13.880700000000001
30
0
0
VERTEX
8
0
10
71.8435
20
13.824228125000001
30
0
0
VERTEX
8
0
10
71.90523125
20
13.773565625
30
0
0
VERTEX
8
0
10
71.97163437500001
20
13.729196875000001
30
0
0
VERTEX
8
0
10
72.042065625
20
13.691550000000001
30
0
0
VERTEX
8
0
10
72.115846875
20
13.660990625
30
0
0
VERTEX
8
0
10
72.19226875
20
13.63780625
30
0
0
VERTEX
8
0
10
72.27059375
20
13.622228125000001
30
0
0
VERTEX
8
0
10
72.35006875
20
13.6144
30
0
0
VERTEX
8
0
10
72.42993125000001
20
13.6144
30
0
0
SEQEND
0
POLYLINE
66
1
8
16_copper
10
0.0
20
0.0
30
0.0
70
1
0
VERTEX
8
0
10
73.20280000000001
20
36.493328125000005
30
0
0
VERTEX
8
0
10
73.20280000000001
20
37.166671875
30
0
0
VERTEX
8
0
10
72.72667187500001
20
37.6428
30
0
0
VERTEX
8
0
10
72.05332812500001
20
37.6428
30
0
0
VERTEX
8
0
10
71.5772
20
37.166671875
30
0
0
VERTEX
8
0
10
71.5772
20
36.493328125000005
30
0
0
VERTEX
8
0
10
72.05332812500001
20
36.0172
30
0
0
VERTEX
8
0
10
72.72667187500001
20
36.0172
30
0
0
SEQEND
0
POLYLINE
66
1
8
16_copper
10
0.0
20
0.0
30
0.0
70
1
0
VERTEX
8
0
10
72.50940625
20
13.622228125000001
30
0
42
0.3578054101685988
0
VERTEX
8
0
10
73.20280000000001
20
14.38726875
30
0
0
VERTEX
8
0
10
73.20280000000001
20
16.09273125
30
0
42
0.9520780393388287
0
VERTEX
8
0
10
71.5772
20
16.09273125
30
0
0
VERTEX
8
0
10
71.5772
20
14.38726875
30
0
0
VERTEX
8
0
10
71.58502812500001
20
14.30779375
30
0
0
VERTEX
8
0
10
71.60060625
20
14.22946875
30
0
0
VERTEX
8
0
10
71.623790625
20
14.153046875000001
30
0
0
VERTEX
8
0
10
71.65435000000001
20
14.079265625000001
30
0
0
VERTEX
8
0
10
71.691996875
20
14.008834375000001
30
0
0
VERTEX
8
0
10
71.736365625
20
13.94243125
30
0
0
VERTEX
8
0
10
71.787028125
20
13.880700000000001
30
0
0
VERTEX
8
0
10
71.8435
20
13.824228125000001
30
0
0
VERTEX
8
0
10
71.90523125
20
13.773565625
30
0
0
VERTEX
8
0
10
71.97163437500001
20
13.729196875000001
30
0
0
VERTEX
8
0
10
72.042065625
20
13.691550000000001
30
0
0
VERTEX
8
0
10
72.115846875
20
13.660990625
30
0
0
VERTEX
8
0
10
72.19226875
20
13.63780625
30
0
0
VERTEX
8
0
10
72.27059375
20
13.622228125000001
30
0
0
VERTEX
8
0
10
72.35006875
20
13.6144
30
0
0
VERTEX
8
0
10
72.42993125000001
20
13.6144
30
0
0
SEQEND
0
POLYLINE
66
1
8
1_copper
10
0.0
20
0.0
30
0.0
70
1
0
VERTEX
8
0
10
73.20280000000001
20
39.033328125000004
30
0
0
VERTEX
8
0
10
73.20280000000001
20
39.706671875000005
30
0
0
VERTEX
8
0
10
72.72667187500001
20
40.1828
30
0
0
VERTEX
8
0
10
72.5678
20
40.1828
30
0
0
VERTEX
8
0
10
72.5678
20
59.353840625000004
30
0
42
0.33729308151723253
0
VERTEX
8
0
10
73.20280000000001
20
60.10726875
30
0
0
VERTEX
8
0
10
73.20280000000001
20
61.812731250000006
30
0
42
0.9520780393388287
0
VERTEX
8
0
10
71.5772
20
61.812731250000006
30
0
0
VERTEX
8
0
10
71.5772
20
60.10726875
30
0
42
0.4089954052896929
0
VERTEX
8
0
10
72.4154
20
59.3344
30
0
0
VERTEX
8
0
10
72.4154
20
40.1828
30
0
0
VERTEX
8
0
10
72.05332812500001
20
40.1828
30
0
0
VERTEX
8
0
10
71.5772
20
39.706671875000005
30
0
0
VERTEX
8
0
10
71.5772
20
39.033328125000004
30
0
0
VERTEX
8
0
10
72.05332812500001
20
38.5572
30
0
0
VERTEX
8
0
10
72.72667187500001
20
38.5572
30
0
0
SEQEND
0
POLYLINE
66
1
8
16_copper
10
0.0
20
0.0
30
0.0
70
1
0
VERTEX
8
0
10
72.50940625
20
59.342228125000005
30
0
42
0.3578054101685988
0
VERTEX
8
0
10
73.20280000000001
20
60.10726875
30
0
0
VERTEX
8
0
10
73.20280000000001
20
61.812731250000006
30
0
42
0.9520780393388287
0
VERTEX
8
0
10
71.5772
20
61.812731250000006
30
0
0
VERTEX
8
0
10
71.5772
20
60.10726875
30
0
0
VERTEX
8
0
10
71.58502812500001
20
60.02779375
30
0
0
VERTEX
8
0
10
71.60060625
20
59.94946875
30
0
0
VERTEX
8
0
10
71.623790625
20
59.873046875
30
0
0
VERTEX
8
0
10
71.65435000000001
20
59.799265625000004
30
0
0
VERTEX
8
0
10
71.691996875
20
59.728834375000005
30
0
0
VERTEX
8
0
10
71.736365625
20
59.662431250000004
30
0
0
VERTEX
8
0
10
71.787028125
20
59.6007
30
0
0
VERTEX
8
0
10
71.8435
20
59.544228125000004
30
0
0
VERTEX
8
0
10
71.90523125
20
59.493565625
30
0
0
VERTEX
8
0
10
71.97163437500001
20
59.449196875000005
30
0
0
VERTEX
8
0
10
72.042065625
20
59.411550000000005
30
0
0
VERTEX
8
0
10
72.115846875
20
59.380990625
30
0
0
VERTEX
8
0
10
72.19226875
20
59.35780625
30
0
0
VERTEX
8
0
10
72.27059375
20
59.342228125000005
30
0
0
VERTEX
8
0
10
72.35006875
20
59.3344
30
0
0
VERTEX
8
0
10
72.42993125000001
20
59.3344
30
0
0
SEQEND
0
POLYLINE
66
1
8
16_copper
10
0.0
20
0.0
30
0.0
70
1
0
VERTEX
8
0
10
73.20280000000001
20
39.033328125000004
30
0
0
VERTEX
8
0
10
73.20280000000001
20
39.706671875000005
30
0
0
VERTEX
8
0
10
72.72667187500001
20
40.1828
30
0
0
VERTEX
8
0
10
72.05332812500001
20
40.1828
30
0
0
VERTEX
8
0
10
71.5772
20
39.706671875000005
30
0
0
VERTEX
8
0
10
71.5772
20
39.033328125000004
30
0
0
VERTEX
8
0
10
72.05332812500001
20
38.5572
30
0
0
VERTEX
8
0
10
72.72667187500001
20
38.5572
30
0
0
SEQEND
0
POLYLINE
66
1
8
1_copper
10
0.0
20
0.0
30
0.0
70
1
0
VERTEX
8
0
10
70.6628
20
39.033328125000004
30
0
0
VERTEX
8
0
10
70.6628
20
39.706671875000005
30
0
0
VERTEX
8
0
10
70.186671875
20
40.1828
30
0
0
VERTEX
8
0
10
69.977
20
40.1828
30
0
0
VERTEX
8
0
10
69.977
20
59.3437375
30
0
42
0.35512672170313436
0
VERTEX
8
0
10
70.6628
20
60.10726875
30
0
0
VERTEX
8
0
10
70.6628
20
61.812731250000006
30
0
42
0.9520780393388287
0
VERTEX
8
0
10
69.0372
20
61.812731250000006
30
0
0
VERTEX
8
0
10
69.0372
20
60.10726875
30
0
42
0.3908769079933535
0
VERTEX
8
0
10
69.8246
20
59.3344
30
0
0
VERTEX
8
0
10
69.8246
20
40.1828
30
0
0
VERTEX
8
0
10
69.513328125
20
40.1828
30
0
0
VERTEX
8
0
10
69.0372
20
39.706671875000005
30
0
0
VERTEX
8
0
10
69.0372
20
39.033328125000004
30
0
0
VERTEX
8
0
10
69.513328125
20
38.5572
30
0
0
VERTEX
8
0
10
70.186671875
20
38.5572
30
0
0
SEQEND
0
POLYLINE
66
1
8
16_copper
10
0.0
20
0.0
30
0.0
70
1
0
VERTEX
8
0
10
69.96940625
20
59.342228125000005
30
0
42
0.3578054101685988
0
VERTEX
8
0
10
70.6628
20
60.10726875
30
0
0
VERTEX
8
0
10
70.6628
20
61.812731250000006
30
0
42
0.9520780393388287
0
VERTEX
8
0
10
69.0372
20
61.812731250000006
30
0
0
VERTEX
8
0
10
69.0372
20
60.10726875
30
0
0
VERTEX
8
0
10
69.045028125
20
60.02779375
30
0
0
VERTEX
8
0
10
69.06060625
20
59.94946875
30
0
0
VERTEX
8
0
10
69.083790625
20
59.873046875
30
0
0
VERTEX
8
0
10
69.11435
20
59.799265625000004
30
0
0
VERTEX
8
0
10
69.15199687500001
20
59.728834375000005
30
0
0
VERTEX
8
0
10
69.196365625
20
59.662431250000004
30
0
0
VERTEX
8
0
10
69.247028125
20
59.6007
30
0
0
VERTEX
8
0
10
69.3035
20
59.544228125000004
30
0
0
VERTEX
8
0
10
69.36523125000001
20
59.493565625
30
0
0
VERTEX
8
0
10
69.431634375
20
59.449196875000005
30
0
0
VERTEX
8
0
10
69.502065625
20
59.411550000000005
30
0
0
VERTEX
8
0
10
69.575846875
20
59.380990625
30
0
0
VERTEX
8
0
10
69.65226875
20
59.35780625
30
0
0
VERTEX
8
0
10
69.73059375
20
59.342228125000005
30
0
0
VERTEX
8
0
10
69.81006875
20
59.3344
30
0
0
VERTEX
8
0
10
69.88993125
20
59.3344
30
0
0
SEQEND
0
POLYLINE
66
1
8
16_copper
10
0.0
20
0.0
30
0.0
70
1
0
VERTEX
8
0
10
70.6628
20
39.033328125000004
30
0
0
VERTEX
8
0
10
70.6628
20
39.706671875000005
30
0
0
VERTEX
8
0
10
70.186671875
20
40.1828
30
0
0
VERTEX
8
0
10
69.513328125
20
40.1828
30
0
0
VERTEX
8
0
10
69.0372
20
39.706671875000005
30
0
0
VERTEX
8
0
10
69.0372
20
39.033328125000004
30
0
0
VERTEX
8
0
10
69.513328125
20
38.5572
30
0
0
VERTEX
8
0
10
70.186671875
20
38.5572
30
0
0
SEQEND
0
POLYLINE
66
1
8
1_copper
10
0.0
20
0.0
30
0.0
70
1
0
VERTEX
8
0
10
68.1228
20
39.033328125000004
30
0
0
VERTEX
8
0
10
68.1228
20
39.706671875000005
30
0
0
VERTEX
8
0
10
67.64667187500001
20
40.1828
30
0
0
VERTEX
8
0
10
67.3862
20
40.1828
30
0
0
VERTEX
8
0
10
67.3862
20
59.337971875
30
0
42
0.3729306397657086
0
VERTEX
8
0
10
68.1228
20
60.10726875
30
0
0
VERTEX
8
0
10
68.1228
20
61.812731250000006
30
0
42
0.9520780393388287
0
VERTEX
8
0
10
66.4972
20
61.812731250000006
30
0
0
VERTEX
8
0
10
66.4972
20
60.10726875
30
0
42
0.3729306397657086
0
VERTEX
8
0
10
67.2338
20
59.337971875
30
0
0
VERTEX
8
0
10
67.2338
20
40.1828
30
0
0
VERTEX
8
0
10
66.97332812500001
20
40.1828
30
0
0
VERTEX
8
0
10
66.4972
20
39.706671875000005
30
0
0
VERTEX
8
0
10
66.4972
20
39.033328125000004
30
0
0
VERTEX
8
0
10
66.97332812500001
20
38.5572
30
0
0
VERTEX
8
0
10
67.64667187500001
20
38.5572
30
0
0
SEQEND
0
POLYLINE
66
1
8
16_copper
10
0.0
20
0.0
30
0.0
70
1
0
VERTEX
8
0
10
67.42940625
20
59.342228125000005
30
0
42
0.3578054101685988
0
VERTEX
8
0
10
68.1228
20
60.10726875
30
0
0
VERTEX
8
0
10
68.1228
20
61.812731250000006
30
0
42
0.9520780393388287
0
VERTEX
8
0
10
66.4972
20
61.812731250000006
30
0
0
VERTEX
8
0
10
66.4972
20
60.10726875
30
0
0
VERTEX
8
0
10
66.50502812500001
20
60.02779375
30
0
0
VERTEX
8
0
10
66.52060625
20
59.94946875
30
0
0
VERTEX
8
0
10
66.543790625
20
59.873046875
30
0
0
VERTEX
8
0
10
66.57435000000001
20
59.799265625000004
30
0
0
VERTEX
8
0
10
66.611996875
20
59.728834375000005
30
0
0
VERTEX
8
0
10
66.656365625
20
59.662431250000004
30
0
0
VERTEX
8
0
10
66.70702812500001
20
59.6007
30
0
0
VERTEX
8
0
10
66.76350000000001
20
59.544228125000004
30
0
0
VERTEX
8
0
10
66.82523125
20
59.493565625
30
0
0
VERTEX
8
0
10
66.89163437500001
20
59.449196875000005
30
0
0
VERTEX
8
0
10
66.96206562500001
20
59.411550000000005
30
0
0
VERTEX
8
0
10
67.035846875
20
59.380990625
30
0
0
VERTEX
8
0
10
67.11226875
20
59.35780625
30
0
0
VERTEX
8
0
10
67.19059375
20
59.342228125000005
30
0
0
VERTEX
8
0
10
67.27006875000001
20
59.3344
30
0
0
VERTEX
8
0
10
67.34993125
20
59.3344
30
0
0
SEQEND
0
POLYLINE
66
1
8
16_copper
10
0.0
20
0.0
30
0.0
70
1
0
VERTEX
8
0
10
68.1228
20
39.033328125000004
30
0
0
VERTEX
8
0
10
68.1228
20
39.706671875000005
30
0
0
VERTEX
8
0
10
67.64667187500001
20
40.1828
30
0
0
VERTEX
8
0
10
66.97332812500001
20
40.1828
30
0
0
VERTEX
8
0
10
66.4972
20
39.706671875000005
30
0
0
VERTEX
8
0
10
66.4972
20
39.033328125000004
30
0
0
VERTEX
8
0
10
66.97332812500001
20
38.5572
30
0
0
VERTEX
8
0
10
67.64667187500001
20
38.5572
30
0
0
SEQEND
0
POLYLINE
66
1
8
1_copper
10
0.0
20
0.0
30
0.0
70
1
0
VERTEX
8
0
10
65.5828
20
39.033328125000004
30
0
0
VERTEX
8
0
10
65.5828
20
39.706671875000005
30
0
0
VERTEX
8
0
10
65.106671875
20
40.1828
30
0
0
VERTEX
8
0
10
64.9478
20
40.1828
30
0
0
VERTEX
8
0
10
64.9478
20
59.353840625000004
30
0
42
0.33729308151723253
0
VERTEX
8
0
10
65.5828
20
60.10726875
30
0
0
VERTEX
8
0
10
65.5828
20
61.812731250000006
30
0
42
0.9520780393388287
0
VERTEX
8
0
10
63.9572
20
61.812731250000006
30
0
0
VERTEX
8
0
10
63.9572
20
60.10726875
30
0
42
0.4089954052896929
0
VERTEX
8
0
10
64.7954
20
59.3344
30
0
0
VERTEX
8
0
10
64.7954
20
40.1828
30
0
0
VERTEX
8
0
10
64.433328125
20
40.1828
30
0
0
VERTEX
8
0
10
63.9572
20
39.706671875000005
30
0
0
VERTEX
8
0
10
63.9572
20
39.033328125000004
30
0
0
VERTEX
8
0
10
64.433328125
20
38.5572
30
0
0
VERTEX
8
0
10
65.106671875
20
38.5572
30
0
0
SEQEND
0
POLYLINE
66
1
8
16_copper
10
0.0
20
0.0
30
0.0
70
1
0
VERTEX
8
0
10
64.88940625000001
20
59.342228125000005
30
0
42
0.3578054101685988
0
VERTEX
8
0
10
65.5828
20
60.10726875
30
0
0
VERTEX
8
0
10
65.5828
20
61.812731250000006
30
0
42
0.9520780393388287
0
VERTEX
8
0
10
63.9572
20
61.812731250000006
30
0
0
VERTEX
8
0
10
63.9572
20
60.10726875
30
0
0
VERTEX
8
0
10
63.965028125
20
60.02779375
30
0
0
VERTEX
8
0
10
63.98060625
20
59.94946875
30
0
0
VERTEX
8
0
10
64.00379062500001
20
59.873046875
30
0
0
VERTEX
8
0
10
64.03435
20
59.799265625000004
30
0
0
VERTEX
8
0
10
64.071996875
20
59.728834375000005
30
0
0
VERTEX
8
0
10
64.116365625
20
59.662431250000004
30
0
0
VERTEX
8
0
10
64.167028125
20
59.6007
30
0
0
VERTEX
8
0
10
64.2235
20
59.544228125000004
30
0
0
VERTEX
8
0
10
64.28523125000001
20
59.493565625
30
0
0
VERTEX
8
0
10
64.351634375
20
59.449196875000005
30
0
0
VERTEX
8
0
10
64.422065625
20
59.411550000000005
30
0
0
VERTEX
8
0
10
64.495846875
20
59.380990625
30
0
0
VERTEX
8
0
10
64.57226875
20
59.35780625
30
0
0
VERTEX
8
0
10
64.65059375
20
59.342228125000005
30
0
0
VERTEX
8
0
10
64.73006875
20
59.3344
30
0
0
VERTEX
8
0
10
64.80993125
20
59.3344
30
0
0
SEQEND
0
POLYLINE
66
1
8
16_copper
10
0.0
20
0.0
30
0.0
70
1
0
VERTEX
8
0
10
65.5828
20
39.033328125000004
30
0
0
VERTEX
8
0
10
65.5828
20
39.706671875000005
30
0
0
VERTEX
8
0
10
65.106671875
20
40.1828
30
0
0
VERTEX
8
0
10
64.433328125
20
40.1828
30
0
0
VERTEX
8
0
10
63.9572
20
39.706671875000005
30
0
0
VERTEX
8
0
10
63.9572
20
39.033328125000004
30
0
0
VERTEX
8
0
10
64.433328125
20
38.5572
30
0
0
VERTEX
8
0
10
65.106671875
20
38.5572
30
0
0
SEQEND
0
POLYLINE
66
1
8
1_copper
10
0.0
20
0.0
30
0.0
70
1
0
VERTEX
8
0
10
63.0428
20
39.033328125000004
30
0
0
VERTEX
8
0
10
63.0428
20
39.706671875000005
30
0
0
VERTEX
8
0
10
62.566671875000004
20
40.1828
30
0
0
VERTEX
8
0
10
62.357000000000006
20
40.1828
30
0
0
VERTEX
8
0
10
62.357000000000006
20
59.3437375
30
0
42
0.35512672170313436
0
VERTEX
8
0
10
63.0428
20
60.10726875
30
0
0
VERTEX
8
0
10
63.0428
20
61.812731250000006
30
0
42
0.9520780393388287
0
VERTEX
8
0
10
61.4172
20
61.812731250000006
30
0
0
VERTEX
8
0
10
61.4172
20
60.10726875
30
0
42
0.3908769079933535
0
VERTEX
8
0
10
62.204600000000006
20
59.3344
30
0
0
VERTEX
8
0
10
62.204600000000006
20
40.1828
30
0
0
VERTEX
8
0
10
61.893328125000004
20
40.1828
30
0
0
VERTEX
8
0
10
61.4172
20
39.706671875000005
30
0
0
VERTEX
8
0
10
61.4172
20
39.033328125000004
30
0
0
VERTEX
8
0
10
61.893328125000004
20
38.5572
30
0
0
VERTEX
8
0
10
62.566671875000004
20
38.5572
30
0
0
SEQEND
0
POLYLINE
66
1
8
16_copper
10
0.0
20
0.0
30
0.0
70
1
0
VERTEX
8
0
10
62.34940625
20
59.342228125000005
30
0
42
0.3578054101685988
0
VERTEX
8
0
10
63.0428
20
60.10726875
30
0
0
VERTEX
8
0
10
63.0428
20
61.812731250000006
30
0
42
0.9520780393388287
0
VERTEX
8
0
10
61.4172
20
61.812731250000006
30
0
0
VERTEX
8
0
10
61.4172
20
60.10726875
30
0
0
VERTEX
8
0
10
61.425028125000004
20
60.02779375
30
0
0
VERTEX
8
0
10
61.44060625
20
59.94946875
30
0
0
VERTEX
8
0
10
61.463790625
20
59.873046875
30
0
0
VERTEX
8
0
10
61.494350000000004
20
59.799265625000004
30
0
0
VERTEX
8
0
10
61.531996875000004
20
59.728834375000005
30
0
0
VERTEX
8
0
10
61.576365625
20
59.662431250000004
30
0
0
VERTEX
8
0
10
61.627028125
20
59.6007
30
0
0
VERTEX
8
0
10
61.6835
20
59.544228125000004
30
0
0
VERTEX
8
0
10
61.74523125
20
59.493565625
30
0
0
VERTEX
8
0
10
61.811634375000004
20
59.449196875000005
30
0
0
VERTEX
8
0
10
61.882065625
20
59.411550000000005
30
0
0
VERTEX
8
0
10
61.955846875000006
20
59.380990625
30
0
0
VERTEX
8
0
10
62.03226875
20
59.35780625
30
0
0
VERTEX
8
0
10
62.11059375
20
59.342228125000005
30
0
0
VERTEX
8
0
10
62.19006875
20
59.3344
30
0
0
VERTEX
8
0
10
62.269931250000006
20
59.3344
30
0
0
SEQEND
0
POLYLINE
66
1
8
16_copper
10
0.0
20
0.0
30
0.0
70
1
0
VERTEX
8
0
10
63.0428
20
39.033328125000004
30
0
0
VERTEX
8
0
10
63.0428
20
39.706671875000005
30
0
0
VERTEX
8
0
10
62.566671875000004
20
40.1828
30
0
0
VERTEX
8
0
10
61.893328125000004
20
40.1828
30
0
0
VERTEX
8
0
10
61.4172
20
39.706671875000005
30
0
0
VERTEX
8
0
10
61.4172
20
39.033328125000004
30
0
0
VERTEX
8
0
10
61.893328125000004
20
38.5572
30
0
0
VERTEX
8
0
10
62.566671875000004
20
38.5572
30
0
0
SEQEND
0
POLYLINE
66
1
8
1_copper
10
0.0
20
0.0
30
0.0
70
1
0
VERTEX
8
0
10
60.5028
20
39.033328125000004
30
0
0
VERTEX
8
0
10
60.5028
20
39.706671875000005
30
0
0
VERTEX
8
0
10
60.026671875000005
20
40.1828
30
0
0
VERTEX
8
0
10
59.766200000000005
20
40.1828
30
0
0
VERTEX
8
0
10
59.766200000000005
20
59.337971875
30
0
42
0.3729306397657086
0
VERTEX
8
0
10
60.5028
20
60.10726875
30
0
0
VERTEX
8
0
10
60.5028
20
61.812731250000006
30
0
42
0.9520780393388287
0
VERTEX
8
0
10
58.8772
20
61.812731250000006
30
0
0
VERTEX
8
0
10
58.8772
20
60.10726875
30
0
42
0.3729306397657086
0
VERTEX
8
0
10
59.613800000000005
20
59.337971875
30
0
0
VERTEX
8
0
10
59.613800000000005
20
40.1828
30
0
0
VERTEX
8
0
10
59.353328125000004
20
40.1828
30
0
0
VERTEX
8
0
10
58.8772
20
39.706671875000005
30
0
0
VERTEX
8
0
10
58.8772
20
39.033328125000004
30
0
0
VERTEX
8
0
10
59.353328125000004
20
38.5572
30
0
0
VERTEX
8
0
10
60.026671875000005
20
38.5572
30
0
0
SEQEND
0
POLYLINE
66
1
8
16_copper
10
0.0
20
0.0
30
0.0
70
1
0
VERTEX
8
0
10
59.80940625
20
59.342228125000005
30
0
42
0.3578054101685988
0
VERTEX
8
0
10
60.5028
20
60.10726875
30
0
0
VERTEX
8
0
10
60.5028
20
61.812731250000006
30
0
42
0.9520780393388287
0
VERTEX
8
0
10
58.8772
20
61.812731250000006
30
0
0
VERTEX
8
0
10
58.8772
20
60.10726875
30
0
0
VERTEX
8
0
10
58.885028125000005
20
60.02779375
30
0
0
VERTEX
8
0
10
58.90060625
20
59.94946875
30
0
0
VERTEX
8
0
10
58.923790625
20
59.873046875
30
0
0
VERTEX
8
0
10
58.954350000000005
20
59.799265625000004
30
0
0
VERTEX
8
0
10
58.991996875000005
20
59.728834375000005
30
0
0
VERTEX
8
0
10
59.036365625
20
59.662431250000004
30
0
0
VERTEX
8
0
10
59.087028125
20
59.6007
30
0
0
VERTEX
8
0
10
59.1435
20
59.544228125000004
30
0
0
VERTEX
8
0
10
59.205231250000004
20
59.493565625
30
0
0
VERTEX
8
0
10
59.271634375000005
20
59.449196875000005
30
0
0
VERTEX
8
0
10
59.342065625000004
20
59.411550000000005
30
0
0
VERTEX
8
0
10
59.415846875
20
59.380990625
30
0
0
VERTEX
8
0
10
59.49226875
20
59.35780625
30
0
0
VERTEX
8
0
10
59.57059375
20
59.342228125000005
30
0
0
VERTEX
8
0
10
59.65006875
20
59.3344
30
0
0
VERTEX
8
0
10
59.72993125
20
59.3344
30
0
0
SEQEND
0
POLYLINE
66
1
8
16_copper
10
0.0
20
0.0
30
0.0
70
1
0
VERTEX
8
0
10
60.5028
20
39.033328125000004
30
0
0
VERTEX
8
0
10
60.5028
20
39.706671875000005
30
0
0
VERTEX
8
0
10
60.026671875000005
20
40.1828
30
0
0
VERTEX
8
0
10
59.353328125000004
20
40.1828
30
0
0
VERTEX
8
0
10
58.8772
20
39.706671875000005
30
0
0
VERTEX
8
0
10
58.8772
20
39.033328125000004
30
0
0
VERTEX
8
0
10
59.353328125000004
20
38.5572
30
0
0
VERTEX
8
0
10
60.026671875000005
20
38.5572
30
0
0
SEQEND
0
POLYLINE
66
1
8
1_copper
10
0.0
20
0.0
30
0.0
70
1
0
VERTEX
8
0
10
57.9628
20
39.033328125000004
30
0
0
VERTEX
8
0
10
57.9628
20
39.706671875000005
30
0
0
VERTEX
8
0
10
57.486671875000006
20
40.1828
30
0
0
VERTEX
8
0
10
57.3278
20
40.1828
30
0
0
VERTEX
8
0
10
57.3278
20
59.353840625000004
30
0
42
0.33729308151723253
0
VERTEX
8
0
10
57.9628
20
60.10726875
30
0
0
VERTEX
8
0
10
57.9628
20
61.812731250000006
30
0
42
0.9520780393388287
0
VERTEX
8
0
10
56.3372
20
61.812731250000006
30
0
0
VERTEX
8
0
10
56.3372
20
60.10726875
30
0
42
0.4089954052896929
0
VERTEX
8
0
10
57.1754
20
59.3344
30
0
0
VERTEX
8
0
10
57.1754
20
40.1828
30
0
0
VERTEX
8
0
10
56.813328125000005
20
40.1828
30
0
0
VERTEX
8
0
10
56.3372
20
39.706671875000005
30
0
0
VERTEX
8
0
10
56.3372
20
39.033328125000004
30
0
0
VERTEX
8
0
10
56.813328125000005
20
38.5572
30
0
0
VERTEX
8
0
10
57.486671875000006
20
38.5572
30
0
0
SEQEND
0
POLYLINE
66
1
8
16_copper
10
0.0
20
0.0
30
0.0
70
1
0
VERTEX
8
0
10
57.26940625
20
59.342228125000005
30
0
42
0.3578054101685988
0
VERTEX
8
0
10
57.9628
20
60.10726875
30
0
0
VERTEX
8
0
10
57.9628
20
61.812731250000006
30
0
42
0.9520780393388287
0
VERTEX
8
0
10
56.3372
20
61.812731250000006
30
0
0
VERTEX
8
0
10
56.3372
20
60.10726875
30
0
0
VERTEX
8
0
10
56.345028125000006
20
60.02779375
30
0
0
VERTEX
8
0
10
56.360606250000004
20
59.94946875
30
0
0
VERTEX
8
0
10
56.383790625
20
59.873046875
30
0
0
VERTEX
8
0
10
56.414350000000006
20
59.799265625000004
30
0
0
VERTEX
8
0
10
56.451996875000006
20
59.728834375000005
30
0
0
VERTEX
8
0
10
56.496365625
20
59.662431250000004
30
0
0
VERTEX
8
0
10
56.547028125000004
20
59.6007
30
0
0
VERTEX
8
0
10
56.603500000000004
20
59.544228125000004
30
0
0
VERTEX
8
0
10
56.665231250000005
20
59.493565625
30
0
0
VERTEX
8
0
10
56.731634375000006
20
59.449196875000005
30
0
0
VERTEX
8
0
10
56.802065625000004
20
59.411550000000005
30
0
0
VERTEX
8
0
10
56.875846875
20
59.380990625
30
0
0
VERTEX
8
0
10
56.95226875
20
59.35780625
30
0
0
VERTEX
8
0
10
57.03059375
20
59.342228125000005
30
0
0
VERTEX
8
0
10
57.11006875
20
59.3344
30
0
0
VERTEX
8
0
10
57.18993125
20
59.3344
30
0
0
SEQEND
0
POLYLINE
66
1
8
16_copper
10
0.0
20
0.0
30
0.0
70
1
0
VERTEX
8
0
10
57.9628
20
39.033328125000004
30
0
0
VERTEX
8
0
10
57.9628
20
39.706671875000005
30
0
0
VERTEX
8
0
10
57.486671875000006
20
40.1828
30
0
0
VERTEX
8
0
10
56.813328125000005
20
40.1828
30
0
0
VERTEX
8
0
10
56.3372
20
39.706671875000005
30
0
0
VERTEX
8
0
10
56.3372
20
39.033328125000004
30
0
0
VERTEX
8
0
10
56.813328125000005
20
38.5572
30
0
0
VERTEX
8
0
10
57.486671875000006
20
38.5572
30
0
0
SEQEND
0
POLYLINE
66
1
8
1_copper
10
0.0
20
0.0
30
0.0
70
1
0
VERTEX
8
0
10
55.4228
20
39.033328125000004
30
0
0
VERTEX
8
0
10
55.4228
20
39.706671875000005
30
0
0
VERTEX
8
0
10
54.946671875
20
40.1828
30
0
0
VERTEX
8
0
10
54.737
20
40.1828
30
0
0
VERTEX
8
0
10
54.737
20
59.3437375
30
0
42
0.35512672170313436
0
VERTEX
8
0
10
55.4228
20
60.10726875
30
0
0
VERTEX
8
0
10
55.4228
20
61.812731250000006
30
0
42
0.9520780393388287
0
VERTEX
8
0
10
53.797200000000004
20
61.812731250000006
30
0
0
VERTEX
8
0
10
53.797200000000004
20
60.10726875
30
0
42
0.3908769079933535
0
VERTEX
8
0
10
54.5846
20
59.3344
30
0
0
VERTEX
8
0
10
54.5846
20
40.1828
30
0
0
VERTEX
8
0
10
54.273328125000006
20
40.1828
30
0
0
VERTEX
8
0
10
53.797200000000004
20
39.706671875000005
30
0
0
VERTEX
8
0
10
53.797200000000004
20
39.033328125000004
30
0
0
VERTEX
8
0
10
54.273328125000006
20
38.5572
30
0
0
VERTEX
8
0
10
54.946671875
20
38.5572
30
0
0
SEQEND
0
POLYLINE
66
1
8
16_copper
10
0.0
20
0.0
30
0.0
70
1
0
VERTEX
8
0
10
54.729406250000004
20
59.342228125000005
30
0
42
0.3578054101685988
0
VERTEX
8
0
10
55.4228
20
60.10726875
30
0
0
VERTEX
8
0
10
55.4228
20
61.812731250000006
30
0
42
0.9520780393388287
0
VERTEX
8
0
10
53.797200000000004
20
61.812731250000006
30
0
0
VERTEX
8
0
10
53.797200000000004
20
60.10726875
30
0
0
VERTEX
8
0
10
53.805028125
20
60.02779375
30
0
0
VERTEX
8
0
10
53.820606250000004
20
59.94946875
30
0
0
VERTEX
8
0
10
53.843790625000004
20
59.873046875
30
0
0
VERTEX
8
0
10
53.87435
20
59.799265625000004
30
0
0
VERTEX
8
0
10
53.911996875
20
59.728834375000005
30
0
0
VERTEX
8
0
10
53.956365625000004
20
59.662431250000004
30
0
0
VERTEX
8
0
10
54.007028125000005
20
59.6007
30
0
0
VERTEX
8
0
10
54.063500000000005
20
59.544228125000004
30
0
0
VERTEX
8
0
10
54.125231250000006
20
59.493565625
30
0
0
VERTEX
8
0
10
54.191634375
20
59.449196875000005
30
0
0
VERTEX
8
0
10
54.262065625000005
20
59.411550000000005
30
0
0
VERTEX
8
0
10
54.335846875
20
59.380990625
30
0
0
VERTEX
8
0
10
54.41226875
20
59.35780625
30
0
0
VERTEX
8
0
10
54.49059375
20
59.342228125000005
30
0
0
VERTEX
8
0
10
54.570068750000004
20
59.3344
30
0
0
VERTEX
8
0
10
54.64993125
20
59.3344
30
0
0
SEQEND
0
POLYLINE
66
1
8
16_copper
10
0.0
20
0.0
30
0.0
70
1
0
VERTEX
8
0
10
55.4228
20
39.033328125000004
30
0
0
VERTEX
8
0
10
55.4228
20
39.706671875000005
30
0
0
VERTEX
8
0
10
54.946671875
20
40.1828
30
0
0
VERTEX
8
0
10
54.273328125000006
20
40.1828
30
0
0
VERTEX
8
0
10
53.797200000000004
20
39.706671875000005
30
0
0
VERTEX
8
0
10
53.797200000000004
20
39.033328125000004
30
0
0
VERTEX
8
0
10
54.273328125000006
20
38.5572
30
0
0
VERTEX
8
0
10
54.946671875
20
38.5572
30
0
0
SEQEND
0
POLYLINE
66
1
8
1_copper
10
0.0
20
0.0
30
0.0
70
1
0
VERTEX
8
0
10
52.8828
20
39.033328125000004
30
0
0
VERTEX
8
0
10
52.8828
20
39.706671875000005
30
0
0
VERTEX
8
0
10
52.406671875
20
40.1828
30
0
0
VERTEX
8
0
10
52.1462
20
40.1828
30
0
0
VERTEX
8
0
10
52.1462
20
59.337971875
30
0
42
0.3729306397657086
0
VERTEX
8
0
10
52.8828
20
60.10726875
30
0
0
VERTEX
8
0
10
52.8828
20
61.812731250000006
30
0
42
0.9520780393388287
0
VERTEX
8
0
10
51.257200000000005
20
61.812731250000006
30
0
0
VERTEX
8
0
10
51.257200000000005
20
60.10726875
30
0
42
0.3729306397657086
0
VERTEX
8
0
10
51.9938
20
59.337971875
30
0
0
VERTEX
8
0
10
51.9938
20
40.1828
30
0
0
VERTEX
8
0
10
51.733328125
20
40.1828
30
0
0
VERTEX
8
0
10
51.257200000000005
20
39.706671875000005
30
0
0
VERTEX
8
0
10
51.257200000000005
20
39.033328125000004
30
0
0
VERTEX
8
0
10
51.733328125
20
38.5572
30
0
0
VERTEX
8
0
10
52.406671875
20
38.5572
30
0
0
SEQEND
0
POLYLINE
66
1
8
16_copper
10
0.0
20
0.0
30
0.0
70
1
0
VERTEX
8
0
10
52.189406250000005
20
59.342228125000005
30
0
42
0.3578054101685988
0
VERTEX
8
0
10
52.8828
20
60.10726875
30
0
0
VERTEX
8
0
10
52.8828
20
61.812731250000006
30
0
42
0.9520780393388287
0
VERTEX
8
0
10
51.257200000000005
20
61.812731250000006
30
0
0
VERTEX
8
0
10
51.257200000000005
20
60.10726875
30
0
0
VERTEX
8
0
10
51.265028125
20
60.02779375
30
0
0
VERTEX
8
0
10
51.280606250000005
20
59.94946875
30
0
0
VERTEX
8
0
10
51.303790625000005
20
59.873046875
30
0
0
VERTEX
8
0
10
51.33435
20
59.799265625000004
30
0
0
VERTEX
8
0
10
51.371996875
20
59.728834375000005
30
0
0
VERTEX
8
0
10
51.416365625000005
20
59.662431250000004
30
0
0
VERTEX
8
0
10
51.467028125000006
20
59.6007
30
0
0
VERTEX
8
0
10
51.523500000000006
20
59.544228125000004
30
0
0
VERTEX
8
0
10
51.58523125
20
59.493565625
30
0
0
VERTEX
8
0
10
51.651634375
20
59.449196875000005
30
0
0
VERTEX
8
0
10
51.722065625
20
59.411550000000005
30
0
0
VERTEX
8
0
10
51.795846875
20
59.380990625
30
0
0
VERTEX
8
0
10
51.87226875
20
59.35780625
30
0
0
VERTEX
8
0
10
51.95059375
20
59.342228125000005
30
0
0
VERTEX
8
0
10
52.030068750000005
20
59.3344
30
0
0
VERTEX
8
0
10
52.10993125
20
59.3344
30
0
0
SEQEND
0
POLYLINE
66
1
8
16_copper
10
0.0
20
0.0
30
0.0
70
1
0
VERTEX
8
0
10
52.8828
20
39.033328125000004
30
0
0
VERTEX
8
0
10
52.8828
20
39.706671875000005
30
0
0
VERTEX
8
0
10
52.406671875
20
40.1828
30
0
0
VERTEX
8
0
10
51.733328125
20
40.1828
30
0
0
VERTEX
8
0
10
51.257200000000005
20
39.706671875000005
30
0
0
VERTEX
8
0
10
51.257200000000005
20
39.033328125000004
30
0
0
VERTEX
8
0
10
51.733328125
20
38.5572
30
0
0
VERTEX
8
0
10
52.406671875
20
38.5572
30
0
0
SEQEND
0
POLYLINE
66
1
8
1_copper
10
0.0
20
0.0
30
0.0
70
1
0
VERTEX
8
0
10
50.342800000000004
20
39.033328125000004
30
0
0
VERTEX
8
0
10
50.342800000000004
20
39.706671875000005
30
0
0
VERTEX
8
0
10
49.866671875
20
40.1828
30
0
0
VERTEX
8
0
10
49.7078
20
40.1828
30
0
0
VERTEX
8
0
10
49.7078
20
59.353840625000004
30
0
42
0.33729308151723253
0
VERTEX
8
0
10
50.342800000000004
20
60.10726875
30
0
0
VERTEX
8
0
10
50.342800000000004
20
61.812731250000006
30
0
42
0.9520780393388287
0
VERTEX
8
0
10
48.717200000000005
20
61.812731250000006
30
0
0
VERTEX
8
0
10
48.717200000000005
20
60.10726875
30
0
42
0.4089954052896929
0
VERTEX
8
0
10
49.555400000000006
20
59.3344
30
0
0
VERTEX
8
0
10
49.555400000000006
20
40.1828
30
0
0
VERTEX
8
0
10
49.193328125
20
40.1828
30
0
0
VERTEX
8
0
10
48.717200000000005
20
39.706671875000005
30
0
0
VERTEX
8
0
10
48.717200000000005
20
39.033328125000004
30
0
0
VERTEX
8
0
10
49.193328125
20
38.5572
30
0
0
VERTEX
8
0
10
49.866671875
20
38.5572
30
0
0
SEQEND
0
POLYLINE
66
1
8
16_copper
10
0.0
20
0.0
30
0.0
70
1
0
VERTEX
8
0
10
49.649406250000006
20
59.342228125000005
30
0
42
0.3578054101685988
0
VERTEX
8
0
10
50.342800000000004
20
60.10726875
30
0
0
VERTEX
8
0
10
50.342800000000004
20
61.812731250000006
30
0
42
0.9520780393388287
0
VERTEX
8
0
10
48.717200000000005
20
61.812731250000006
30
0
0
VERTEX
8
0
10
48.717200000000005
20
60.10726875
30
0
0
VERTEX
8
0
10
48.725028125
20
60.02779375
30
0
0
VERTEX
8
0
10
48.74060625
20
59.94946875
30
0
0
VERTEX
8
0
10
48.763790625000006
20
59.873046875
30
0
0
VERTEX
8
0
10
48.79435
20
59.799265625000004
30
0
0
VERTEX
8
0
10
48.831996875
20
59.728834375000005
30
0
0
VERTEX
8
0
10
48.876365625000005
20
59.662431250000004
30
0
0
VERTEX
8
0
10
48.927028125
20
59.6007
30
0
0
VERTEX
8
0
10
48.9835
20
59.544228125000004
30
0
0
VERTEX
8
0
10
49.04523125
20
59.493565625
30
0
0
VERTEX
8
0
10
49.111634375
20
59.449196875000005
30
0
0
VERTEX
8
0
10
49.182065625
20
59.411550000000005
30
0
0
VERTEX
8
0
10
49.255846875
20
59.380990625
30
0
0
VERTEX
8
0
10
49.332268750000004
20
59.35780625
30
0
0
VERTEX
8
0
10
49.410593750000004
20
59.342228125000005
30
0
0
VERTEX
8
0
10
49.49006875
20
59.3344
30
0
0
VERTEX
8
0
10
49.56993125
20
59.3344
30
0
0
SEQEND
0
POLYLINE
66
1
8
16_copper
10
0.0
20
0.0
30
0.0
70
1
0
VERTEX
8
0
10
50.342800000000004
20
39.033328125000004
30
0
0
VERTEX
8
0
10
50.342800000000004
20
39.706671875000005
30
0
0
VERTEX
8
0
10
49.866671875
20
40.1828
30
0
0
VERTEX
8
0
10
49.193328125
20
40.1828
30
0
0
VERTEX
8
0
10
48.717200000000005
20
39.706671875000005
30
0
0
VERTEX
8
0
10
48.717200000000005
20
39.033328125000004
30
0
0
VERTEX
8
0
10
49.193328125
20
38.5572
30
0
0
VERTEX
8
0
10
49.866671875
20
38.5572
30
0
0
SEQEND
0
POLYLINE
66
1
8
1_copper
10
0.0
20
0.0
30
0.0
70
1
0
VERTEX
8
0
10
47.802800000000005
20
39.033328125000004
30
0
0
VERTEX
8
0
10
47.802800000000005
20
39.706671875000005
30
0
0
VERTEX
8
0
10
47.326671875
20
40.1828
30
0
0
VERTEX
8
0
10
47.117000000000004
20
40.1828
30
0
0
VERTEX
8
0
10
47.117000000000004
20
59.3437375
30
0
42
0.35512672170313436
0
VERTEX
8
0
10
47.802800000000005
20
60.10726875
30
0
0
VERTEX
8
0
10
47.802800000000005
20
61.812731250000006
30
0
42
0.9520780393388287
0
VERTEX
8
0
10
46.1772
20
61.812731250000006
30
0
0
VERTEX
8
0
10
46.1772
20
60.10726875
30
0
42
0.3908769079933535
0
VERTEX
8
0
10
46.964600000000004
20
59.3344
30
0
0
VERTEX
8
0
10
46.964600000000004
20
40.1828
30
0
0
VERTEX
8
0
10
46.653328125
20
40.1828
30
0
0
VERTEX
8
0
10
46.1772
20
39.706671875000005
30
0
0
VERTEX
8
0
10
46.1772
20
39.033328125000004
30
0
0
VERTEX
8
0
10
46.653328125
20
38.5572
30
0
0
VERTEX
8
0
10
47.326671875
20
38.5572
30
0
0
SEQEND
0
POLYLINE
66
1
8
16_copper
10
0.0
20
0.0
30
0.0
70
1
0
VERTEX
8
0
10
47.10940625
20
59.342228125000005
30
0
42
0.3578054101685988
0
VERTEX
8
0
10
47.802800000000005
20
60.10726875
30
0
0
VERTEX
8
0
10
47.802800000000005
20
61.812731250000006
30
0
42
0.9520780393388287
0
VERTEX
8
0
10
46.1772
20
61.812731250000006
30
0
0
VERTEX
8
0
10
46.1772
20
60.10726875
30
0
0
VERTEX
8
0
10
46.185028125
20
60.02779375
30
0
0
VERTEX
8
0
10
46.20060625
20
59.94946875
30
0
0
VERTEX
8
0
10
46.223790625
20
59.873046875
30
0
0
VERTEX
8
0
10
46.25435
20
59.799265625000004
30
0
0
VERTEX
8
0
10
46.291996875
20
59.728834375000005
30
0
0
VERTEX
8
0
10
46.336365625
20
59.662431250000004
30
0
0
VERTEX
8
0
10
46.387028125
20
59.6007
30
0
0
VERTEX
8
0
10
46.4435
20
59.544228125000004
30
0
0
VERTEX
8
0
10
46.50523125
20
59.493565625
30
0
0
VERTEX
8
0
10
46.571634375
20
59.449196875000005
30
0
0
VERTEX
8
0
10
46.642065625
20
59.411550000000005
30
0
0
VERTEX
8
0
10
46.715846875000004
20
59.380990625
30
0
0
VERTEX
8
0
10
46.792268750000005
20
59.35780625
30
0
0
VERTEX
8
0
10
46.870593750000005
20
59.342228125000005
30
0
0
VERTEX
8
0
10
46.95006875
20
59.3344
30
0
0
VERTEX
8
0
10
47.029931250000004
20
59.3344
30
0
0
SEQEND
0
POLYLINE
66
1
8
16_copper
10
0.0
20
0.0
30
0.0
70
1
0
VERTEX
8
0
10
47.802800000000005
20
39.033328125000004
30
0
0
VERTEX
8
0
10
47.802800000000005
20
39.706671875000005
30
0
0
VERTEX
8
0
10
47.326671875
20
40.1828
30
0
0
VERTEX
8
0
10
46.653328125
20
40.1828
30
0
0
VERTEX
8
0
10
46.1772
20
39.706671875000005
30
0
0
VERTEX
8
0
10
46.1772
20
39.033328125000004
30
0
0
VERTEX
8
0
10
46.653328125
20
38.5572
30
0
0
VERTEX
8
0
10
47.326671875
20
38.5572
30
0
0
SEQEND
0
POLYLINE
66
1
8
1_copper
10
0.0
20
0.0
30
0.0
70
1
0
VERTEX
8
0
10
45.262800000000006
20
39.033328125000004
30
0
0
VERTEX
8
0
10
45.262800000000006
20
39.706671875000005
30
0
0
VERTEX
8
0
10
44.786671875
20
40.1828
30
0
0
VERTEX
8
0
10
44.5262
20
40.1828
30
0
0
VERTEX
8
0
10
44.5262
20
59.337971875
30
0
42
0.3729306397657086
0
VERTEX
8
0
10
45.262800000000006
20
60.10726875
30
0
0
VERTEX
8
0
10
45.262800000000006
20
61.812731250000006
30
0
42
0.9520780393388287
0
VERTEX
8
0
10
43.6372
20
61.812731250000006
30
0
0
VERTEX
8
0
10
43.6372
20
60.10726875
30
0
42
0.3729306397657086
0
VERTEX
8
0
10
44.3738
20
59.337971875
30
0
0
VERTEX
8
0
10
44.3738
20
40.1828
30
0
0
VERTEX
8
0
10
44.113328125
20
40.1828
30
0
0
VERTEX
8
0
10
43.6372
20
39.706671875000005
30
0
0
VERTEX
8
0
10
43.6372
20
39.033328125000004
30
0
0
VERTEX
8
0
10
44.113328125
20
38.5572
30
0
0
VERTEX
8
0
10
44.786671875
20
38.5572
30
0
0
SEQEND
0
POLYLINE
66
1
8
16_copper
10
0.0
20
0.0
30
0.0
70
1
0
VERTEX
8
0
10
44.56940625
20
59.342228125000005
30
0
42
0.3578054101685988
0
VERTEX
8
0
10
45.262800000000006
20
60.10726875
30
0
0
VERTEX
8
0
10
45.262800000000006
20
61.812731250000006
30
0
42
0.9520780393388287
0
VERTEX
8
0
10
43.6372
20
61.812731250000006
30
0
0
VERTEX
8
0
10
43.6372
20
60.10726875
30
0
0
VERTEX
8
0
10
43.645028125
20
60.02779375
30
0
0
VERTEX
8
0
10
43.66060625
20
59.94946875
30
0
0
VERTEX
8
0
10
43.683790625
20
59.873046875
30
0
0
VERTEX
8
0
10
43.71435
20
59.799265625000004
30
0
0
VERTEX
8
0
10
43.751996875
20
59.728834375000005
30
0
0
VERTEX
8
0
10
43.796365625
20
59.662431250000004
30
0
0
VERTEX
8
0
10
43.847028125
20
59.6007
30
0
0
VERTEX
8
0
10
43.9035
20
59.544228125000004
30
0
0
VERTEX
8
0
10
43.96523125
20
59.493565625
30
0
0
VERTEX
8
0
10
44.031634375
20
59.449196875000005
30
0
0
VERTEX
8
0
10
44.102065625
20
59.411550000000005
30
0
0
VERTEX
8
0
10
44.175846875000005
20
59.380990625
30
0
0
VERTEX
8
0
10
44.25226875
20
59.35780625
30
0
0
VERTEX
8
0
10
44.330593750000006
20
59.342228125000005
30
0
0
VERTEX
8
0
10
44.41006875
20
59.3344
30
0
0
VERTEX
8
0
10
44.489931250000005
20
59.3344
30
0
0
SEQEND
0
POLYLINE
66
1
8
16_copper
10
0.0
20
0.0
30
0.0
70
1
0
VERTEX
8
0
10
45.262800000000006
20
39.033328125000004
30
0
0
VERTEX
8
0
10
45.262800000000006
20
39.706671875000005
30
0
0
VERTEX
8
0
10
44.786671875
20
40.1828
30
0
0
VERTEX
8
0
10
44.113328125
20
40.1828
30
0
0
VERTEX
8
0
10
43.6372
20
39.706671875000005
30
0
0
VERTEX
8
0
10
43.6372
20
39.033328125000004
30
0
0
VERTEX
8
0
10
44.113328125
20
38.5572
30
0
0
VERTEX
8
0
10
44.786671875
20
38.5572
30
0
0
SEQEND
0
POLYLINE
66
1
8
1_copper
10
0.0
20
0.0
30
0.0
70
1
0
VERTEX
8
0
10
42.7228
20
39.033328125000004
30
0
0
VERTEX
8
0
10
42.7228
20
39.706671875000005
30
0
0
VERTEX
8
0
10
42.246671875000004
20
40.1828
30
0
0
VERTEX
8
0
10
42.0878
20
40.1828
30
0
0
VERTEX
8
0
10
42.0878
20
59.353840625000004
30
0
42
0.33729308151723253
0
VERTEX
8
0
10
42.7228
20
60.10726875
30
0
0
VERTEX
8
0
10
42.7228
20
61.812731250000006
30
0
42
0.9520780393388287
0
VERTEX
8
0
10
41.0972
20
61.812731250000006
30
0
0
VERTEX
8
0
10
41.0972
20
60.10726875
30
0
42
0.4089954052896929
0
VERTEX
8
0
10
41.9354
20
59.3344
30
0
0
VERTEX
8
0
10
41.9354
20
40.1828
30
0
0
VERTEX
8
0
10
41.573328125
20
40.1828
30
0
0
VERTEX
8
0
10
41.0972
20
39.706671875000005
30
0
0
VERTEX
8
0
10
41.0972
20
39.033328125000004
30
0
0
VERTEX
8
0
10
41.573328125
20
38.5572
30
0
0
VERTEX
8
0
10
42.246671875000004
20
38.5572
30
0
0
SEQEND
0
POLYLINE
66
1
8
16_copper
10
0.0
20
0.0
30
0.0
70
1
0
VERTEX
8
0
10
42.02940625
20
59.342228125000005
30
0
42
0.3578054101685988
0
VERTEX
8
0
10
42.7228
20
60.10726875
30
0
0
VERTEX
8
0
10
42.7228
20
61.812731250000006
30
0
42
0.9520780393388287
0
VERTEX
8
0
10
41.0972
20
61.812731250000006
30
0
0
VERTEX
8
0
10
41.0972
20
60.10726875
30
0
0
VERTEX
8
0
10
41.105028125000004
20
60.02779375
30
0
0
VERTEX
8
0
10
41.12060625
20
59.94946875
30
0
0
VERTEX
8
0
10
41.143790625
20
59.873046875
30
0
0
VERTEX
8
0
10
41.174350000000004
20
59.799265625000004
30
0
0
VERTEX
8
0
10
41.211996875000004
20
59.728834375000005
30
0
0
VERTEX
8
0
10
41.256365625
20
59.662431250000004
30
0
0
VERTEX
8
0
10
41.307028125
20
59.6007
30
0
0
VERTEX
8
0
10
41.3635
20
59.544228125000004
30
0
0
VERTEX
8
0
10
41.42523125
20
59.493565625
30
0
0
VERTEX
8
0
10
41.491634375000004
20
59.449196875000005
30
0
0
VERTEX
8
0
10
41.562065625
20
59.411550000000005
30
0
0
VERTEX
8
0
10
41.635846875
20
59.380990625
30
0
0
VERTEX
8
0
10
41.71226875
20
59.35780625
30
0
0
VERTEX
8
0
10
41.79059375
20
59.342228125000005
30
0
0
VERTEX
8
0
10
41.87006875
20
59.3344
30
0
0
VERTEX
8
0
10
41.94993125
20
59.3344
30
0
0
SEQEND
0
POLYLINE
66
1
8
16_copper
10
0.0
20
0.0
30
0.0
70
1
0
VERTEX
8
0
10
42.7228
20
39.033328125000004
30
0
0
VERTEX
8
0
10
42.7228
20
39.706671875000005
30
0
0
VERTEX
8
0
10
42.246671875000004
20
40.1828
30
0
0
VERTEX
8
0
10
41.573328125
20
40.1828
30
0
0
VERTEX
8
0
10
41.0972
20
39.706671875000005
30
0
0
VERTEX
8
0
10
41.0972
20
39.033328125000004
30
0
0
VERTEX
8
0
10
41.573328125
20
38.5572
30
0
0
VERTEX
8
0
10
42.246671875000004
20
38.5572
30
0
0
SEQEND
0
POLYLINE
66
1
8
1_copper
10
0.0
20
0.0
30
0.0
70
1
0
VERTEX
8
0
10
40.1828
20
39.033328125000004
30
0
0
VERTEX
8
0
10
40.1828
20
39.706671875000005
30
0
0
VERTEX
8
0
10
39.706671875000005
20
40.1828
30
0
0
VERTEX
8
0
10
39.497
20
40.1828
30
0
0
VERTEX
8
0
10
39.497
20
59.3437375
30
0
42
0.35512672170313436
0
VERTEX
8
0
10
40.1828
20
60.10726875
30
0
0
VERTEX
8
0
10
40.1828
20
61.812731250000006
30
0
42
0.9520780393388287
0
VERTEX
8
0
10
38.5572
20
61.812731250000006
30
0
0
VERTEX
8
0
10
38.5572
20
60.10726875
30
0
42
0.3908769079933535
0
VERTEX
8
0
10
39.3446
20
59.3344
30
0
0
VERTEX
8
0
10
39.3446
20
40.1828
30
0
0
VERTEX
8
0
10
39.033328125000004
20
40.1828
30
0
0
VERTEX
8
0
10
38.5572
20
39.706671875000005
30
0
0
VERTEX
8
0
10
38.5572
20
39.033328125000004
30
0
0
VERTEX
8
0
10
39.033328125000004
20
38.5572
30
0
0
VERTEX
8
0
10
39.706671875000005
20
38.5572
30
0
0
SEQEND
0
POLYLINE
66
1
8
16_copper
10
0.0
20
0.0
30
0.0
70
1
0
VERTEX
8
0
10
39.48940625
20
59.342228125000005
30
0
42
0.3578054101685988
0
VERTEX
8
0
10
40.1828
20
60.10726875
30
0
0
VERTEX
8
0
10
40.1828
20
61.812731250000006
30
0
42
0.9520780393388287
0
VERTEX
8
0
10
38.5572
20
61.812731250000006
30
0
0
VERTEX
8
0
10
38.5572
20
60.10726875
30
0
0
VERTEX
8
0
10
38.565028125000005
20
60.02779375
30
0
0
VERTEX
8
0
10
38.58060625
20
59.94946875
30
0
0
VERTEX
8
0
10
38.603790625
20
59.873046875
30
0
0
VERTEX
8
0
10
38.634350000000005
20
59.799265625000004
30
0
0
VERTEX
8
0
10
38.671996875000005
20
59.728834375000005
30
0
0
VERTEX
8
0
10
38.716365625
20
59.662431250000004
30
0
0
VERTEX
8
0
10
38.767028125
20
59.6007
30
0
0
VERTEX
8
0
10
38.8235
20
59.544228125000004
30
0
0
VERTEX
8
0
10
38.885231250000004
20
59.493565625
30
0
0
VERTEX
8
0
10
38.951634375000005
20
59.449196875000005
30
0
0
VERTEX
8
0
10
39.022065625
20
59.411550000000005
30
0
0
VERTEX
8
0
10
39.095846875
20
59.380990625
30
0
0
VERTEX
8
0
10
39.17226875
20
59.35780625
30
0
0
VERTEX
8
0
10
39.25059375
20
59.342228125000005
30
0
0
VERTEX
8
0
10
39.33006875
20
59.3344
30
0
0
VERTEX
8
0
10
39.40993125
20
59.3344
30
0
0
SEQEND
0
POLYLINE
66
1
8
16_copper
10
0.0
20
0.0
30
0.0
70
1
0
VERTEX
8
0
10
40.1828
20
39.033328125000004
30
0
0
VERTEX
8
0
10
40.1828
20
39.706671875000005
30
0
0
VERTEX
8
0
10
39.706671875000005
20
40.1828
30
0
0
VERTEX
8
0
10
39.033328125000004
20
40.1828
30
0
0
VERTEX
8
0
10
38.5572
20
39.706671875000005
30
0
0
VERTEX
8
0
10
38.5572
20
39.033328125000004
30
0
0
VERTEX
8
0
10
39.033328125000004
20
38.5572
30
0
0
VERTEX
8
0
10
39.706671875000005
20
38.5572
30
0
0
SEQEND
0
POLYLINE
66
1
8
1_copper
10
0.0
20
0.0
30
0.0
70
1
0
VERTEX
8
0
10
37.6428
20
39.033328125000004
30
0
0
VERTEX
8
0
10
37.6428
20
39.706671875000005
30
0
0
VERTEX
8
0
10
37.166671875
20
40.1828
30
0
0
VERTEX
8
0
10
36.9062
20
40.1828
30
0
0
VERTEX
8
0
10
36.9062
20
59.337971875
30
0
42
0.3729306397657086
0
VERTEX
8
0
10
37.6428
20
60.10726875
30
0
0
VERTEX
8
0
10
37.6428
20
61.812731250000006
30
0
42
0.9520780393388287
0
VERTEX
8
0
10
36.0172
20
61.812731250000006
30
0
0
VERTEX
8
0
10
36.0172
20
60.10726875
30
0
42
0.3729306397657086
0
VERTEX
8
0
10
36.7538
20
59.337971875
30
0
0
VERTEX
8
0
10
36.7538
20
40.1828
30
0
0
VERTEX
8
0
10
36.493328125000005
20
40.1828
30
0
0
VERTEX
8
0
10
36.0172
20
39.706671875000005
30
0
0
VERTEX
8
0
10
36.0172
20
39.033328125000004
30
0
0
VERTEX
8
0
10
36.493328125000005
20
38.5572
30
0
0
VERTEX
8
0
10
37.166671875
20
38.5572
30
0
0
SEQEND
0
POLYLINE
66
1
8
16_copper
10
0.0
20
0.0
30
0.0
70
1
0
VERTEX
8
0
10
36.94940625
20
59.342228125000005
30
0
42
0.3578054101685988
0
VERTEX
8
0
10
37.6428
20
60.10726875
30
0
0
VERTEX
8
0
10
37.6428
20
61.812731250000006
30
0
42
0.9520780393388287
0
VERTEX
8
0
10
36.0172
20
61.812731250000006
30
0
0
VERTEX
8
0
10
36.0172
20
60.10726875
30
0
0
VERTEX
8
0
10
36.025028125
20
60.02779375
30
0
0
VERTEX
8
0
10
36.04060625
20
59.94946875
30
0
0
VERTEX
8
0
10
36.063790625
20
59.873046875
30
0
0
VERTEX
8
0
10
36.09435
20
59.799265625000004
30
0
0
VERTEX
8
0
10
36.131996875
20
59.728834375000005
30
0
0
VERTEX
8
0
10
36.176365625
20
59.662431250000004
30
0
0
VERTEX
8
0
10
36.227028125000004
20
59.6007
30
0
0
VERTEX
8
0
10
36.283500000000004
20
59.544228125000004
30
0
0
VERTEX
8
0
10
36.345231250000005
20
59.493565625
30
0
0
VERTEX
8
0
10
36.411634375
20
59.449196875000005
30
0
0
VERTEX
8
0
10
36.482065625000004
20
59.411550000000005
30
0
0
VERTEX
8
0
10
36.555846875
20
59.380990625
30
0
0
VERTEX
8
0
10
36.63226875
20
59.35780625
30
0
0
VERTEX
8
0
10
36.71059375
20
59.342228125000005
30
0
0
VERTEX
8
0
10
36.79006875
20
59.3344
30
0
0
VERTEX
8
0
10
36.86993125
20
59.3344
30
0
0
SEQEND
0
POLYLINE
66
1
8
16_copper
10
0.0
20
0.0
30
0.0
70
1
0
VERTEX
8
0
10
37.6428
20
39.033328125000004
30
0
0
VERTEX
8
0
10
37.6428
20
39.706671875000005
30
0
0
VERTEX
8
0
10
37.166671875
20
40.1828
30
0
0
VERTEX
8
0
10
36.493328125000005
20
40.1828
30
0
0
VERTEX
8
0
10
36.0172
20
39.706671875000005
30
0
0
VERTEX
8
0
10
36.0172
20
39.033328125000004
30
0
0
VERTEX
8
0
10
36.493328125000005
20
38.5572
30
0
0
VERTEX
8
0
10
37.166671875
20
38.5572
30
0
0
SEQEND
0
POLYLINE
66
1
8
1_copper
10
0.0
20
0.0
30
0.0
70
1
0
VERTEX
8
0
10
35.1028
20
39.033328125000004
30
0
0
VERTEX
8
0
10
35.1028
20
39.706671875000005
30
0
0
VERTEX
8
0
10
34.626671875
20
40.1828
30
0
0
VERTEX
8
0
10
34.467800000000004
20
40.1828
30
0
0
VERTEX
8
0
10
34.467800000000004
20
59.353840625000004
30
0
42
0.33729308151723253
0
VERTEX
8
0
10
35.1028
20
60.10726875
30
0
0
VERTEX
8
0
10
35.1028
20
61.812731250000006
30
0
42
0.9520780393388287
0
VERTEX
8
0
10
33.4772
20
61.812731250000006
30
0
0
VERTEX
8
0
10
33.4772
20
60.10726875
30
0
42
0.4089954052896929
0
VERTEX
8
0
10
34.315400000000004
20
59.3344
30
0
0
VERTEX
8
0
10
34.315400000000004
20
40.1828
30
0
0
VERTEX
8
0
10
33.953328125
20
40.1828
30
0
0
VERTEX
8
0
10
33.4772
20
39.706671875000005
30
0
0
VERTEX
8
0
10
33.4772
20
39.033328125000004
30
0
0
VERTEX
8
0
10
33.953328125
20
38.5572
30
0
0
VERTEX
8
0
10
34.626671875
20
38.5572
30
0
0
SEQEND
0
POLYLINE
66
1
8
16_copper
10
0.0
20
0.0
30
0.0
70
1
0
VERTEX
8
0
10
34.40940625
20
59.342228125000005
30
0
42
0.3578054101685988
0
VERTEX
8
0
10
35.1028
20
60.10726875
30
0
0
VERTEX
8
0
10
35.1028
20
61.812731250000006
30
0
42
0.9520780393388287
0
VERTEX
8
0
10
33.4772
20
61.812731250000006
30
0
0
VERTEX
8
0
10
33.4772
20
60.10726875
30
0
0
VERTEX
8
0
10
33.485028125
20
60.02779375
30
0
0
VERTEX
8
0
10
33.500606250000004
20
59.94946875
30
0
0
VERTEX
8
0
10
33.523790625000004
20
59.873046875
30
0
0
VERTEX
8
0
10
33.55435
20
59.799265625000004
30
0
0
VERTEX
8
0
10
33.591996875
20
59.728834375000005
30
0
0
VERTEX
8
0
10
33.636365625
20
59.662431250000004
30
0
0
VERTEX
8
0
10
33.687028125000005
20
59.6007
30
0
0
VERTEX
8
0
10
33.743500000000004
20
59.544228125000004
30
0
0
VERTEX
8
0
10
33.80523125
20
59.493565625
30
0
0
VERTEX
8
0
10
33.871634375
20
59.449196875000005
30
0
0
VERTEX
8
0
10
33.942065625000005
20
59.411550000000005
30
0
0
VERTEX
8
0
10
34.015846875
20
59.380990625
30
0
0
VERTEX
8
0
10
34.09226875
20
59.35780625
30
0
0
VERTEX
8
0
10
34.17059375
20
59.342228125000005
30
0
0
VERTEX
8
0
10
34.250068750000004
20
59.3344
30
0
0
VERTEX
8
0
10
34.32993125
20
59.3344
30
0
0
SEQEND
0
POLYLINE
66
1
8
16_copper
10
0.0
20
0.0
30
0.0
70
1
0
VERTEX
8
0
10
35.1028
20
39.033328125000004
30
0
0
VERTEX
8
0
10
35.1028
20
39.706671875000005
30
0
0
VERTEX
8
0
10
34.626671875
20
40.1828
30
0
0
VERTEX
8
0
10
33.953328125
20
40.1828
30
0
0
VERTEX
8
0
10
33.4772
20
39.706671875000005
30
0
0
VERTEX
8
0
10
33.4772
20
39.033328125000004
30
0
0
VERTEX
8
0
10
33.953328125
20
38.5572
30
0
0
VERTEX
8
0
10
34.626671875
20
38.5572
30
0
0
SEQEND
0
POLYLINE
66
1
8
1_copper
10
0.0
20
0.0
30
0.0
70
1
0
VERTEX
8
0
10
32.5628
20
39.033328125000004
30
0
0
VERTEX
8
0
10
32.5628
20
39.706671875000005
30
0
0
VERTEX
8
0
10
32.086671875
20
40.1828
30
0
0
VERTEX
8
0
10
31.877000000000002
20
40.1828
30
0
0
VERTEX
8
0
10
31.877000000000002
20
59.3437375
30
0
42
0.35512672170313436
0
VERTEX
8
0
10
32.5628
20
60.10726875
30
0
0
VERTEX
8
0
10
32.5628
20
61.812731250000006
30
0
42
0.9520780393388287
0
VERTEX
8
0
10
30.9372
20
61.812731250000006
30
0
0
VERTEX
8
0
10
30.9372
20
60.10726875
30
0
42
0.3908769079933535
0
VERTEX
8
0
10
31.724600000000002
20
59.3344
30
0
0
VERTEX
8
0
10
31.724600000000002
20
40.1828
30
0
0
VERTEX
8
0
10
31.413328125000003
20
40.1828
30
0
0
VERTEX
8
0
10
30.9372
20
39.706671875000005
30
0
0
VERTEX
8
0
10
30.9372
20
39.033328125000004
30
0
0
VERTEX
8
0
10
31.413328125000003
20
38.5572
30
0
0
VERTEX
8
0
10
32.086671875
20
38.5572
30
0
0
SEQEND
0
POLYLINE
66
1
8
16_copper
10
0.0
20
0.0
30
0.0
70
1
0
VERTEX
8
0
10
31.86940625
20
59.342228125000005
30
0
42
0.3578054101685988
0
VERTEX
8
0
10
32.5628
20
60.10726875
30
0
0
VERTEX
8
0
10
32.5628
20
61.812731250000006
30
0
42
0.9520780393388287
0
VERTEX
8
0
10
30.9372
20
61.812731250000006
30
0
0
VERTEX
8
0
10
30.9372
20
60.10726875
30
0
0
VERTEX
8
0
10
30.945028125
20
60.02779375
30
0
0
VERTEX
8
0
10
30.96060625
20
59.94946875
30
0
0
VERTEX
8
0
10
30.983790625
20
59.873046875
30
0
0
VERTEX
8
0
10
31.01435
20
59.799265625000004
30
0
0
VERTEX
8
0
10
31.051996875
20
59.728834375000005
30
0
0
VERTEX
8
0
10
31.096365625
20
59.662431250000004
30
0
0
VERTEX
8
0
10
31.147028125000002
20
59.6007
30
0
0
VERTEX
8
0
10
31.203500000000002
20
59.544228125000004
30
0
0
VERTEX
8
0
10
31.265231250000003
20
59.493565625
30
0
0
VERTEX
8
0
10
31.331634375
20
59.449196875000005
30
0
0
VERTEX
8
0
10
31.402065625000002
20
59.411550000000005
30
0
0
VERTEX
8
0
10
31.475846875000002
20
59.380990625
30
0
0
VERTEX
8
0
10
31.552268750000003
20
59.35780625
30
0
0
VERTEX
8
0
10
31.630593750000003
20
59.342228125000005
30
0
0
VERTEX
8
0
10
31.71006875
20
59.3344
30
0
0
VERTEX
8
0
10
31.789931250000002
20
59.3344
30
0
0
SEQEND
0
POLYLINE
66
1
8
16_copper
10
0.0
20
0.0
30
0.0
70
1
0
VERTEX
8
0
10
32.5628
20
39.033328125000004
30
0
0
VERTEX
8
0
10
32.5628
20
39.706671875000005
30
0
0
VERTEX
8
0
10
32.086671875
20
40.1828
30
0
0
VERTEX
8
0
10
31.413328125000003
20
40.1828
30
0
0
VERTEX
8
0
10
30.9372
20
39.706671875000005
30
0
0
VERTEX
8
0
10
30.9372
20
39.033328125000004
30
0
0
VERTEX
8
0
10
31.413328125000003
20
38.5572
30
0
0
VERTEX
8
0
10
32.086671875
20
38.5572
30
0
0
SEQEND
0
POLYLINE
66
1
8
1_copper
10
0.0
20
0.0
30
0.0
70
1
0
VERTEX
8
0
10
30.0228
20
39.033328125000004
30
0
0
VERTEX
8
0
10
30.0228
20
39.706671875000005
30
0
0
VERTEX
8
0
10
29.546671875
20
40.1828
30
0
0
VERTEX
8
0
10
29.2862
20
40.1828
30
0
0
VERTEX
8
0
10
29.2862
20
59.337971875
30
0
42
0.3729306397657086
0
VERTEX
8
0
10
30.0228
20
60.10726875
30
0
0
VERTEX
8
0
10
30.0228
20
61.812731250000006
30
0
42
0.9520780393388287
0
VERTEX
8
0
10
28.3972
20
61.812731250000006
30
0
0
VERTEX
8
0
10
28.3972
20
60.10726875
30
0
42
0.3729306397657086
0
VERTEX
8
0
10
29.1338
20
59.337971875
30
0
0
VERTEX
8
0
10
29.1338
20
40.1828
30
0
0
VERTEX
8
0
10
28.873328125
20
40.1828
30
0
0
VERTEX
8
0
10
28.3972
20
39.706671875000005
30
0
0
VERTEX
8
0
10
28.3972
20
39.033328125000004
30
0
0
VERTEX
8
0
10
28.873328125
20
38.5572
30
0
0
VERTEX
8
0
10
29.546671875
20
38.5572
30
0
0
SEQEND
0
POLYLINE
66
1
8
16_copper
10
0.0
20
0.0
30
0.0
70
1
0
VERTEX
8
0
10
29.32940625
20
59.342228125000005
30
0
42
0.3578054101685988
0
VERTEX
8
0
10
30.0228
20
60.10726875
30
0
0
VERTEX
8
0
10
30.0228
20
61.812731250000006
30
0
42
0.9520780393388287
0
VERTEX
8
0
10
28.3972
20
61.812731250000006
30
0
0
VERTEX
8
0
10
28.3972
20
60.10726875
30
0
0
VERTEX
8
0
10
28.405028125
20
60.02779375
30
0
0
VERTEX
8
0
10
28.420606250000002
20
59.94946875
30
0
0
VERTEX
8
0
10
28.443790625000002
20
59.873046875
30
0
0
VERTEX
8
0
10
28.47435
20
59.799265625000004
30
0
0
VERTEX
8
0
10
28.511996875
20
59.728834375000005
30
0
0
VERTEX
8
0
10
28.556365625
20
59.662431250000004
30
0
0
VERTEX
8
0
10
28.607028125000003
20
59.6007
30
0
0
VERTEX
8
0
10
28.663500000000003
20
59.544228125000004
30
0
0
VERTEX
8
0
10
28.72523125
20
59.493565625
30
0
0
VERTEX
8
0
10
28.791634375
20
59.449196875000005
30
0
0
VERTEX
8
0
10
28.862065625
20
59.411550000000005
30
0
0
VERTEX
8
0
10
28.935846875000003
20
59.380990625
30
0
0
VERTEX
8
0
10
29.01226875
20
59.35780625
30
0
0
VERTEX
8
0
10
29.09059375
20
59.342228125000005
30
0
0
VERTEX
8
0
10
29.170068750000002
20
59.3344
30
0
0
VERTEX
8
0
10
29.249931250000003
20
59.3344
30
0
0
SEQEND
0
POLYLINE
66
1
8
16_copper
10
0.0
20
0.0
30
0.0
70
1
0
VERTEX
8
0
10
30.0228
20
39.033328125000004
30
0
0
VERTEX
8
0
10
30.0228
20
39.706671875000005
30
0
0
VERTEX
8
0
10
29.546671875
20
40.1828
30
0
0
VERTEX
8
0
10
28.873328125
20
40.1828
30
0
0
VERTEX
8
0
10
28.3972
20
39.706671875000005
30
0
0
VERTEX
8
0
10
28.3972
20
39.033328125000004
30
0
0
VERTEX
8
0
10
28.873328125
20
38.5572
30
0
0
VERTEX
8
0
10
29.546671875
20
38.5572
30
0
0
SEQEND
0
POLYLINE
66
1
8
1_copper
10
0.0
20
0.0
30
0.0
70
1
0
VERTEX
8
0
10
27.4828
20
39.033328125000004
30
0
0
VERTEX
8
0
10
27.4828
20
39.706671875000005
30
0
0
VERTEX
8
0
10
27.006671875000002
20
40.1828
30
0
0
VERTEX
8
0
10
26.847800000000003
20
40.1828
30
0
0
VERTEX
8
0
10
26.847800000000003
20
59.353840625000004
30
0
42
0.33729308151723253
0
VERTEX
8
0
10
27.4828
20
60.10726875
30
0
0
VERTEX
8
0
10
27.4828
20
61.812731250000006
30
0
42
0.9520780393388287
0
VERTEX
8
0
10
25.857200000000002
20
61.812731250000006
30
0
0
VERTEX
8
0
10
25.857200000000002
20
60.10726875
30
0
42
0.4089954052896929
0
VERTEX
8
0
10
26.695400000000003
20
59.3344
30
0
0
VERTEX
8
0
10
26.695400000000003
20
40.1828
30
0
0
VERTEX
8
0
10
26.333328125
20
40.1828
30
0
0
VERTEX
8
0
10
25.857200000000002
20
39.706671875000005
30
0
0
VERTEX
8
0
10
25.857200000000002
20
39.033328125000004
30
0
0
VERTEX
8
0
10
26.333328125
20
38.5572
30
0
0
VERTEX
8
0
10
27.006671875000002
20
38.5572
30
0
0
SEQEND
0
POLYLINE
66
1
8
16_copper
10
0.0
20
0.0
30
0.0
70
1
0
VERTEX
8
0
10
26.789406250000003
20
59.342228125000005
30
0
42
0.3578054101685988
0
VERTEX
8
0
10
27.4828
20
60.10726875
30
0
0
VERTEX
8
0
10
27.4828
20
61.812731250000006
30
0
42
0.9520780393388287
0
VERTEX
8
0
10
25.857200000000002
20
61.812731250000006
30
0
0
VERTEX
8
0
10
25.857200000000002
20
60.10726875
30
0
0
VERTEX
8
0
10
25.865028125000002
20
60.02779375
30
0
0
VERTEX
8
0
10
25.88060625
20
59.94946875
30
0
0
VERTEX
8
0
10
25.903790625000003
20
59.873046875
30
0
0
VERTEX
8
0
10
25.934350000000002
20
59.799265625000004
30
0
0
VERTEX
8
0
10
25.971996875000002
20
59.728834375000005
30
0
0
VERTEX
8
0
10
26.016365625000002
20
59.662431250000004
30
0
0
VERTEX
8
0
10
26.067028125
20
59.6007
30
0
0
VERTEX
8
0
10
26.1235
20
59.544228125000004
30
0
0
VERTEX
8
0
10
26.18523125
20
59.493565625
30
0
0
VERTEX
8
0
10
26.251634375000002
20
59.449196875000005
30
0
0
VERTEX
8
0
10
26.322065625
20
59.411550000000005
30
0
0
VERTEX
8
0
10
26.395846875
20
59.380990625
30
0
0
VERTEX
8
0
10
26.47226875
20
59.35780625
30
0
0
VERTEX
8
0
10
26.55059375
20
59.342228125000005
30
0
0
VERTEX
8
0
10
26.63006875
20
59.3344
30
0
0
VERTEX
8
0
10
26.70993125
20
59.3344
30
0
0
SEQEND
0
POLYLINE
66
1
8
16_copper
10
0.0
20
0.0
30
0.0
70
1
0
VERTEX
8
0
10
27.4828
20
39.033328125000004
30
0
0
VERTEX
8
0
10
27.4828
20
39.706671875000005
30
0
0
VERTEX
8
0
10
27.006671875000002
20
40.1828
30
0
0
VERTEX
8
0
10
26.333328125
20
40.1828
30
0
0
VERTEX
8
0
10
25.857200000000002
20
39.706671875000005
30
0
0
VERTEX
8
0
10
25.857200000000002
20
39.033328125000004
30
0
0
VERTEX
8
0
10
26.333328125
20
38.5572
30
0
0
VERTEX
8
0
10
27.006671875000002
20
38.5572
30
0
0
SEQEND
0
POLYLINE
66
1
8
1_copper
10
0.0
20
0.0
30
0.0
70
1
0
VERTEX
8
0
10
24.942800000000002
20
39.033328125000004
30
0
0
VERTEX
8
0
10
24.942800000000002
20
39.706671875000005
30
0
0
VERTEX
8
0
10
24.466671875
20
40.1828
30
0
0
VERTEX
8
0
10
24.257
20
40.1828
30
0
0
VERTEX
8
0
10
24.257
20
59.3437375
30
0
42
0.35512672170313436
0
VERTEX
8
0
10
24.942800000000002
20
60.10726875
30
0
0
VERTEX
8
0
10
24.942800000000002
20
61.812731250000006
30
0
42
0.9520780393388287
0
VERTEX
8
0
10
23.3172
20
61.812731250000006
30
0
0
VERTEX
8
0
10
23.3172
20
60.10726875
30
0
42
0.3908769079933535
0
VERTEX
8
0
10
24.1046
20
59.3344
30
0
0
VERTEX
8
0
10
24.1046
20
40.1828
30
0
0
VERTEX
8
0
10
23.793328125000002
20
40.1828
30
0
0
VERTEX
8
0
10
23.3172
20
39.706671875000005
30
0
0
VERTEX
8
0
10
23.3172
20
39.033328125000004
30
0
0
VERTEX
8
0
10
23.793328125000002
20
38.5572
30
0
0
VERTEX
8
0
10
24.466671875
20
38.5572
30
0
0
SEQEND
0
POLYLINE
66
1
8
16_copper
10
0.0
20
0.0
30
0.0
70
1
0
VERTEX
8
0
10
24.24940625
20
59.342228125000005
30
0
42
0.3578054101685988
0
VERTEX
8
0
10
24.942800000000002
20
60.10726875
30
0
0
VERTEX
8
0
10
24.942800000000002
20
61.812731250000006
30
0
42
0.9520780393388287
0
VERTEX
8
0
10
23.3172
20
61.812731250000006
30
0
0
VERTEX
8
0
10
23.3172
20
60.10726875
30
0
0
VERTEX
8
0
10
23.325028125000003
20
60.02779375
30
0
0
VERTEX
8
0
10
23.34060625
20
59.94946875
30
0
0
VERTEX
8
0
10
23.363790625
20
59.873046875
30
0
0
VERTEX
8
0
10
23.394350000000003
20
59.799265625000004
30
0
0
VERTEX
8
0
10
23.431996875
20
59.728834375000005
30
0
0
VERTEX
8
0
10
23.476365625
20
59.662431250000004
30
0
0
VERTEX
8
0
10
23.527028125
20
59.6007
30
0
0
VERTEX
8
0
10
23.5835
20
59.544228125000004
30
0
0
VERTEX
8
0
10
23.645231250000002
20
59.493565625
30
0
0
VERTEX
8
0
10
23.711634375000003
20
59.449196875000005
30
0
0
VERTEX
8
0
10
23.782065625
20
59.411550000000005
30
0
0
VERTEX
8
0
10
23.855846875
20
59.380990625
30
0
0
VERTEX
8
0
10
23.932268750000002
20
59.35780625
30
0
0
VERTEX
8
0
10
24.01059375
20
59.342228125000005
30
0
0
VERTEX
8
0
10
24.09006875
20
59.3344
30
0
0
VERTEX
8
0
10
24.16993125
20
59.3344
30
0
0
SEQEND
0
POLYLINE
66
1
8
16_copper
10
0.0
20
0.0
30
0.0
70
1
0
VERTEX
8
0
10
24.942800000000002
20
39.033328125000004
30
0
0
VERTEX
8
0
10
24.942800000000002
20
39.706671875000005
30
0
0
VERTEX
8
0
10
24.466671875
20
40.1828
30
0
0
VERTEX
8
0
10
23.793328125000002
20
40.1828
30
0
0
VERTEX
8
0
10
23.3172
20
39.706671875000005
30
0
0
VERTEX
8
0
10
23.3172
20
39.033328125000004
30
0
0
VERTEX
8
0
10
23.793328125000002
20
38.5572
30
0
0
VERTEX
8
0
10
24.466671875
20
38.5572
30
0
0
SEQEND
0
CIRCLE
8
drills_PTH
10
24.130000000000003
20
36.83
30
0
40
0.508
0
CIRCLE
8
drills_PTH
10
24.130000000000003
20
39.370000000000005
30
0
40
0.508
0
CIRCLE
8
drills_PTH
10
26.67
20
36.83
30
0
40
0.508
0
CIRCLE
8
drills_PTH
10
26.67
20
39.370000000000005
30
0
40
0.508
0
CIRCLE
8
drills_PTH
10
29.21
20
36.83
30
0
40
0.508
0
CIRCLE
8
drills_PTH
10
29.21
20
39.370000000000005
30
0
40
0.508
0
CIRCLE
8
drills_PTH
10
31.75
20
36.83
30
0
40
0.508
0
CIRCLE
8
drills_PTH
10
31.75
20
39.370000000000005
30
0
40
0.508
0
CIRCLE
8
drills_PTH
10
34.29
20
36.83
30
0
40
0.508
0
CIRCLE
8
drills_PTH
10
34.29
20
39.370000000000005
30
0
40
0.508
0
CIRCLE
8
drills_PTH
10
36.83
20
36.83
30
0
40
0.508
0
CIRCLE
8
drills_PTH
10
36.83
20
39.370000000000005
30
0
40
0.508
0
CIRCLE
8
drills_PTH
10
39.370000000000005
20
36.83
30
0
40
0.508
0
CIRCLE
8
drills_PTH
10
39.370000000000005
20
39.370000000000005
30
0
40
0.508
0
CIRCLE
8
drills_PTH
10
41.910000000000004
20
36.83
30
0
40
0.508
0
CIRCLE
8
drills_PTH
10
41.910000000000004
20
39.370000000000005
30
0
40
0.508
0
CIRCLE
8
drills_PTH
10
44.45
20
36.83
30
0
40
0.508
0
CIRCLE
8
drills_PTH
10
44.45
20
39.370000000000005
30
0
40
0.508
0
CIRCLE
8
drills_PTH
10
46.99
20
36.83
30
0
40
0.508
0
CIRCLE
8
drills_PTH
10
46.99
20
39.370000000000005
30
0
40
0.508
0
CIRCLE
8
drills_PTH
10
49.53
20
36.83
30
0
40
0.508
0
CIRCLE
8
drills_PTH
10
49.53
20
39.370000000000005
30
0
40
0.508
0
CIRCLE
8
drills_PTH
10
52.07
20
36.83
30
0
40
0.508
0
CIRCLE
8
drills_PTH
10
52.07
20
39.370000000000005
30
0
40
0.508
0
CIRCLE
8
drills_PTH
10
54.61
20
36.83
30
0
40
0.508
0
CIRCLE
8
drills_PTH
10
54.61
20
39.370000000000005
30
0
40
0.508
0
CIRCLE
8
drills_PTH
10
57.150000000000006
20
36.83
30
0
40
0.508
0
CIRCLE
8
drills_PTH
10
57.150000000000006
20
39.370000000000005
30
0
40
0.508
0
CIRCLE
8
drills_PTH
10
59.690000000000005
20
36.83
30
0
40
0.508
0
CIRCLE
8
drills_PTH
10
59.690000000000005
20
39.370000000000005
30
0
40
0.508
0
CIRCLE
8
drills_PTH
10
62.230000000000004
20
36.83
30
0
40
0.508
0
CIRCLE
8
drills_PTH
10
62.230000000000004
20
39.370000000000005
30
0
40
0.508
0
CIRCLE
8
drills_PTH
10
64.77
20
36.83
30
0
40
0.508
0
CIRCLE
8
drills_PTH
10
64.77
20
39.370000000000005
30
0
40
0.508
0
CIRCLE
8
drills_PTH
10
67.31
20
36.83
30
0
40
0.508
0
CIRCLE
8
drills_PTH
10
67.31
20
39.370000000000005
30
0
40
0.508
0
CIRCLE
8
drills_PTH
10
69.85000000000001
20
36.83
30
0
40
0.508
0
CIRCLE
8
drills_PTH
10
69.85000000000001
20
39.370000000000005
30
0
40
0.508
0
CIRCLE
8
drills_PTH
10
72.39
20
36.83
30
0
40
0.508
0
CIRCLE
8
drills_PTH
10
72.39
20
39.370000000000005
30
0
40
0.508
0
CIRCLE
8
drills_PTH
10
24.130000000000003
20
15.24
30
0
40
0.508
0
CIRCLE
8
drills_PTH
10
26.67
20
15.24
30
0
40
0.508
0
CIRCLE
8
drills_PTH
10
29.21
20
15.24
30
0
40
0.508
0
CIRCLE
8
drills_PTH
10
31.75
20
15.24
30
0
40
0.508
0
CIRCLE
8
drills_PTH
10
34.29
20
15.24
30
0
40
0.508
0
CIRCLE
8
drills_PTH
10
36.83
20
15.24
30
0
40
0.508
0
CIRCLE
8
drills_PTH
10
39.370000000000005
20
15.24
30
0
40
0.508
0
CIRCLE
8
drills_PTH
10
41.910000000000004
20
15.24
30
0
40
0.508
0
CIRCLE
8
drills_PTH
10
44.45
20
15.24
30
0
40
0.508
0
CIRCLE
8
drills_PTH
10
46.99
20
15.24
30
0
40
0.508
0
CIRCLE
8
drills_PTH
10
49.53
20
15.24
30
0
40
0.508
0
CIRCLE
8
drills_PTH
10
52.07
20
15.24
30
0
40
0.508
0
CIRCLE
8
drills_PTH
10
54.61
20
15.24
30
0
40
0.508
0
CIRCLE
8
drills_PTH
10
57.150000000000006
20
15.24
30
0
40
0.508
0
CIRCLE
8
drills_PTH
10
59.690000000000005
20
15.24
30
0
40
0.508
0
CIRCLE
8
drills_PTH
10
62.230000000000004
20
15.24
30
0
40
0.508
0
CIRCLE
8
drills_PTH
10
64.77
20
15.24
30
0
40
0.508
0
CIRCLE
8
drills_PTH
10
67.31
20
15.24
30
0
40
0.508
0
CIRCLE
8
drills_PTH
10
69.85000000000001
20
15.24
30
0
40
0.508
0
CIRCLE
8
drills_PTH
10
72.39
20
15.24
30
0
40
0.508
0
CIRCLE
8
drills_PTH
10
24.130000000000003
20
60.96
30
0
40
0.508
0
CIRCLE
8
drills_PTH
10
26.67
20
60.96
30
0
40
0.508
0
CIRCLE
8
drills_PTH
10
29.21
20
60.96
30
0
40
0.508
0
CIRCLE
8
drills_PTH
10
31.75
20
60.96
30
0
40
0.508
0
CIRCLE
8
drills_PTH
10
34.29
20
60.96
30
0
40
0.508
0
CIRCLE
8
drills_PTH
10
36.83
20
60.96
30
0
40
0.508
0
CIRCLE
8
drills_PTH
10
39.370000000000005
20
60.96
30
0
40
0.508
0
CIRCLE
8
drills_PTH
10
41.910000000000004
20
60.96
30
0
40
0.508
0
CIRCLE
8
drills_PTH
10
44.45
20
60.96
30
0
40
0.508
0
CIRCLE
8
drills_PTH
10
46.99
20
60.96
30
0
40
0.508
0
CIRCLE
8
drills_PTH
10
49.53
20
60.96
30
0
40
0.508
0
CIRCLE
8
drills_PTH
10
52.07
20
60.96
30
0
40
0.508
0
CIRCLE
8
drills_PTH
10
54.61
20
60.96
30
0
40
0.508
0
CIRCLE
8
drills_PTH
10
57.150000000000006
20
60.96
30
0
40
0.508
0
CIRCLE
8
drills_PTH
10
59.690000000000005
20
60.96
30
0
40
0.508
0
CIRCLE
8
drills_PTH
10
62.230000000000004
20
60.96
30
0
40
0.508
0
CIRCLE
8
drills_PTH
10
64.77
20
60.96
30
0
40
0.508
0
CIRCLE
8
drills_PTH
10
67.31
20
60.96
30
0
40
0.508
0
CIRCLE
8
drills_PTH
10
69.85000000000001
20
60.96
30
0
40
0.508
0
CIRCLE
8
drills_PTH
10
72.39
20
60.96
30
0
40
0.508
0
ENDSEC
0
EOF